<svg width="200" height="37" viewBox="0 0 200 37" fill="none" xmlns="http://www.w3.org/2000/svg">
<path d="M141.879 27.4102C144.175 27.4102 146.125 26.9051 147.524 25.9435C148.963 24.9528 149.564 23.5347 149.564 21.8349C149.564 18.8336 147.751 17.3475 142.716 16.5121C139.632 15.9391 138.746 15.3951 138.746 14.0839C138.746 12.7726 140.096 11.9373 141.889 11.9373C143.869 11.9373 145.091 13.0932 145.091 14.385H149.16C149.16 13.0349 148.382 11.3837 147.012 10.3832C145.643 9.35364 143.879 8.83885 141.751 8.83885C139.416 8.83885 137.563 9.39249 136.243 10.4901C134.933 11.5779 134.302 12.86 134.302 14.4141C134.302 17.2018 136.302 18.7364 141.002 19.562C144.234 20.1157 145.278 20.7567 145.278 22.204C145.278 23.5444 144.046 24.3506 141.977 24.3506C139.711 24.3506 138.411 23.3501 138.095 21.728H134.066C134.223 25.2927 136.982 27.4199 141.899 27.4199L141.879 27.4102Z" fill="black"/>
<path d="M132.056 16.0556C132.056 16.0556 132.056 16.0556 132.056 16.0459C132.056 15.8517 131.997 14.9872 131.859 14.4238C131.297 11.6556 129.287 8.95541 125.514 8.84856C124.499 8.81943 122.883 8.89713 121.513 9.86843C120.656 10.4706 119.976 11.2477 119.651 11.6556V9.20795H116.045V27.3033H119.829V16.7453C120.016 14.1227 121.75 12.3744 124.016 12.3744C126.528 12.3744 128.223 13.9868 128.223 16.6287V27.2936H132.085L132.056 16.0459V16.0556Z" fill="black"/>
<path d="M104.675 9.08168C99.5418 9.08168 95.3741 13.1903 95.3741 18.2508C95.3741 23.3113 99.5418 27.4199 104.675 27.4199C107.986 27.4199 110.902 25.7104 112.547 23.1364L108.961 21.6309C107.976 22.9519 106.429 23.7969 104.685 23.7969C102.251 23.7969 100.182 22.136 99.5123 19.8534H113.838C113.927 19.3289 113.976 18.7947 113.976 18.2508C113.976 13.1903 109.808 9.08168 104.675 9.08168ZM99.463 16.7938C100.084 14.4336 102.182 12.7046 104.675 12.7046C107.168 12.7046 109.266 14.4336 109.887 16.7938H99.463Z" fill="black"/>
<path d="M93.8371 12.5881V9.19823H78.2699V12.6269H88.9108L78.2699 23.8066V27.3033H93.8371V23.8746H83.3243L93.8371 12.5881Z" fill="black"/>
<path d="M198.552 23.9815C198.069 24.0106 197.655 24.0106 197.32 23.894C196.414 23.5929 195.99 22.8742 195.99 21.6795V13.0932H198.443L200 11.0437V9.74216H195.99V4.88565H192.029V9.74216H190.482V13.1029H192.029V22.3788C192.029 25.5355 193.96 27.4296 197.359 27.4296C198.729 27.4296 199.537 27.2159 200 27.0605V23.7872C199.586 23.8843 199.044 23.9717 198.552 24.0009V23.9815Z" fill="black"/>
<path d="M168.067 27.3033L168.038 16.0556C168.038 16.0556 168.038 16.0556 168.038 16.0459C168.038 15.8517 167.979 14.9872 167.841 14.4238C167.279 11.6556 165.181 8.95541 161.407 8.84856C160.392 8.81943 158.776 8.89713 157.407 9.86843C156.678 10.3832 156.086 11.0146 155.722 11.4419V4.29316H151.781V27.3033H155.722V16.6967C155.929 14.1033 157.653 12.3841 159.909 12.3841C162.422 12.3841 164.116 13.9965 164.116 16.6384V27.3033H168.067Z" fill="black"/>
<path d="M179.575 9.08168C174.442 9.08168 170.274 13.1903 170.274 18.2508C170.274 23.3113 174.442 27.4199 179.575 27.4199C184.709 27.4199 188.876 23.3113 188.876 18.2508C188.876 13.1903 184.709 9.08168 179.575 9.08168ZM179.575 23.7969C176.59 23.7969 174.176 21.3201 174.176 18.2605C174.176 15.2009 176.59 12.7241 179.575 12.7241C182.561 12.7241 184.975 15.2009 184.975 18.2605C184.975 21.3201 182.561 23.7969 179.575 23.7969Z" fill="black"/>
<path d="M63.0179 7.32362C60.535 4.37086 57.8354 2.7585 53.4312 1.74834C52.6627 1.5638 51.8055 1.39868 50.8793 1.23355C46.2289 0.437086 40.0611 0 33.4992 0C26.9471 0 20.7695 0.437086 16.119 1.23355C15.0451 1.4181 14.0697 1.61236 13.2125 1.82605C8.97581 2.86534 6.3747 4.48742 3.97064 7.34305C1.40894 10.4124 0 14.317 0 18.3576C0 22.3982 1.41879 26.3126 3.98049 29.3722C6.46337 32.3249 9.16301 33.9373 13.5672 34.9475C14.3357 35.132 15.1929 35.2971 16.119 35.4622C20.7695 36.2587 26.9373 36.6958 33.4992 36.6958C40.0512 36.6958 46.2289 36.2587 50.8793 35.4622C51.9533 35.2777 52.9287 35.0834 53.7859 34.8698C58.0226 33.8305 60.6237 32.2084 63.0277 29.3528C65.5894 26.3029 66.9984 22.3982 66.9984 18.3576C66.9984 14.317 65.5796 10.4026 63.0179 7.34305V7.32362ZM33.4992 1.71921C39.7064 1.71921 45.6081 2.11744 50.101 2.84592C52.2587 3.19558 53.9829 3.59382 55.2342 4.05033C55.7269 4.22517 56.0914 4.39029 56.3476 4.53598C56.5644 4.65254 56.6924 4.81766 56.6924 5.01192C56.6924 5.20618 56.5545 5.3713 56.3476 5.48786C55.5495 5.88609 53.8155 6.47859 50.0616 6.99338C47.3028 7.37218 43.9135 7.63444 40.1695 7.78013C41.2533 6.634 42.5243 5.64327 43.9529 4.88565C43.9529 4.88565 43.9628 4.88565 43.9726 4.88565L43.1942 3.39956L43.1647 3.41898C42.2287 3.8755 38.5536 4.38057 33.509 4.38057C27.7354 4.38057 24.5037 3.78808 23.814 3.41898C22.9765 2.97219 22.1095 2.6128 21.203 2.32141C24.8879 1.95232 29.1246 1.74834 33.509 1.74834L33.4992 1.71921ZM33.4992 28.7991C34.9968 28.7991 36.4648 28.8185 37.8935 28.8574C38.4847 29.615 39.1349 30.3143 39.8443 30.9651C38.0019 30.7806 35.8146 30.6737 33.4992 30.6737C30.8981 30.6737 28.7896 30.8 27.154 30.9748C27.8733 30.3241 28.5236 29.615 29.1147 28.8574C30.5434 28.8185 32.0114 28.8088 33.4992 28.8088V28.7991ZM33.4992 27.0896C32.4154 27.0896 31.3414 27.0896 30.2971 27.1188C31.8341 24.5351 32.6814 21.5143 32.6814 18.3479C32.6814 15.1815 31.8242 12.151 30.2872 9.56733C31.3414 9.58675 32.4154 9.59647 33.4992 9.59647C34.583 9.59647 35.6569 9.59647 36.7013 9.56733C35.1643 12.151 34.317 15.1717 34.317 18.3382C34.317 21.5046 35.1741 24.5351 36.7112 27.1188C35.6569 27.0993 34.583 27.0896 33.4992 27.0896ZM33.4992 7.88697C32.0016 7.88697 30.5335 7.86755 29.1049 7.8287C28.5137 7.07108 27.8634 6.37174 27.154 5.72097C28.9965 5.90552 31.1838 6.01236 33.4992 6.01236C36.1003 6.01236 38.2088 5.88609 39.8443 5.71126C39.1251 6.36203 38.4748 7.07108 37.8836 7.8287C36.455 7.86755 34.9869 7.87726 33.4992 7.87726V7.88697ZM10.6409 4.53598C10.8971 4.39029 11.2616 4.22517 11.774 4.04062C12.4341 3.79779 13.2322 3.57439 14.1583 3.37042C14.8776 3.26358 15.6067 3.2053 16.3456 3.2053C18.7103 3.2053 20.9567 3.76865 23.0455 4.87594C24.4741 5.63355 25.7451 6.61457 26.8289 7.76071C23.0947 7.61501 19.7054 7.35276 16.9565 6.97395C13.2026 6.45916 11.4685 5.87638 10.6705 5.47815C10.4537 5.36159 10.3158 5.19647 10.3158 5.00221C10.3158 4.80795 10.4439 4.65254 10.6409 4.53598ZM8.38465 31.072C7.24174 30.3046 6.19735 29.3722 5.2909 28.294C2.97552 25.5355 1.69466 22.0097 1.69466 18.3479C1.69466 14.6861 2.96566 11.17 5.28105 8.42119C6.1875 7.33333 7.24174 6.40088 8.38465 5.62384C8.92655 6.96424 11.3897 7.88698 16.1387 8.5766C19.4098 9.05254 23.5874 9.37307 28.2378 9.50905C29.9916 12.0344 30.9769 15.1038 30.9769 18.3382C30.9769 21.5726 29.9916 24.6322 28.2575 27.1479C23.5972 27.2839 19.4098 27.6044 16.1387 28.0803C11.37 28.7797 8.90684 29.7121 8.3748 31.0525L8.38465 31.072ZM33.4992 34.9669C27.292 34.9669 21.3902 34.5686 16.8974 33.8402C14.7396 33.4905 13.0154 33.0923 11.7641 32.6358C11.2715 32.4609 10.9069 32.2958 10.6508 32.1501C10.434 32.0335 10.3059 31.8684 10.3059 31.6742C10.3059 31.4799 10.4439 31.3148 10.6508 31.1982C11.4488 30.8 13.1829 30.2075 16.9368 29.6927C19.6955 29.3139 23.0849 29.0517 26.8289 28.906C25.7451 30.0521 24.4741 31.0428 23.0455 31.8004C23.0455 31.8004 23.0356 31.8004 23.0258 31.8004L23.8041 33.2865L23.8337 33.2671C24.7697 32.8106 28.4447 32.3055 33.4893 32.3055C39.263 32.3055 42.4947 32.898 43.1844 33.2671C44.0219 33.7139 44.8889 34.0733 45.7954 34.3647C42.1104 34.7338 37.8738 34.9377 33.4893 34.9377L33.4992 34.9669ZM56.3673 32.1501C56.1111 32.2958 55.7466 32.4609 55.2342 32.6455C54.5741 32.8883 53.776 33.1117 52.8499 33.3157C52.1306 33.4225 51.4015 33.4808 50.6626 33.4808C48.2979 33.4808 46.0515 32.9174 43.9628 31.8102C42.5341 31.0525 41.2631 30.0715 40.1793 28.9254C43.9135 29.0711 47.3028 29.3333 50.0517 29.7121C53.8056 30.2269 55.5397 30.8097 56.3377 31.2079C56.5545 31.3245 56.6924 31.4896 56.6924 31.6839C56.6924 31.8781 56.5644 32.0335 56.3673 32.1501ZM61.7272 28.2649C60.8207 29.3528 59.7665 30.2852 58.6236 31.0622C58.0817 29.7218 55.6185 28.7991 50.8695 28.1095C47.5984 27.6336 43.4209 27.313 38.7704 27.177C37.0166 24.6517 36.0313 21.5823 36.0313 18.3479C36.0313 15.1135 37.0166 12.0539 38.7507 9.53819C43.411 9.40221 47.5984 9.08168 50.8695 8.60574C55.6382 7.9064 58.1014 6.97395 58.6334 5.63355C59.7763 6.40088 60.8207 7.33333 61.7272 8.41148C64.0426 11.17 65.3234 14.6958 65.3234 18.3576C65.3234 22.0194 64.0524 25.5355 61.737 28.2843L61.7272 28.2649Z" fill="black"/>
</svg>
