<svg width="261" height="34" viewBox="0 0 261 34" fill="none" xmlns="http://www.w3.org/2000/svg">
<mask id="mask0_516_247" style="mask-type:luminance" maskUnits="userSpaceOnUse" x="1" y="1" width="260" height="32">
<path fill-rule="evenodd" clip-rule="evenodd" d="M1 32.6966H261V1H1V32.6966Z" fill="white"/>
</mask>
<g mask="url(#mask0_516_247)">
<path fill-rule="evenodd" clip-rule="evenodd" d="M243.105 19.2803C242.386 20.4797 241.113 21.2781 239.661 21.2781C237.417 21.2781 235.597 19.3717 235.597 17.0205C235.597 14.6693 237.417 12.7629 239.661 12.7629C241.113 12.7629 242.386 13.5613 243.105 14.7613L245.714 13.0491C244.42 11.0812 242.193 9.7803 239.661 9.7803C235.663 9.7803 232.421 13.0219 232.421 17.0205C232.421 21.0192 235.663 24.2607 239.661 24.2607C242.193 24.2607 244.42 22.9604 245.714 20.9919L243.105 19.2803Z" fill="#EEEFEF"/>
<path fill-rule="evenodd" clip-rule="evenodd" d="M72.1626 24.255V21.2521L80.4213 12.8086H72.1626V9.77649H84.7176V12.6893L76.6264 21.2229H84.7233V24.255H72.1626Z" fill="#EEEFEF"/>
<path fill-rule="evenodd" clip-rule="evenodd" d="M134.259 24.255H130.747V10.2131H134.168V12.0871C135.136 10.4727 136.892 9.80885 138.528 9.80885C142.13 9.80885 143.855 12.2889 143.855 15.3737V24.255H140.343V15.9506C140.343 14.2206 139.526 12.8366 137.316 12.8366C135.318 12.8366 134.259 14.3076 134.259 16.1524V24.255Z" fill="#EEEFEF"/>
<path fill-rule="evenodd" clip-rule="evenodd" d="M181.759 24.2551H185.241V11.6981H181.759V24.2551Z" fill="#EEEFEF"/>
<path fill-rule="evenodd" clip-rule="evenodd" d="M124.852 24.2551H128.333V11.6981H124.852V24.2551Z" fill="#EEEFEF"/>
<path fill-rule="evenodd" clip-rule="evenodd" d="M96.2795 19.4195C95.5478 20.5415 94.3173 21.2783 92.9218 21.2783C90.6772 21.2783 88.8578 19.3719 88.8578 17.0207C88.8578 14.6695 90.6772 12.7631 92.9218 12.7631C95.1664 12.7631 96.9858 14.6695 96.9858 17.0207C96.9858 17.3735 96.9445 17.7156 96.8671 18.0437L100.045 18.3121C100.12 17.8926 100.162 17.4618 100.162 17.0207C100.162 13.0221 96.9204 9.78049 92.9218 9.78049C88.9231 9.78049 85.6816 13.0221 85.6816 17.0207C85.6816 21.0194 88.9231 24.2609 92.9218 24.2609C95.6893 24.2609 98.0932 22.7074 99.3116 20.4254L96.2795 19.4195Z" fill="#EEEFEF"/>
<path fill-rule="evenodd" clip-rule="evenodd" d="M87.9535 18.3056H100.016V15.759H87.9535V18.3056Z" fill="#EEEFEF"/>
<path fill-rule="evenodd" clip-rule="evenodd" d="M164.454 19.4195C163.722 20.5415 162.491 21.2783 161.096 21.2783C158.851 21.2783 157.032 19.3719 157.032 17.0207C157.032 14.6695 158.851 12.7631 161.096 12.7631C163.341 12.7631 165.16 14.6695 165.16 17.0207C165.16 17.3735 165.119 17.7156 165.041 18.0437L168.219 18.3121C168.294 17.8926 168.336 17.4618 168.336 17.0207C168.336 13.0221 165.095 9.78049 161.096 9.78049C157.097 9.78049 153.856 13.0221 153.856 17.0207C153.856 21.0194 157.097 24.2609 161.096 24.2609C163.863 24.2609 166.267 22.7074 167.486 20.4254L164.454 19.4195Z" fill="#EEEFEF"/>
<path fill-rule="evenodd" clip-rule="evenodd" d="M156.127 18.3056H168.19V15.759H156.127V18.3056Z" fill="#EEEFEF"/>
<path fill-rule="evenodd" clip-rule="evenodd" d="M211.636 19.4195C210.904 20.5415 209.674 21.2783 208.278 21.2783C206.034 21.2783 204.214 19.3719 204.214 17.0207C204.214 14.6695 206.034 12.7631 208.278 12.7631C210.523 12.7631 212.342 14.6695 212.342 17.0207C212.342 17.3735 212.301 17.7156 212.223 18.0437L215.401 18.3121C215.476 17.8926 215.518 17.4618 215.518 17.0207C215.518 13.0221 212.277 9.78049 208.278 9.78049C204.279 9.78049 201.038 13.0221 201.038 17.0207C201.038 21.0194 204.279 24.2609 208.278 24.2609C211.046 24.2609 213.449 22.7074 214.668 20.4254L211.636 19.4195Z" fill="#EEEFEF"/>
<path fill-rule="evenodd" clip-rule="evenodd" d="M203.309 18.3056H215.372V15.759H203.309V18.3056Z" fill="#EEEFEF"/>
<path fill-rule="evenodd" clip-rule="evenodd" d="M257.117 19.4195C256.386 20.5415 255.155 21.2783 253.76 21.2783C251.515 21.2783 249.696 19.3719 249.696 17.0207C249.696 14.6695 251.515 12.7631 253.76 12.7631C256.004 12.7631 257.824 14.6695 257.824 17.0207C257.824 17.3735 257.783 17.7156 257.705 18.0437L260.883 18.3121C260.958 17.8926 261 17.4618 261 17.0207C261 13.0221 257.758 9.78049 253.76 9.78049C249.761 9.78049 246.52 13.0221 246.52 17.0207C246.52 21.0194 249.761 24.2609 253.76 24.2609C256.527 24.2609 258.931 22.7074 260.15 20.4254L257.117 19.4195Z" fill="#EEEFEF"/>
<path fill-rule="evenodd" clip-rule="evenodd" d="M248.792 18.3056H260.854V15.759H248.792V18.3056Z" fill="#EEEFEF"/>
<path fill-rule="evenodd" clip-rule="evenodd" d="M220.965 24.255H217.454V10.2131H220.875V11.8555C221.877 10.3578 223.599 9.80885 225.234 9.80885C228.836 9.80885 230.562 12.2889 230.562 15.3737V24.255H227.05V15.9506C227.05 14.2206 226.233 12.8366 224.023 12.8366C222.025 12.8366 220.965 14.3076 220.965 16.1524V24.255Z" fill="#EEEFEF"/>
<path fill-rule="evenodd" clip-rule="evenodd" d="M105.609 24.255H102.097V9.79362H105.518V11.5045C106.672 10.0316 108.243 9.58293 109.877 9.58293C113.479 9.58293 115.205 12.2889 115.205 15.3737V24.255H111.694V15.9506C111.694 14.2206 110.876 12.8366 108.667 12.8366C106.669 12.8366 105.609 14.3983 105.609 15.7329V24.255Z" fill="#EEEFEF"/>
<path fill-rule="evenodd" clip-rule="evenodd" d="M175.849 24.2551H179.361V6.33128H175.849V24.2551Z" fill="#EEEFEF"/>
<path fill-rule="evenodd" clip-rule="evenodd" d="M169.923 24.2551H173.435V6.33128H169.923V24.2551Z" fill="#EEEFEF"/>
<path fill-rule="evenodd" clip-rule="evenodd" d="M151.826 21.291C150.524 21.291 149.949 20.7719 149.949 19.5325V13.1827H150.619L152.007 10.2127H149.938L149.949 6.34289H149.857V6.33083H148.052V6.59483H148.044C147.97 7.89704 146.704 10.1823 146.704 10.1823L145.322 10.2076V13.1827H146.468V20.0802C146.468 22.7037 148.163 24.261 150.888 24.261C152.159 24.261 152.825 24.03 153.037 23.9437V21.1755C152.886 21.2047 152.31 21.291 151.826 21.291Z" fill="#EEEFEF"/>
<path fill-rule="evenodd" clip-rule="evenodd" d="M183.485 5.85913C184.756 5.85913 185.785 6.83896 185.785 8.05042C185.785 9.26125 184.756 10.2132 183.485 10.2132C182.244 10.2132 181.215 9.26125 181.215 8.05042C181.215 6.83896 182.244 5.85913 183.485 5.85913Z" fill="#EEEFEF"/>
<path fill-rule="evenodd" clip-rule="evenodd" d="M126.577 5.85913C127.849 5.85913 128.878 6.83896 128.878 8.05042C128.878 9.26125 127.849 10.2132 126.577 10.2132C125.336 10.2132 124.307 9.26125 124.307 8.05042C124.307 6.83896 125.336 5.85913 126.577 5.85913Z" fill="#EEEFEF"/>
<path fill-rule="evenodd" clip-rule="evenodd" d="M146.464 14.1737H148.88V6.33128H146.464V14.1737Z" fill="#EEEFEF"/>
<path fill-rule="evenodd" clip-rule="evenodd" d="M192.516 24.1429H195.148C196.782 24.1429 197.575 24.6843 197.575 25.798C197.575 27.288 196.485 28.0128 194.24 28.0128C191.933 28.0128 190.662 27.2658 190.662 25.9097C190.662 24.8911 191.355 24.2312 192.516 24.1429ZM193.695 17.4529C192.078 17.4529 190.904 16.3798 190.904 14.9018C190.904 13.3597 192.026 12.3228 193.695 12.3228C195.346 12.3228 196.455 13.3597 196.455 14.9018C196.455 16.4039 195.32 17.4529 193.695 17.4529ZM195.912 10.0883C195.184 9.88399 194.448 9.78055 193.725 9.78055C191.933 9.78055 190.455 10.2654 189.33 11.2217C188.197 12.1851 187.646 13.3889 187.646 14.9018C187.646 15.9794 187.966 16.9287 188.624 17.8032C187.593 18.5546 187.071 19.3599 187.071 20.5669C187.071 21.8552 187.686 22.8509 188.952 23.5578C188.621 23.7457 188.342 23.9564 188.115 24.1912C187.618 24.7071 187.374 25.3404 187.374 26.1058C187.374 27.9772 188.424 29.2966 190.397 29.9826C190.585 30.0479 190.781 30.107 190.986 30.1609C191.395 30.2688 191.837 30.3526 192.312 30.4135C192.905 30.489 193.548 30.5271 194.24 30.5271C198.369 30.5271 200.834 28.6962 200.834 25.6298C200.834 23.087 199.026 21.6286 195.875 21.6286H192.03C190.981 21.6286 190.329 21.1216 190.329 20.3423C190.329 19.9558 190.616 19.5135 190.802 19.4012C191.708 19.7718 192.644 19.9393 193.725 19.9393C195.476 19.9393 196.924 19.464 198.03 18.5254C198.142 18.4277 198.248 18.3261 198.348 18.2221C198.355 18.2157 198.362 18.2087 198.368 18.2024C198.472 18.0945 198.569 17.9841 198.661 17.8705C198.661 17.8699 198.662 17.8692 198.663 17.8692L198.675 17.8534C199.343 17.0176 199.683 16.0295 199.683 14.9018C199.683 14.4652 199.62 14.028 199.5 13.5939L199.5 13.5933L199.495 13.5749C199.495 13.573 199.494 13.571 199.493 13.5698C199.456 13.4403 199.415 13.3121 199.368 13.1833C199.361 13.1662 199.354 13.1497 199.348 13.1325C199.309 13.0291 199.266 12.9257 199.22 12.8228C199.212 12.8044 199.205 12.7854 199.197 12.767L195.912 10.0883Z" fill="#EEEFEF"/>
<path fill-rule="evenodd" clip-rule="evenodd" d="M199.683 14.9018C199.683 13.3889 199.173 12.1852 198.04 11.2219C196.915 10.2655 195.437 9.78068 193.645 9.78068L193.675 12.3229C195.345 12.3229 196.466 13.3592 196.466 14.9019L199.683 14.9018Z" fill="#EEEFEF"/>
<path fill-rule="evenodd" clip-rule="evenodd" d="M199.128 13.1828H199.4L200.694 11.2365V10.2128H196.255L199.128 13.1828Z" fill="#EEEFEF"/>
<path fill-rule="evenodd" clip-rule="evenodd" d="M150.523 13.1828H151.973L153.267 11.2365V10.2128H148.828L150.523 13.1828Z" fill="#EEEFEF"/>
</g>
<path d="M13.5513 30.7694C6.79725 29.7293 1.62585 23.8928 1.62585 16.8481C1.62585 9.79824 6.8055 3.95796 13.5666 2.92482C14.2659 2.81821 14.9825 2.76243 15.7117 2.76243C18.0204 2.76243 20.1996 3.31771 22.1224 4.30262C26.6789 6.63543 29.7973 11.3774 29.7973 16.8483C29.7973 22.3262 26.67 27.0737 22.1034 29.4034L22.0945 29.4103C23.0636 28.8601 26.8255 28.4502 31.3185 28.4502C36.5464 28.4502 40.7849 29.0055 40.7849 29.6902M21.852 4.00702C21.852 4.69176 26.0906 5.24704 31.3184 5.24704C35.7162 5.24704 39.4134 4.85422 40.477 4.32178L40.4618 4.3294C35.9333 6.67109 32.8383 11.3983 32.8383 16.8483C32.8383 22.3002 35.9352 27.028 40.4662 29.3697C42.4005 30.3692 44.5963 30.934 46.924 30.934C47.6531 30.934 48.3696 30.8781 49.0689 30.7715C55.83 29.7384 61.0097 23.8982 61.0097 16.8483C61.0097 9.78707 55.8142 3.93981 49.0373 2.92M52.1152 29.1867C52.1152 27.4073 42.8043 25.9648 31.3186 25.9648C19.8329 25.9648 10.522 27.4073 10.522 29.1867C10.522 30.9661 19.8329 32.071 31.3186 32.071C42.8043 32.071 52.1152 30.9661 52.1152 29.1867ZM52.1152 4.51026C52.1152 6.28969 42.8043 7.73215 31.3186 7.73215C19.8329 7.73215 10.522 6.28969 10.522 4.51026C10.522 2.73083 19.8329 1.62598 31.3186 1.62598C42.8043 1.62598 52.1152 2.73083 52.1152 4.51026Z" stroke="#EEEFEF" stroke-width="1.973"/>
</svg>
