<svg width="19" height="19" viewBox="0 0 19 19" fill="none" xmlns="http://www.w3.org/2000/svg">
<path d="M4.2795 18.0196V5.86108H0.238207V18.0196H4.27993H4.2795ZM2.2597 4.20133C3.66869 4.20133 4.54588 3.2677 4.54588 2.10093C4.51951 0.907572 3.66869 0 2.2865 0C0.903353 0 0 0.907572 0 2.10082C0 3.2676 0.876873 4.20123 2.23322 4.20123H2.25938L2.2597 4.20133ZM6.51642 18.0196H10.5574V11.2305C10.5574 10.8676 10.5838 10.5037 10.6905 10.2445C10.9825 9.51817 11.6475 8.76631 12.7641 8.76631C14.2261 8.76631 14.8113 9.88118 14.8113 11.5158V18.0196H18.8521V11.0483C18.8521 7.31385 16.8587 5.57604 14.1999 5.57604C12.0201 5.57604 11.0627 6.7944 10.5308 7.62422H10.5577V5.86151H6.51663C6.56938 7.00212 6.51631 18.02 6.51631 18.02L6.51642 18.0196Z" fill="#EEEEEE"/>
</svg>
