<svg width="289" height="37" viewBox="0 0 289 37" fill="none" xmlns="http://www.w3.org/2000/svg">
<path d="M213.811 11.6957C214.122 11.6957 214.435 11.7129 214.749 11.7474C215.429 11.8174 216.061 11.9603 216.644 12.1732H221.506V13.3031L220.086 15.4379C220.29 16.0203 220.389 16.6557 220.389 17.3509L220.385 17.5824C220.342 18.7315 219.969 19.7446 219.277 20.6097L219.262 20.6273L219.261 20.6283C219.16 20.7537 219.052 20.8763 218.937 20.9955L218.916 21.017C218.804 21.1318 218.688 21.244 218.564 21.3519C217.343 22.3882 215.744 22.9134 213.811 22.9134C212.617 22.9134 211.583 22.7279 210.583 22.3187C210.378 22.4427 210.06 22.9311 210.06 23.3578C210.06 24.2182 210.78 24.7786 211.938 24.7787H216.184C219.664 24.7787 221.66 26.3888 221.66 29.1966C221.66 32.5826 218.938 34.6048 214.379 34.6048C213.615 34.6048 212.905 34.5622 212.251 34.4789C211.727 34.4116 211.238 34.3187 210.787 34.1996C210.561 34.14 210.344 34.0754 210.136 34.0033C207.957 33.2458 206.798 31.7885 206.798 29.722C206.798 28.8771 207.067 28.1774 207.616 27.6078C207.866 27.3485 208.174 27.116 208.541 26.9086C207.143 26.1279 206.463 25.0283 206.463 23.6058C206.463 22.2732 207.04 21.3837 208.177 20.5541C207.452 19.5886 207.098 18.5406 207.098 17.3509C207.098 15.6804 207.706 14.3512 208.958 13.2875C210.181 12.2472 211.783 11.7124 213.722 11.6966V11.6957H213.811ZM212.476 27.555C211.194 27.6524 210.428 28.3815 210.428 29.5062C210.429 31.0033 211.831 31.8284 214.379 31.8285C216.857 31.8285 218.062 31.0275 218.062 29.3822C218.062 28.1526 217.185 27.555 215.382 27.555H212.476ZM102.502 11.6957C106.917 11.6957 110.496 15.2755 110.496 19.6908C110.496 20.1777 110.45 20.6535 110.367 21.1166L110.286 21.1097H98.2224C98.7969 23.0123 100.495 24.392 102.502 24.392C104.042 24.3919 105.401 23.578 106.209 22.3392L109.557 23.4496C108.212 25.9694 105.558 27.6849 102.502 27.6849C98.0865 27.6849 94.5068 24.106 94.5066 19.6908C94.5066 15.2754 98.0863 11.6957 102.502 11.6957ZM165.371 7.89977H165.472L165.461 12.1732H169.136V13.3031L167.708 15.4525H165.472V22.4642C165.472 23.8326 166.108 24.4056 167.545 24.4056C168.079 24.4056 168.715 24.3109 168.882 24.2787V27.3353C168.648 27.4306 167.912 27.6849 166.509 27.6849C163.5 27.6848 161.628 25.9655 161.628 23.0687V16.5462H161.624V15.4525H160.363V12.1673L161.624 12.1439V7.88707H163.378V7.88609H165.371V7.89977ZM177.781 11.6957C182.196 11.6958 185.775 15.2755 185.775 19.6908C185.775 20.1777 185.73 20.6535 185.646 21.1166L185.565 21.1097H173.502C174.076 23.0123 175.775 24.392 177.781 24.392C179.322 24.3919 180.68 23.578 181.488 22.3392L184.837 23.4496C183.491 25.9694 180.837 27.6848 177.781 27.6849C173.366 27.6849 169.786 24.106 169.786 19.6908C169.786 15.2754 173.366 11.6957 177.781 11.6957ZM229.881 11.6957C234.296 11.6958 237.875 15.2755 237.875 19.6908C237.875 20.1777 237.829 20.6535 237.746 21.1166L237.665 21.1097H225.601C226.176 23.0123 227.874 24.392 229.881 24.392C231.421 24.3918 232.78 23.578 233.588 22.3392L236.936 23.4496C235.591 25.9693 232.936 27.6848 229.881 27.6849C225.465 27.6849 221.886 24.106 221.885 19.6908C221.885 15.2754 225.465 11.6957 229.881 11.6957ZM264.534 11.6957C267.329 11.6957 269.79 13.132 271.219 15.305L268.338 17.1957C267.544 15.8706 266.137 14.9886 264.534 14.9886C262.056 14.9889 260.046 17.0939 260.046 19.6898C260.046 22.2859 262.056 24.3907 264.534 24.391C266.137 24.391 267.544 23.5102 268.338 22.1859L271.219 24.0755C269.79 26.2493 267.329 27.6849 264.534 27.6849C260.119 27.6847 256.54 24.105 256.54 19.6898C256.54 15.2747 260.119 11.6959 264.534 11.6957ZM280.102 11.6957C284.518 11.6958 288.096 15.2755 288.096 19.6908C288.096 20.1777 288.051 20.6535 287.968 21.1166L287.886 21.1097H275.823C276.397 23.0123 278.096 24.392 280.102 24.392C281.643 24.3919 283.001 23.578 283.809 22.3392L287.158 23.4496C285.813 25.9694 283.158 27.6848 280.102 27.6849C275.687 27.6849 272.107 24.106 272.107 19.6908C272.107 15.2754 275.687 11.6957 280.102 11.6957ZM93.4421 14.9076L84.5076 24.3304H93.449V27.6791H79.5789V24.3627L88.698 15.0394H79.5789V11.6908H93.4421V14.9076ZM121.224 11.4779C125.202 11.4779 127.107 14.4653 127.107 17.8714V27.6791H123.23V18.5091C123.23 16.5989 122.327 15.0707 119.887 15.0707C117.682 15.0707 116.512 16.7944 116.511 18.2679V27.6791H112.634V11.7103H116.411V13.599C117.685 11.9727 119.419 11.4779 121.224 11.4779ZM141.604 27.6791H137.76V13.8129H141.604V27.6791ZM152.86 11.7269C156.837 11.7269 158.743 14.4653 158.743 17.8714V27.6791H154.865V18.5091C154.865 16.599 153.963 15.0708 151.523 15.0707C149.317 15.0707 148.146 16.6947 148.146 18.7318V27.6791H144.269V12.1732H148.047V14.2425C149.116 12.4601 151.054 11.727 152.86 11.7269ZM191.406 27.6791H187.528V7.88707H191.406V27.6791ZM197.95 27.6791H194.072V7.88707H197.95V27.6791ZM204.442 27.6791H200.598V13.8129H204.442V27.6791ZM248.603 11.7269C252.581 11.727 254.486 14.4653 254.486 17.8714V27.6791H250.609V18.5091C250.609 16.599 249.706 15.0708 247.266 15.0707C245.06 15.0707 243.89 16.6947 243.89 18.7318V27.6791H240.012V12.1732H243.79V13.9867C244.897 12.333 246.798 11.7269 248.603 11.7269ZM213.766 14.5033C211.929 14.5078 210.695 15.6515 210.695 17.3509C210.695 18.9828 211.992 20.1673 213.777 20.1673C215.572 20.1673 216.825 19.0095 216.825 17.3509C216.825 16.3126 216.368 15.4839 215.599 14.9935C215.104 14.681 214.482 14.505 213.766 14.5033ZM102.502 14.9886C100.486 14.9886 98.7814 16.3811 98.2146 18.2972H106.789C106.222 16.3811 104.517 14.9887 102.502 14.9886ZM177.781 14.9886C175.766 14.9886 174.061 16.3811 173.494 18.2972H182.067C181.5 16.3813 179.796 14.9887 177.781 14.9886ZM229.881 14.9886C227.865 14.9886 226.16 16.3811 225.594 18.2972H234.167C233.6 16.3813 231.896 14.9888 229.881 14.9886ZM280.102 14.9886C278.087 14.9886 276.382 16.3811 275.815 18.2972H284.388C283.822 16.3813 282.118 14.9888 280.102 14.9886ZM139.665 7.36559C141.068 7.36559 142.205 8.44779 142.205 9.78551C142.205 11.1224 141.068 12.1732 139.665 12.1732C138.294 12.1732 137.158 11.1224 137.158 9.78551C137.158 8.4478 138.294 7.3656 139.665 7.36559ZM202.503 7.36559C203.906 7.36559 205.044 8.44779 205.044 9.78551C205.044 11.1224 203.906 12.1732 202.503 12.1732C201.132 12.173 199.997 11.1223 199.997 9.78551C199.997 8.44792 201.132 7.3658 202.503 7.36559Z" fill="#15181B"/>
<path d="M14.8593 33.8718C7.40127 32.7233 1.69092 26.2786 1.69092 18.4996C1.69092 10.7151 7.41038 4.26615 14.8761 3.12534C15.6483 3.00762 16.4396 2.94602 17.2447 2.94602C19.794 2.94602 22.2004 3.55917 24.3236 4.64672C29.355 7.22266 32.7984 12.4588 32.7984 18.4999C32.7984 24.5487 29.3452 29.791 24.3026 32.3634L24.2928 32.3711C25.3629 31.7636 29.5169 31.3109 34.4781 31.3109C40.2508 31.3109 44.9311 31.924 44.9311 32.6801M24.0251 4.32032C24.0251 5.07642 28.7053 5.68957 34.478 5.68957C39.3342 5.68957 43.4167 5.25581 44.5912 4.66789L44.5743 4.6763C39.5738 7.26204 36.1563 12.4819 36.1563 18.4998C36.1563 24.5199 39.5759 29.7405 44.5793 32.3262C46.7151 33.4299 49.1397 34.0535 51.71 34.0535C52.5152 34.0535 53.3063 33.9919 54.0785 33.8741C61.5442 32.7333 67.2638 26.2845 67.2638 18.4999C67.2638 10.7028 61.5268 4.24611 54.0436 3.12002M57.4423 32.1242C57.4423 30.1593 47.161 28.5665 34.4783 28.5665C21.7955 28.5665 11.5142 30.1593 11.5142 32.1242C11.5142 34.0891 21.7955 35.3091 34.4783 35.3091C47.161 35.3091 57.4423 34.0891 57.4423 32.1242ZM57.4423 4.87601C57.4423 6.84089 47.161 8.43368 34.4783 8.43368C21.7955 8.43368 11.5142 6.84089 11.5142 4.87601C11.5142 2.91112 21.7955 1.69113 34.4783 1.69113C47.161 1.69113 57.4423 2.91112 57.4423 4.87601Z" stroke="#15181B" stroke-width="1.973"/>
</svg>
