<?xml version="1.0" encoding="UTF-8"?><svg id="_レイヤー_2" xmlns="http://www.w3.org/2000/svg" viewBox="0 0 243.35 255.41"><defs><style>.cls-1{stroke-width:.32px;}.cls-1,.cls-2,.cls-3,.cls-4,.cls-5,.cls-6,.cls-7,.cls-8,.cls-9,.cls-10,.cls-11,.cls-12,.cls-13,.cls-14,.cls-15,.cls-16,.cls-17,.cls-18,.cls-19,.cls-20,.cls-21,.cls-22,.cls-23,.cls-24,.cls-25{stroke:#000;}.cls-1,.cls-14,.cls-16,.cls-17,.cls-18{stroke-miterlimit:10;}.cls-2{stroke-dasharray:.69 .69;}.cls-2,.cls-26,.cls-3,.cls-4,.cls-5,.cls-27,.cls-6,.cls-7,.cls-8,.cls-9,.cls-10,.cls-28,.cls-29,.cls-11,.cls-12,.cls-30,.cls-13,.cls-14,.cls-15,.cls-17,.cls-18,.cls-19,.cls-20,.cls-21,.cls-22,.cls-23,.cls-24,.cls-31,.cls-25{stroke-width:.57px;}.cls-2,.cls-26,.cls-3,.cls-4,.cls-5,.cls-27,.cls-6,.cls-7,.cls-8,.cls-9,.cls-10,.cls-28,.cls-29,.cls-11,.cls-12,.cls-30,.cls-13,.cls-14,.cls-15,.cls-18,.cls-20,.cls-21,.cls-22,.cls-31,.cls-25{fill:none;}.cls-2,.cls-26,.cls-3,.cls-4,.cls-5,.cls-27,.cls-6,.cls-7,.cls-8,.cls-9,.cls-10,.cls-28,.cls-29,.cls-11,.cls-12,.cls-30,.cls-13,.cls-15,.cls-19,.cls-20,.cls-21,.cls-22,.cls-23,.cls-24,.cls-31,.cls-25{stroke-linejoin:round;}.cls-26{stroke-dasharray:.7 .7;}.cls-26,.cls-27,.cls-28,.cls-29,.cls-30,.cls-31{stroke:#878788;}.cls-3{stroke-dasharray:.7 .7;}.cls-32{font-family:AcuminPro-Medium, 'Acumin Pro';font-size:15px;font-weight:500;letter-spacing:.02em;}.cls-4{stroke-dasharray:.71 .71;}.cls-5{stroke-dasharray:.69 .69;}.cls-27{stroke-dasharray:.71 .71;}.cls-6{stroke-dasharray:.71 .71;}.cls-7,.cls-14{stroke-dasharray:.7 .7;}.cls-8,.cls-31{stroke-dasharray:.7 .7;}.cls-10{stroke-dasharray:.7 .7;}.cls-28{stroke-dasharray:.71 .71;}.cls-29{stroke-dasharray:.71 .71;}.cls-11{stroke-dasharray:.7 .7;}.cls-12{stroke-dasharray:.72 .72;}.cls-13{stroke-dasharray:.71 .71;}.cls-15{stroke-dasharray:.71 .71;}.cls-16{stroke-width:.28px;}.cls-16,.cls-17,.cls-19,.cls-24{fill:#fff;}.cls-19{stroke-linecap:round;}.cls-20{stroke-dasharray:.78 .78;}.cls-21{stroke-dasharray:.73 .73;}.cls-22{stroke-dasharray:.65 .65;}.cls-25{stroke-dasharray:.7 .7;}</style></defs><g id="_レイヤー_11"><polygon class="cls-24" points="140.38 154.36 68.78 113.01 140.38 71.66 211.99 113.01 140.38 154.36"/><polygon class="cls-23" points="211.99 115.34 140.38 156.69 140.38 154.36 211.99 113.01 211.99 115.34"/><polygon class="cls-23" points="140.38 156.69 68.78 115.34 68.78 113.01 140.38 154.36 140.38 156.69"/><polyline class="cls-18" points="132.84 80.55 144.84 87.47 144.84 91.45 153.67 96.55"/><polyline class="cls-18" points="186.85 91.44 180.77 94.95 156.44 94.95 138.88 105.09 129.89 105.09 99.6 122.59"/><polyline class="cls-18" points="150.53 98.36 134.31 88.99 128.28 88.99 116.32 82.08"/><polyline class="cls-18" points="134.08 96.89 127.04 100.95 121.88 97.97 113.32 97.97 108 101.04"/><line class="cls-18" x1="176.08" y1="116.52" x2="183.81" y2="120.99"/><line class="cls-18" x1="149.36" y1="81.99" x2="159.64" y2="87.92"/><line class="cls-18" x1="101.53" y1="81.94" x2="119.68" y2="92.42"/><line class="cls-18" x1="165.53" y1="95.07" x2="182.6" y2="104.93"/><polyline class="cls-18" points="143.65 110.77 148.54 113.59 148.54 117.06 161.24 124.4"/><polyline class="cls-18" points="146.82 100.51 156.73 106.23 156.73 109.73 162.9 113.29"/><line class="cls-18" x1="153.67" y1="96.55" x2="170.63" y2="106.34"/><polyline class="cls-18" points="152.93 119.6 166.46 119.6 176.04 125.13"/><polyline class="cls-18" points="123.38 108.85 137.37 116.93 137.37 119.88 153.22 129.03"/><polyline class="cls-18" points="117.51 91.17 112.66 93.97 106.67 93.97 98.89 98.46 88.28 98.46"/><polyline class="cls-18" points="92.99 106.84 96.16 108.67 107.03 108.67 115.36 113.48"/><line class="cls-18" x1="78.16" y1="105.54" x2="95.62" y2="115.62"/><line class="cls-18" x1="116.33" y1="122.19" x2="140.7" y2="136.26"/><polyline class="cls-18" points="130.36 112.88 130.36 123.83 137.98 128.23"/><polyline class="cls-18" points="162.88 87.92 168.06 84.93 177.51 84.93 182.5 82.05"/><polyline class="cls-18" points="149.36 80.12 154.07 77.4 154.07 73.35"/><line class="cls-18" x1="134.3" y1="69.83" x2="126.57" y2="74.29"/><line class="cls-18" x1="194.88" y1="109.46" x2="187.15" y2="113.92"/><line class="cls-18" x1="146.2" y1="67.42" x2="138.47" y2="62.96"/><line class="cls-18" x1="168.33" y1="130.65" x2="141.24" y2="146.3"/><line class="cls-18" x1="105.28" y1="84.27" x2="94.81" y2="90.31"/><polyline class="cls-18" points="89.19 111.91 86.81 113.28 80.1 113.28"/><line class="cls-18" x1="121.28" y1="125.05" x2="112.57" y2="130.08"/><polyline class="cls-18" points="128.57 129.26 123.22 132.34 123.22 136.49"/><polyline class="cls-18" points="121.63 85.15 121.63 78.9 114.21 74.62"/><line class="cls-18" x1="181.08" y1="104.05" x2="194.88" y2="96.08"/><line class="cls-18" x1="192.61" y1="97.39" x2="208.34" y2="106.48"/><line class="cls-18" x1="153" y1="84.09" x2="169.52" y2="74.55"/><path class="cls-24" d="M93.44,105.94v-1.55h-4.58v1.55c0,.34.22.68.67.94.89.52,2.35.52,3.24,0,.45-.26.67-.6.67-.94Z"/><path class="cls-17" d="M92.77,103.45c.89.52.89,1.35,0,1.87-.89.52-2.35.52-3.24,0-.89-.52-.89-1.35,0-1.87.89-.52,2.35-.52,3.24,0Z"/><path class="cls-24" d="M212.25,107.88v-1.55h-4.58v1.55c0,.34.22.68.67.94.89.52,2.35.52,3.24,0,.45-.26.67-.6.67-.94Z"/><path class="cls-17" d="M211.58,105.4c.89.52.89,1.35,0,1.87s-2.35.52-3.24,0-.89-1.35,0-1.87c.89-.52,2.35-.52,3.24,0Z"/><path class="cls-24" d="M198.79,109.2v-1.55h-4.58v1.55c0,.34.22.68.67.94.89.52,2.35.52,3.24,0,.45-.26.67-.6.67-.94Z"/><path class="cls-17" d="M198.12,106.72c.89.52.89,1.35,0,1.87-.89.52-2.35.52-3.24,0s-.89-1.35,0-1.87,2.35-.52,3.24,0Z"/><path class="cls-24" d="M187.82,115.57v-1.55h-4.58v1.55c0,.34.22.68.67.94.89.52,2.35.52,3.24,0,.45-.26.67-.6.67-.94Z"/><path class="cls-17" d="M187.15,113.09c.89.52.89,1.35,0,1.87-.89.52-2.35.52-3.24,0-.89-.52-.89-1.35,0-1.87.89-.52,2.35-.52,3.24,0Z"/><path class="cls-24" d="M187.72,122.64v-1.55h-4.58v1.55c0,.34.22.68.67.94.89.52,2.35.52,3.24,0,.45-.26.67-.6.67-.94Z"/><path class="cls-17" d="M187.05,120.15c.89.52.89,1.35,0,1.87-.89.52-2.35.52-3.24,0s-.89-1.35,0-1.87c.89-.52,2.35-.52,3.24,0Z"/><path class="cls-24" d="M179.95,126.6v-1.55h-4.58v1.55c0,.34.22.68.67.94.89.52,2.35.52,3.24,0,.45-.26.67-.6.67-.94Z"/><path class="cls-17" d="M179.28,124.11c.89.52.89,1.35,0,1.87-.89.52-2.35.52-3.24,0-.89-.52-.89-1.35,0-1.87s2.35-.52,3.24,0Z"/><path class="cls-24" d="M172.24,130.27v-1.55h-4.58v1.55c0,.34.22.68.67.94.89.52,2.35.52,3.24,0,.45-.26.67-.6.67-.94Z"/><path class="cls-17" d="M171.57,127.79c.89.52.89,1.35,0,1.87-.89.52-2.35.52-3.24,0-.89-.52-.89-1.35,0-1.87s2.35-.52,3.24,0Z"/><path class="cls-24" d="M165.15,126.01v-1.55h-4.58v1.55c0,.34.22.68.67.94.89.52,2.35.52,3.24,0,.45-.26.67-.6.67-.94Z"/><path class="cls-17" d="M164.48,123.52c.89.52.89,1.35,0,1.87s-2.35.52-3.24,0-.89-1.35,0-1.87c.89-.52,2.35-.52,3.24,0Z"/><path class="cls-24" d="M157.15,130.68v-1.55h-4.58v1.55c0,.34.22.68.67.94.89.52,2.35.52,3.24,0,.45-.26.67-.6.67-.94Z"/><path class="cls-17" d="M156.48,128.2c.89.52.89,1.35,0,1.87-.89.52-2.35.52-3.24,0-.89-.52-.89-1.35,0-1.87s2.35-.52,3.24,0Z"/><path class="cls-24" d="M141.89,129.91v-1.55h-4.58v1.55c0,.34.22.68.67.94.89.52,2.35.52,3.24,0,.45-.26.67-.6.67-.94Z"/><path class="cls-17" d="M141.22,127.43c.89.52.89,1.35,0,1.87-.89.52-2.35.52-3.24,0-.89-.52-.89-1.35,0-1.87s2.35-.52,3.24,0Z"/><path class="cls-24" d="M144.33,110.55v-1.55h-4.58v1.55c0,.34.22.68.67.94.89.52,2.35.52,3.24,0,.45-.26.67-.6.67-.94Z"/><path class="cls-17" d="M143.65,108.07c.89.52.89,1.35,0,1.87-.89.52-2.35.52-3.24,0s-.89-1.35,0-1.87c.89-.52,2.35-.52,3.24,0Z"/><path class="cls-24" d="M137.99,96.49v-1.55h-4.58v1.55c0,.34.22.68.67.94.89.52,2.35.52,3.24,0,.45-.26.67-.6.67-.94Z"/><path class="cls-17" d="M137.32,94.01c.89.52.89,1.35,0,1.87-.89.52-2.35.52-3.24,0-.89-.52-.89-1.35,0-1.87s2.35-.52,3.24,0Z"/><path class="cls-24" d="M123.59,94.07v-1.55h-4.58v1.55c0,.34.22.68.67.94.89.52,2.35.52,3.24,0,.45-.26.67-.6.67-.94Z"/><path class="cls-17" d="M122.92,91.59c.89.52.89,1.35,0,1.87-.89.52-2.35.52-3.24,0-.89-.52-.89-1.35,0-1.87.89-.52,2.35-.52,3.24,0Z"/><path class="cls-24" d="M108.67,102.69v-1.55h-4.58v1.55c0,.34.22.68.67.94.89.52,2.35.52,3.24,0,.45-.26.67-.6.67-.94Z"/><path class="cls-17" d="M108,100.21c.89.52.89,1.35,0,1.87-.89.52-2.35.52-3.24,0-.89-.52-.89-1.35,0-1.87s2.35-.52,3.24,0Z"/><path class="cls-24" d="M88.28,99.17v-1.55h-4.58v1.55c0,.34.22.68.67.94.89.52,2.35.52,3.24,0,.45-.26.67-.6.67-.94Z"/><path class="cls-17" d="M87.61,96.69c.89.52.89,1.35,0,1.87-.89.52-2.35.52-3.24,0s-.89-1.35,0-1.87c.89-.52,2.35-.52,3.24,0Z"/><path class="cls-24" d="M78.83,105.27v-1.55h-4.58v1.55c0,.34.22.68.67.94.89.52,2.35.52,3.24,0,.45-.26.67-.6.67-.94Z"/><path class="cls-17" d="M78.16,102.79c.89.52.89,1.35,0,1.87-.89.52-2.35.52-3.24,0-.89-.52-.89-1.35,0-1.87s2.35-.52,3.24,0Z"/><path class="cls-24" d="M80.1,113.99v-1.55h-4.58v1.55c0,.34.22.68.67.94.89.52,2.35.52,3.24,0,.45-.26.67-.6.67-.94Z"/><path class="cls-17" d="M79.43,111.51c.89.52.89,1.35,0,1.87-.89.52-2.35.52-3.24,0-.89-.52-.89-1.35,0-1.87.89-.52,2.35-.52,3.24,0Z"/><path class="cls-24" d="M99.53,117.27v-1.55h-4.58v1.55c0,.34.22.68.67.94.89.52,2.35.52,3.24,0,.45-.26.67-.6.67-.94Z"/><path class="cls-17" d="M98.86,114.79c.89.52.89,1.35,0,1.87s-2.35.52-3.24,0c-.89-.52-.89-1.35,0-1.87s2.35-.52,3.24,0Z"/><path class="cls-24" d="M100.27,124.21v-1.55h-4.58v1.55c0,.34.22.68.67.94.89.52,2.35.52,3.24,0,.45-.26.67-.6.67-.94Z"/><path class="cls-17" d="M99.6,121.73c.89.52.89,1.35,0,1.87-.89.52-2.35.52-3.24,0s-.89-1.35,0-1.87c.89-.52,2.35-.52,3.24,0Z"/><path class="cls-24" d="M117,121.97v-1.55h-4.58v1.55c0,.34.22.68.67.94.89.52,2.35.52,3.24,0,.45-.26.67-.6.67-.94Z"/><path class="cls-17" d="M116.33,119.49c.89.52.89,1.35,0,1.87s-2.35.52-3.24,0-.89-1.35,0-1.87c.89-.52,2.35-.52,3.24,0Z"/><path class="cls-24" d="M113.24,131.73v-1.55h-4.58v1.55c0,.34.22.68.67.94.89.52,2.35.52,3.24,0,.45-.26.67-.6.67-.94Z"/><path class="cls-17" d="M112.57,129.24c.89.52.89,1.35,0,1.87-.89.52-2.35.52-3.24,0s-.89-1.35,0-1.87c.89-.52,2.35-.52,3.24,0Z"/><path class="cls-24" d="M125.17,138.62v-1.55h-4.58v1.55c0,.34.22.68.67.94.89.52,2.35.52,3.24,0,.45-.26.67-.6.67-.94Z"/><path class="cls-17" d="M124.5,136.14c.89.52.89,1.35,0,1.87-.89.52-2.35.52-3.24,0-.89-.52-.89-1.35,0-1.87s2.35-.52,3.24,0Z"/><path class="cls-24" d="M144.61,137.91v-1.55h-4.58v1.55c0,.34.22.68.67.94.89.52,2.35.52,3.24,0,.45-.26.67-.6.67-.94Z"/><path class="cls-17" d="M143.94,135.43c.89.52.89,1.35,0,1.87-.89.52-2.35.52-3.24,0s-.89-1.35,0-1.87,2.35-.52,3.24,0Z"/><path class="cls-24" d="M142.67,147.5v-1.55h-4.58v1.55c0,.34.22.68.67.94.89.52,2.35.52,3.24,0,.45-.26.67-.6.67-.94Z"/><path class="cls-17" d="M142,145.02c.89.52.89,1.35,0,1.87-.89.52-2.35.52-3.24,0-.89-.52-.89-1.35,0-1.87.89-.52,2.35-.52,3.24,0Z"/><path class="cls-24" d="M95.48,91.96v-1.55h-4.58v1.55c0,.34.22.68.67.94.89.52,2.35.52,3.24,0,.45-.26.67-.6.67-.94Z"/><path class="cls-17" d="M94.81,89.48c.89.52.89,1.35,0,1.87s-2.35.52-3.24,0-.89-1.35,0-1.87,2.35-.52,3.24,0Z"/><path class="cls-24" d="M102.2,81.72v-1.55h-4.58v1.55c0,.34.22.68.67.94.89.52,2.35.52,3.24,0,.45-.26.67-.6.67-.94Z"/><path class="cls-17" d="M101.53,79.24c.89.52.89,1.35,0,1.87s-2.35.52-3.24,0c-.89-.52-.89-1.35,0-1.87.89-.52,2.35-.52,3.24,0Z"/><path class="cls-24" d="M116.99,81.86v-1.55h-4.58v1.55c0,.34.22.68.67.94.89.52,2.35.52,3.24,0,.45-.26.67-.6.67-.94Z"/><path class="cls-17" d="M116.32,79.38c.89.52.89,1.35,0,1.87-.89.52-2.35.52-3.24,0-.89-.52-.89-1.35,0-1.87.89-.52,2.35-.52,3.24,0Z"/><path class="cls-24" d="M114.88,74.39v-1.55h-4.58v1.55c0,.34.22.68.67.94.89.52,2.35.52,3.24,0,.45-.26.67-.6.67-.94Z"/><path class="cls-17" d="M114.21,71.91c.89.52.89,1.35,0,1.87-.89.52-2.35.52-3.24,0s-.89-1.35,0-1.87,2.35-.52,3.24,0Z"/><path class="cls-24" d="M133.52,80.33v-1.55h-4.58v1.55c0,.34.22.68.67.94.89.52,2.35.52,3.24,0,.45-.26.67-.6.67-.94Z"/><path class="cls-17" d="M132.84,77.84c.89.52.89,1.35,0,1.87-.89.52-2.35.52-3.24,0-.89-.52-.89-1.35,0-1.87.89-.52,2.35-.52,3.24,0Z"/><path class="cls-24" d="M127.24,75.94v-1.55h-4.58v1.55c0,.34.22.68.67.94.89.52,2.35.52,3.24,0,.45-.26.67-.6.67-.94Z"/><path class="cls-17" d="M126.57,73.46c.89.52.89,1.35,0,1.87-.89.52-2.35.52-3.24,0-.89-.52-.89-1.35,0-1.87.89-.52,2.35-.52,3.24,0Z"/><path class="cls-24" d="M138.21,69.61v-1.55h-4.58v1.55c0,.34.22.68.67.94.89.52,2.35.52,3.24,0,.45-.26.67-.6.67-.94Z"/><path class="cls-17" d="M137.54,67.12c.89.52.89,1.35,0,1.87-.89.52-2.35.52-3.24,0-.89-.52-.89-1.35,0-1.87.89-.52,2.35-.52,3.24,0Z"/><path class="cls-24" d="M139.14,62.73v-1.55h-4.58v1.55c0,.34.22.68.67.94.89.52,2.35.52,3.24,0,.45-.26.67-.6.67-.94Z"/><path class="cls-17" d="M138.47,60.25c.89.52.89,1.35,0,1.87-.89.52-2.35.52-3.24,0s-.89-1.35,0-1.87c.89-.52,2.35-.52,3.24,0Z"/><path class="cls-24" d="M150.11,69.07v-1.55h-4.58v1.55c0,.34.22.68.67.94.89.52,2.35.52,3.24,0,.45-.26.67-.6.67-.94Z"/><path class="cls-17" d="M149.44,66.59c.89.52.89,1.35,0,1.87-.89.52-2.35.52-3.24,0-.89-.52-.89-1.35,0-1.87.89-.52,2.35-.52,3.24,0Z"/><path class="cls-24" d="M156.45,72.73v-1.55h-4.58v1.55c0,.34.22.68.67.94.89.52,2.35.52,3.24,0,.45-.26.67-.6.67-.94Z"/><path class="cls-17" d="M155.78,70.25c.89.52.89,1.35,0,1.87-.89.52-2.35.52-3.24,0-.89-.52-.89-1.35,0-1.87.89-.52,2.35-.52,3.24,0Z"/><path class="cls-24" d="M173.43,74.33v-1.55h-4.58v1.55c0,.34.22.68.67.94.89.52,2.35.52,3.24,0,.45-.26.67-.6.67-.94Z"/><path class="cls-17" d="M172.76,71.85c.89.52.89,1.35,0,1.87s-2.35.52-3.24,0c-.89-.52-.89-1.35,0-1.87.89-.52,2.35-.52,3.24,0Z"/><path class="cls-24" d="M150.03,81.77v-1.55h-4.58v1.55c0,.34.22.68.67.94.89.52,2.35.52,3.24,0,.45-.26.67-.6.67-.94Z"/><path class="cls-17" d="M149.36,79.28c.89.52.89,1.35,0,1.87-.89.52-2.35.52-3.24,0-.89-.52-.89-1.35,0-1.87.89-.52,2.35-.52,3.24,0Z"/><path class="cls-24" d="M163.55,89.57v-1.55h-4.58v1.55c0,.34.22.68.67.94.89.52,2.35.52,3.24,0,.45-.26.67-.6.67-.94Z"/><path class="cls-17" d="M162.88,87.09c.89.52.89,1.35,0,1.87-.89.52-2.35.52-3.24,0-.89-.52-.89-1.35,0-1.87.89-.52,2.35-.52,3.24,0Z"/><path class="cls-24" d="M186.41,81.83v-1.55h-4.58v1.55c0,.34.22.68.67.94.89.52,2.35.52,3.24,0,.45-.26.67-.6.67-.94Z"/><path class="cls-17" d="M185.74,79.34c.89.52.89,1.35,0,1.87s-2.35.52-3.24,0c-.89-.52-.89-1.35,0-1.87.89-.52,2.35-.52,3.24,0Z"/><path class="cls-24" d="M176.75,116.3v-1.55h-4.58v1.55c0,.34.22.68.67.94.89.52,2.35.52,3.24,0,.45-.26.67-.6.67-.94Z"/><path class="cls-17" d="M176.08,113.82c.89.52.89,1.35,0,1.87-.89.52-2.35.52-3.24,0-.89-.52-.89-1.35,0-1.87.89-.52,2.35-.52,3.24,0Z"/><path class="cls-24" d="M166.82,114.94v-1.55h-4.58v1.55c0,.34.22.68.67.94.89.52,2.35.52,3.24,0,.45-.26.67-.6.67-.94Z"/><path class="cls-17" d="M166.15,112.46c.89.52.89,1.35,0,1.87s-2.35.52-3.24,0-.89-1.35,0-1.87,2.35-.52,3.24,0Z"/><path class="cls-24" d="M174.54,107.99v-1.55h-4.58v1.55c0,.34.22.68.67.94.89.52,2.35.52,3.24,0,.45-.26.67-.6.67-.94Z"/><path class="cls-17" d="M173.87,105.51c.89.52.89,1.35,0,1.87-.89.52-2.35.52-3.24,0s-.89-1.35,0-1.87,2.35-.52,3.24,0Z"/><path class="cls-24" d="M186.51,106.57v-1.55h-4.58v1.55c0,.34.22.68.67.94.89.52,2.35.52,3.24,0,.45-.26.67-.6.67-.94Z"/><path class="cls-17" d="M185.84,104.09c.89.52.89,1.35,0,1.87-.89.52-2.35.52-3.24,0s-.89-1.35,0-1.87c.89-.52,2.35-.52,3.24,0Z"/><path class="cls-24" d="M198.79,95.86v-1.55h-4.58v1.55c0,.34.22.68.67.94.89.52,2.35.52,3.24,0,.45-.26.67-.6.67-.94Z"/><path class="cls-17" d="M198.12,93.38c.89.52.89,1.35,0,1.87s-2.35.52-3.24,0-.89-1.35,0-1.87c.89-.52,2.35-.52,3.24,0Z"/><path class="cls-24" d="M190.76,91.22v-1.55h-4.58v1.55c0,.34.22.68.67.94.89.52,2.35.52,3.24,0,.45-.26.67-.6.67-.94Z"/><path class="cls-17" d="M190.09,88.74c.89.52.89,1.35,0,1.87s-2.35.52-3.24,0-.89-1.35,0-1.87c.89-.52,2.35-.52,3.24,0Z"/><line class="cls-31" x1="243.06" y1="59.57" x2="243.06" y2="192.9"/><line class="cls-30" x1="61.01" y1="46.04" x2="61.32" y2="45.87"/><line class="cls-26" x1="61.93" y1="45.52" x2="139.64" y2=".64"/><polyline class="cls-30" points="139.95 .46 140.25 .28 140.55 .46"/><line class="cls-28" x1="141.17" y1=".81" x2="242.3" y2="59.21"/><polyline class="cls-30" points="242.6 59.39 242.91 59.57 242.6 59.74"/><line class="cls-29" x1="241.99" y1="60.09" x2="140.86" y2="118.5"/><polyline class="cls-30" points="140.56 118.67 140.25 118.85 139.95 118.67"/><line class="cls-28" x1="139.34" y1="118.32" x2="38.21" y2="59.92"/><polyline class="cls-30" points="37.9 59.74 37.6 59.57 37.9 59.39"/><line class="cls-27" x1="38.52" y1="59.03" x2="60.4" y2="46.4"/><line class="cls-30" x1="60.71" y1="46.22" x2="61.01" y2="46.04"/><line class="cls-31" x1="37.75" y1="59.57" x2="37.75" y2="192.9"/><polygon class="cls-19" points="140.41 252.21 37.75 192.92 140.41 133.64 243.06 192.92 140.41 252.21"/><polygon class="cls-1" points="243.06 195.84 140.41 255.13 140.41 252.21 243.06 192.92 243.06 195.84"/><polygon class="cls-1" points="140.41 255.13 37.75 195.84 37.75 192.92 140.41 252.21 140.41 255.13"/><polygon class="cls-24" points="164.85 162.01 184.5 150.66 154.59 133.38 134.93 144.73 164.85 162.01"/><polygon class="cls-24" points="184.5 150.66 184.5 159.1 164.85 170.46 164.85 162.01 184.5 150.66"/><polygon class="cls-24" points="164.85 162.01 164.85 170.46 134.93 153.18 134.93 144.73 164.85 162.01"/><polygon class="cls-24" points="157.81 171.93 184.5 156.52 202.96 167.17 176.27 182.59 157.81 171.93"/><polygon class="cls-24" points="202.96 167.17 202.96 169.76 176.27 185.18 176.27 182.59 202.96 167.17"/><polygon class="cls-24" points="176.27 182.59 176.27 185.18 157.81 174.52 157.81 171.93 176.27 182.59"/><polygon class="cls-8" points="202.96 155.52 187.91 164.2 202.96 172.89 218 164.2 202.96 155.52"/><polygon class="cls-8" points="218 164.2 218 178.45 202.96 187.14 202.96 172.89 218 164.2"/><polygon class="cls-24" points="202.96 172.89 202.96 187.14 187.91 178.45 187.91 164.2 202.96 172.89"/><polygon class="cls-24" points="187.91 160.01 167.87 171.59 182.91 180.28 202.96 168.7 187.91 160.01"/><polygon class="cls-24" points="202.96 168.7 202.96 187.14 182.91 198.71 182.91 180.28 202.96 168.7"/><polygon class="cls-24" points="167.87 171.59 167.87 190.03 182.91 198.71 182.91 180.28 167.87 171.59"/><polyline class="cls-9" points="242.76 184.3 243.06 184.48 242.76 184.65"/><line class="cls-10" x1="242.15" y1="185" x2="208.58" y2="204.39"/><polyline class="cls-9" points="208.27 204.57 207.97 204.74 207.67 204.57"/><line class="cls-2" x1="207.07" y1="204.22" x2="183.51" y2="190.62"/><polyline class="cls-9" points="183.21 190.44 182.91 190.27 183.21 190.09"/><line class="cls-10" x1="183.82" y1="189.74" x2="217.39" y2="170.35"/><polyline class="cls-9" points="217.7 170.18 218 170 218.3 170.18"/><line class="cls-2" x1="218.9" y1="170.52" x2="242.46" y2="184.13"/><polyline class="cls-9" points="242.76 184.65 243.06 184.48 243.06 184.83"/><line class="cls-3" x1="243.06" y1="185.53" x2="243.06" y2="192.22"/><polyline class="cls-9" points="243.06 192.57 243.06 192.92 242.76 193.1"/><line class="cls-10" x1="242.15" y1="193.45" x2="208.58" y2="212.84"/><polyline class="cls-9" points="208.27 213.01 207.97 213.19 207.97 212.84"/><line class="cls-3" x1="207.97" y1="212.13" x2="207.97" y2="205.45"/><polyline class="cls-9" points="207.97 205.09 207.97 204.74 208.27 204.57"/><line class="cls-10" x1="208.88" y1="204.22" x2="242.45" y2="184.83"/><polyline class="cls-9" points="183.21 190.44 182.91 190.27 182.91 190.62"/><line class="cls-3" x1="182.91" y1="191.32" x2="182.91" y2="198.01"/><polyline class="cls-9" points="182.91 198.36 182.91 198.72 183.21 198.89"/><line class="cls-2" x1="183.81" y1="199.23" x2="207.37" y2="212.84"/><polyline class="cls-9" points="207.67 213.01 207.97 213.19 207.97 212.84"/><line class="cls-3" x1="207.97" y1="212.13" x2="207.97" y2="205.45"/><polyline class="cls-9" points="207.97 205.09 207.97 204.74 207.67 204.57"/><line class="cls-2" x1="207.07" y1="204.22" x2="183.51" y2="190.62"/><polygon class="cls-24" points="160.47 217.21 155.29 214.23 155.29 203.47 160.47 206.46 160.47 217.21"/><polygon class="cls-24" points="166.52 213.72 160.47 217.21 160.47 206.46 166.52 202.97 166.52 213.72"/><polygon class="cls-24" points="155.29 203.47 160.47 206.46 166.52 202.97 161.35 199.98 155.29 203.47"/><polygon class="cls-24" points="184.68 205.94 181.77 204.26 181.77 166.3 184.68 167.98 184.68 205.94"/><polygon class="cls-14" points="188.09 203.98 184.68 205.94 184.68 167.98 188.09 166.01 188.09 203.98"/><polygon class="cls-24" points="181.77 166.3 184.68 167.98 188.09 166.01 185.18 164.33 181.77 166.3"/><polygon class="cls-24" points="189.63 199.43 156.59 218.51 174.93 229.11 207.97 210.03 189.63 199.43"/><polygon class="cls-24" points="207.97 210.03 207.97 213.19 174.93 232.27 174.93 229.11 207.97 210.03"/><polygon class="cls-24" points="174.93 229.11 156.59 218.51 156.59 221.67 174.93 232.27 174.93 229.11"/><polygon class="cls-14" points="134.93 135.09 104.86 152.45 90.68 144.27 120.75 126.9 134.93 135.09"/><polygon class="cls-24" points="134.93 135.09 134.93 153.18 104.86 170.55 104.86 152.45 134.93 135.09"/><polygon class="cls-24" points="104.86 152.45 104.86 170.55 90.68 162.36 90.68 144.27 104.86 152.45"/><polygon class="cls-24" points="101.3 160.05 80.1 172.28 69.49 166.15 90.68 153.91 101.3 160.05"/><polygon class="cls-24" points="101.3 160.05 101.3 168.49 80.1 180.73 80.1 172.28 101.3 160.05"/><polygon class="cls-24" points="80.1 172.28 69.49 166.15 69.49 174.6 80.1 180.73 80.1 172.28"/><polygon class="cls-24" points="114.09 167.43 101.3 174.82 88.5 167.44 101.3 160.05 114.09 167.43"/><polygon class="cls-24" points="114.09 167.43 114.09 175.88 101.3 183.27 101.3 174.82 114.09 167.43"/><polygon class="cls-24" points="101.3 174.82 101.3 183.27 88.5 175.88 88.5 167.44 101.3 174.82"/><polygon class="cls-8" points="124.25 188.08 101.3 201.33 78.35 188.08 101.3 174.82 124.25 188.08"/><polygon class="cls-8" points="124.25 188.08 124.25 196.52 101.3 209.78 101.3 201.33 124.25 188.08"/><polygon class="cls-8" points="101.3 201.33 78.35 188.08 78.35 196.52 101.3 209.78 101.3 201.33"/><polygon class="cls-7" points="101.3 188.08 84.12 198 97.41 205.68 114.59 195.75 101.3 188.08"/><polygon class="cls-24" points="114.59 195.75 114.59 217.45 97.41 227.38 97.41 205.68 114.59 195.75"/><polygon class="cls-24" points="84.12 198 84.12 219.7 97.41 227.38 97.41 205.68 84.12 198"/><polygon class="cls-24" points="160.47 211.32 143.12 221.33 132.26 215.06 149.61 205.04 160.47 211.32"/><polygon class="cls-24" points="160.47 211.32 160.47 223.91 143.12 233.93 143.12 221.33 160.47 211.32"/><polygon class="cls-24" points="143.12 221.33 132.26 215.06 132.26 227.66 143.12 233.93 143.12 221.33"/><polyline class="cls-9" points="160.77 215.64 160.47 215.47 160.17 215.64"/><line class="cls-12" x1="159.55" y1="216" x2="143.74" y2="225.13"/><polyline class="cls-9" points="143.43 225.31 143.12 225.48 143.43 225.66"/><line class="cls-25" x1="144.03" y1="226.01" x2="156.98" y2="233.49"/><polyline class="cls-9" points="157.28 233.66 157.59 233.84 157.89 233.66"/><line class="cls-12" x1="158.51" y1="233.3" x2="174.32" y2="224.17"/><polyline class="cls-9" points="174.63 224 174.93 223.82 174.63 223.64"/><line class="cls-25" x1="174.03" y1="223.3" x2="161.07" y2="215.82"/><polyline class="cls-9" points="174.63 224 174.93 223.82 174.93 224.17"/><line class="cls-3" x1="174.93" y1="224.88" x2="174.93" y2="231.56"/><polyline class="cls-9" points="174.93 231.92 174.93 232.27 174.63 232.44"/><line class="cls-12" x1="174.01" y1="232.8" x2="158.2" y2="241.93"/><polyline class="cls-9" points="157.89 242.11 157.59 242.28 157.59 241.93"/><line class="cls-3" x1="157.59" y1="241.23" x2="157.59" y2="234.54"/><polyline class="cls-9" points="157.59 234.19 157.59 233.84 157.89 233.66"/><line class="cls-12" x1="158.51" y1="233.3" x2="174.32" y2="224.17"/><polyline class="cls-9" points="157.59 234.19 157.59 233.84 157.28 233.66"/><line class="cls-25" x1="156.68" y1="233.31" x2="143.73" y2="225.83"/><polyline class="cls-9" points="143.43 225.66 143.12 225.48 143.12 225.84"/><line class="cls-3" x1="143.12" y1="226.54" x2="143.12" y2="233.23"/><polyline class="cls-9" points="143.12 233.58 143.12 233.93 143.43 234.11"/><line class="cls-25" x1="144.03" y1="234.45" x2="156.98" y2="241.94"/><polyline class="cls-9" points="157.28 242.11 157.59 242.28 157.59 241.93"/><line class="cls-3" x1="157.59" y1="241.23" x2="157.59" y2="234.54"/><polygon class="cls-8" points="157.59 236.56 140.41 246.48 97.41 221.65 114.59 211.73 157.59 236.56"/><polygon class="cls-8" points="140.41 246.48 97.41 221.65 97.41 227.38 140.41 252.21 140.41 246.48"/><polyline class="cls-9" points="78.04 178.25 78.35 178.43 78.04 178.6"/><line class="cls-15" x1="77.43" y1="178.96" x2="61.78" y2="187.99"/><polyline class="cls-9" points="61.47 188.17 61.17 188.35 60.87 188.17"/><line class="cls-4" x1="60.25" y1="187.81" x2="38.37" y2="175.18"/><polyline class="cls-9" points="38.06 175 37.75 174.82 38.06 174.65"/><line class="cls-15" x1="38.67" y1="174.29" x2="54.32" y2="165.26"/><polyline class="cls-9" points="54.63 165.08 54.93 164.9 55.24 165.08"/><line class="cls-4" x1="55.85" y1="165.43" x2="77.74" y2="178.07"/><polyline class="cls-9" points="78.04 178.6 78.35 178.43 78.35 178.78"/><line class="cls-11" x1="78.35" y1="179.47" x2="78.35" y2="195.83"/><polyline class="cls-9" points="78.35 196.17 78.35 196.52 78.04 196.7"/><line class="cls-15" x1="77.43" y1="197.05" x2="61.78" y2="206.09"/><polyline class="cls-9" points="61.47 206.27 61.17 206.45 61.17 206.09"/><line class="cls-11" x1="61.17" y1="205.4" x2="61.17" y2="189.05"/><polyline class="cls-9" points="61.17 188.7 61.17 188.35 61.47 188.17"/><line class="cls-15" x1="62.09" y1="187.82" x2="77.74" y2="178.78"/><line class="cls-9" x1="37.75" y1="192.92" x2="38.06" y2="193.1"/><line class="cls-4" x1="38.67" y1="193.45" x2="60.56" y2="206.09"/><polyline class="cls-9" points="60.87 206.27 61.17 206.45 61.17 206.09"/><line class="cls-11" x1="61.17" y1="205.4" x2="61.17" y2="189.05"/><polyline class="cls-9" points="61.17 188.7 61.17 188.35 60.87 188.17"/><line class="cls-4" x1="60.25" y1="187.81" x2="38.37" y2="175.18"/><line class="cls-9" x1="38.06" y1="175" x2="37.75" y2="174.82"/><polygon class="cls-24" points="65.74 209.08 61.17 206.45 61.17 139.9 65.74 142.54 65.74 209.08"/><polyline class="cls-9" points="71.08 205.65 71.08 206 70.77 206.17"/><line class="cls-20" x1="70.1" y1="206.56" x2="66.38" y2="208.71"/><polyline class="cls-9" points="66.04 208.91 65.74 209.08 65.74 208.73"/><line class="cls-13" x1="65.74" y1="208.02" x2="65.74" y2="143.24"/><polyline class="cls-9" points="65.74 142.89 65.74 142.54 66.04 142.36"/><line class="cls-20" x1="66.72" y1="141.97" x2="70.43" y2="139.82"/><polyline class="cls-9" points="70.77 139.63 71.08 139.45 71.08 139.8"/><line class="cls-13" x1="71.08" y1="140.51" x2="71.08" y2="205.29"/><polyline class="cls-9" points="61.47 139.72 61.17 139.9 61.47 140.07"/><line class="cls-22" x1="62.04" y1="140.4" x2="65.15" y2="142.2"/><polyline class="cls-9" points="65.43 142.36 65.74 142.54 66.04 142.36"/><line class="cls-20" x1="66.72" y1="141.97" x2="70.43" y2="139.82"/><polyline class="cls-9" points="70.77 139.63 71.08 139.45 70.77 139.28"/><line class="cls-22" x1="70.21" y1="138.95" x2="67.1" y2="137.15"/><polyline class="cls-9" points="66.81 136.99 66.51 136.81 66.21 136.99"/><line class="cls-20" x1="65.53" y1="137.38" x2="61.81" y2="139.53"/><polygon class="cls-24" points="70.33 211.73 65.74 209.08 65.74 199.55 70.33 202.2 70.33 211.73"/><polygon class="cls-24" points="75.69 208.63 70.33 211.73 70.33 202.2 75.69 199.1 75.69 208.63"/><polygon class="cls-24" points="65.74 199.55 70.33 202.2 75.69 199.1 71.1 196.45 65.74 199.55"/><line class="cls-8" x1="140.41" y1="234.11" x2="140.41" y2="252.21"/><polyline class="cls-9" points="165.26 120.49 165.56 120.66 165.26 120.84"/><line class="cls-5" x1="164.66" y1="121.19" x2="150.54" y2="129.34"/><polyline class="cls-9" points="150.24 129.51 149.93 129.69 149.63 129.51"/><line class="cls-21" x1="148.99" y1="129.15" x2="141.69" y2="124.93"/><polyline class="cls-9" points="141.37 124.74 141.07 124.57 141.37 124.39"/><line class="cls-5" x1="141.97" y1="124.05" x2="156.09" y2="115.89"/><polyline class="cls-9" points="156.39 115.72 156.7 115.54 157 115.72"/><line class="cls-21" x1="157.63" y1="116.08" x2="164.94" y2="120.3"/><polyline class="cls-9" points="165.26 183.08 165.56 182.91 165.56 182.56"/><line class="cls-6" x1="165.56" y1="181.85" x2="165.56" y2="121.37"/><polyline class="cls-9" points="165.56 121.01 165.56 120.66 165.26 120.84"/><line class="cls-5" x1="164.66" y1="121.19" x2="150.54" y2="129.34"/><polyline class="cls-9" points="150.24 129.51 149.93 129.69 149.93 130.04"/><line class="cls-6" x1="149.93" y1="130.75" x2="149.93" y2="191.23"/><polyline class="cls-9" points="149.93 191.58 149.93 191.93 150.24 191.76"/><line class="cls-5" x1="150.84" y1="191.41" x2="164.96" y2="183.26"/><polyline class="cls-9" points="149.93 191.58 149.93 191.93 149.63 191.76"/><line class="cls-21" x1="148.99" y1="191.39" x2="141.69" y2="187.17"/><polyline class="cls-9" points="141.37 186.99 141.07 186.81 141.07 186.46"/><line class="cls-6" x1="141.07" y1="185.75" x2="141.07" y2="125.27"/><polyline class="cls-9" points="141.07 124.92 141.07 124.57 141.37 124.74"/><line class="cls-21" x1="142.01" y1="125.11" x2="149.31" y2="129.33"/><polyline class="cls-9" points="149.63 129.51 149.93 129.69 149.93 130.04"/><line class="cls-6" x1="149.93" y1="130.75" x2="149.93" y2="191.23"/><polyline class="cls-24" points="141.07 156.85 124.25 147.14 141.07 137.43 157.89 147.14"/><polyline class="cls-14" points="141.07 156.85 141.07 206.24 157.89 196.52 157.89 147.14"/><line class="cls-14" x1="157.89" y1="147.14" x2="141.07" y2="156.85"/><polygon class="cls-24" points="124.25 147.14 124.25 196.52 141.07 206.24 141.07 156.85 124.25 147.14"/><line class="cls-14" x1="165.56" y1="120.66" x2="202.96" y2="155.52"/><line class="cls-14" x1="157.89" y1="147.14" x2="207.97" y2="204.74"/><line class="cls-14" x1="141.07" y1="156.85" x2="97.41" y2="221.65"/><line class="cls-14" x1="78.35" y1="178.43" x2="124.25" y2="147.14"/><line class="cls-14" x1="141.07" y1="124.57" x2="120.75" y2="126.9"/><polygon class="cls-23" points="211.99 115.34 140.38 156.69 140.38 154.36 211.99 113.01 211.99 115.34"/><polygon class="cls-23" points="140.38 156.69 68.78 115.34 68.78 113.01 140.38 154.36 140.38 156.69"/><text class="cls-32" transform="translate(0 109.19)"><tspan x="0" y="0" xml:space="preserve"> 02</tspan></text><line class="cls-16" x1="4.58" y1="114.14" x2="64.39" y2="114.14"/></g></svg>