<?xml version="1.0" encoding="UTF-8"?><svg id="_レイヤー_2" xmlns="http://www.w3.org/2000/svg" xmlns:xlink="http://www.w3.org/1999/xlink" viewBox="0 0 243.66 255.39"><defs><style>.cls-1,.cls-2,.cls-3,.cls-4,.cls-5,.cls-6,.cls-7,.cls-8,.cls-9,.cls-10,.cls-11,.cls-12,.cls-13,.cls-14,.cls-15,.cls-16,.cls-17,.cls-18,.cls-19,.cls-20,.cls-21,.cls-22,.cls-23,.cls-24,.cls-25,.cls-26,.cls-27,.cls-28,.cls-29,.cls-30,.cls-31,.cls-32{fill:none;}.cls-33{stroke-width:.32px;}.cls-33,.cls-2,.cls-4,.cls-5,.cls-6,.cls-8,.cls-9,.cls-10,.cls-11,.cls-12,.cls-15,.cls-16,.cls-19,.cls-20,.cls-21,.cls-34,.cls-35,.cls-22,.cls-23,.cls-24,.cls-25,.cls-26,.cls-27,.cls-36,.cls-28,.cls-29,.cls-37,.cls-38,.cls-30,.cls-39,.cls-40,.cls-32{stroke:#000;}.cls-33,.cls-18,.cls-20,.cls-34,.cls-35,.cls-22,.cls-23,.cls-24,.cls-25,.cls-26,.cls-27{stroke-miterlimit:10;}.cls-2{stroke-dasharray:.69 .69;}.cls-2,.cls-3,.cls-4,.cls-5,.cls-6,.cls-7,.cls-8,.cls-9,.cls-10,.cls-11,.cls-12,.cls-13,.cls-14,.cls-15,.cls-16,.cls-17,.cls-19,.cls-20,.cls-21,.cls-35,.cls-24,.cls-36,.cls-28,.cls-29,.cls-30,.cls-39,.cls-40,.cls-31,.cls-32{stroke-width:.57px;}.cls-2,.cls-3,.cls-4,.cls-5,.cls-6,.cls-7,.cls-8,.cls-9,.cls-10,.cls-11,.cls-12,.cls-13,.cls-14,.cls-15,.cls-16,.cls-17,.cls-19,.cls-21,.cls-36,.cls-28,.cls-29,.cls-37,.cls-38,.cls-30,.cls-39,.cls-40,.cls-31,.cls-32{stroke-linejoin:round;}.cls-3{stroke-dasharray:.7 .7;}.cls-3,.cls-7,.cls-13,.cls-14,.cls-17,.cls-31{stroke:#878788;}.cls-4{stroke-dasharray:.7 .7;}.cls-41{font-family:AcuminPro-Medium, 'Acumin Pro';font-size:15px;font-weight:500;letter-spacing:.02em;}.cls-5{stroke-dasharray:.71 .71;}.cls-6{stroke-dasharray:.69 .69;}.cls-7{stroke-dasharray:.71 .71;}.cls-8{stroke-dasharray:.71 .71;}.cls-9,.cls-20{stroke-dasharray:.7 .7;}.cls-10,.cls-31{stroke-dasharray:.7 .7;}.cls-42{clip-path:url(#clippath-11);}.cls-43{clip-path:url(#clippath-10);}.cls-12{stroke-dasharray:.7 .7;}.cls-44{clip-path:url(#clippath-1);}.cls-45{clip-path:url(#clippath-3);}.cls-46{clip-path:url(#clippath-4);}.cls-47{clip-path:url(#clippath-2);}.cls-48{clip-path:url(#clippath-7);}.cls-49{clip-path:url(#clippath-6);}.cls-50{clip-path:url(#clippath-9);}.cls-51{clip-path:url(#clippath-8);}.cls-52{clip-path:url(#clippath-5);}.cls-13{stroke-dasharray:.71 .71;}.cls-14{stroke-dasharray:.71 .71;}.cls-53,.cls-34,.cls-35,.cls-36,.cls-38,.cls-40{fill:#fff;}.cls-15{stroke-dasharray:.7 .7;}.cls-16{stroke-dasharray:.72 .72;}.cls-18{stroke:#251e1c;}.cls-18,.cls-23{stroke-width:.34px;}.cls-19{stroke-dasharray:.71 .71;}.cls-21{stroke-dasharray:.71 .71;}.cls-34,.cls-27{stroke-width:.28px;}.cls-22{stroke-width:.27px;}.cls-25{stroke-width:.16px;}.cls-26{stroke-width:.21px;}.cls-36{stroke-linecap:round;}.cls-28{stroke-dasharray:.78 .78;}.cls-29{stroke-dasharray:.73 .73;}.cls-37,.cls-38{stroke-width:.45px;}.cls-30{stroke-dasharray:.65 .65;}.cls-54{clip-path:url(#clippath);}.cls-32{stroke-dasharray:.7 .7;}</style><clipPath id="clippath"><polygon class="cls-1" points="140.66 111.86 69.06 70.51 140.66 29.15 212.27 70.51 140.66 111.86"/></clipPath><clipPath id="clippath-1"><path class="cls-1" d="M138.52,46.31l-4.99,2.88c-.15.08-.4.07-.57-.02l-4.9-2.83c-.17-.1-.19-.25-.04-.33l4.99-2.88c.15-.08.4-.07.57.02l4.9,2.83c.17.1.19.25.04.33Z"/></clipPath><clipPath id="clippath-2"><path class="cls-1" d="M115.09,91.44l-9.94-5.74c-.29-.17-.26-.46.08-.66l9.78-5.65c.34-.2.85-.22,1.14-.05l9.94,5.74c.29.17.26.46-.08.66l-9.78,5.65c-.34.2-.85.22-1.14.05Z"/></clipPath><clipPath id="clippath-3"><path class="cls-1" d="M168.04,82.85l-11.37-6.57c-.33-.19-.29-.53.09-.75l11.18-6.46c.39-.22.97-.25,1.31-.05l11.37,6.57c.33.19.29.53-.09.75l-11.18,6.46c-.39.22-.97.25-1.31.05Z"/></clipPath><clipPath id="clippath-4"><path class="cls-1" d="M138.89,34.54l-8.86-5.11c-.26-.15-.23-.41.07-.59l8.71-5.03c.3-.17.76-.19,1.02-.04l8.86,5.11c.26.15.23.41-.07.59l-8.71,5.03c-.3.17-.76.19-1.02.04Z"/></clipPath><clipPath id="clippath-5"><path class="cls-1" d="M158.86,65.54l-6.3-3.64c-.19-.11-.16-.29.05-.42l6.2-3.58c.21-.12.54-.14.72-.03l6.3,3.64c.19.11.16.29-.05.42l-6.2,3.58c-.21.12-.54.14-.72.03Z"/></clipPath><clipPath id="clippath-6"><path class="cls-1" d="M188.59,79.85l-6.3-3.64c-.19-.11-.16-.29.05-.42l6.2-3.58c.21-.12.54-.14.72-.03l6.3,3.64c.19.11.16.29-.05.42l-6.2,3.58c-.21.12-.54.14-.72.03Z"/></clipPath><clipPath id="clippath-7"><path class="cls-1" d="M121.34,73.28l-4.47,2.58c-.13.08-.36.07-.51-.02l-4.4-2.54c-.15-.09-.17-.22-.04-.3l4.47-2.58c.13-.08.36-.07.51.02l4.4,2.54c.15.09.17.22.04.3Z"/></clipPath><clipPath id="clippath-8"><path class="cls-1" d="M87.77,63.09l-9.16,5.29c-.27.16-.74.14-1.05-.04l-9.01-5.2c-.31-.18-.35-.45-.08-.61l9.16-5.29c.27-.16.74-.14,1.05.04l9.01,5.2c.31.18.35.45.08.61Z"/></clipPath><clipPath id="clippath-9"><path class="cls-1" d="M159.18,93.8l-5.45-3.15c-.16-.09-.14-.25.04-.36l5.36-3.09c.19-.11.47-.12.63-.03l5.45,3.15c.16.09.14.25-.04.36l-5.36,3.09c-.19.11-.47.12-.63.03Z"/></clipPath><clipPath id="clippath-10"><path class="cls-1" d="M108.17,50.9l-9.52,5.5c-.28.16-.77.14-1.09-.05l-9.37-5.41c-.32-.19-.36-.47-.08-.63l9.52-5.5c.28-.16.77-.14,1.09.05l9.37,5.41c.32.19.36.47.08.63Z"/></clipPath><clipPath id="clippath-11"><path class="cls-1" d="M213.97,66.89l-11.41,6.59c-.34.19-.92.17-1.31-.05l-11.22-6.48c-.39-.22-.43-.56-.09-.76l11.41-6.59c.34-.19.92-.17,1.31.05l11.22,6.48c.39.22.43.56.09.76Z"/></clipPath></defs><g id="_レイヤー_11"><line class="cls-31" x1="243.38" y1="59.57" x2="243.38" y2="192.9"/><line class="cls-31" x1="38.07" y1="59.57" x2="38.07" y2="192.9"/><polygon class="cls-36" points="140.72 252.19 38.07 192.9 140.72 133.62 243.38 192.9 140.72 252.19"/><polygon class="cls-33" points="243.38 195.82 140.72 255.11 140.72 252.19 243.38 192.9 243.38 195.82"/><polygon class="cls-33" points="140.72 255.11 38.07 195.82 38.07 192.9 140.72 252.19 140.72 255.11"/><polygon class="cls-40" points="165.16 161.99 184.82 150.64 154.9 133.36 135.25 144.71 165.16 161.99"/><polygon class="cls-40" points="184.82 150.64 184.82 159.08 165.16 170.44 165.16 161.99 184.82 150.64"/><polygon class="cls-40" points="165.16 161.99 165.16 170.44 135.25 153.16 135.25 144.71 165.16 161.99"/><polygon class="cls-40" points="158.13 171.91 184.82 156.5 203.27 167.15 176.58 182.57 158.13 171.91"/><polygon class="cls-40" points="203.27 167.15 203.27 169.74 176.58 185.16 176.58 182.57 203.27 167.15"/><polygon class="cls-40" points="176.58 182.57 176.58 185.16 158.13 174.5 158.13 171.91 176.58 182.57"/><polygon class="cls-10" points="203.27 155.5 188.23 164.18 203.27 172.87 218.32 164.18 203.27 155.5"/><polygon class="cls-10" points="218.32 164.18 218.32 178.43 203.27 187.12 203.27 172.87 218.32 164.18"/><polygon class="cls-40" points="203.27 172.87 203.27 187.12 188.23 178.43 188.23 164.18 203.27 172.87"/><polygon class="cls-40" points="188.23 159.99 168.18 171.57 183.22 180.26 203.27 168.68 188.23 159.99"/><polygon class="cls-40" points="203.27 168.68 203.27 187.12 183.22 198.69 183.22 180.26 203.27 168.68"/><polygon class="cls-40" points="168.18 171.57 168.18 190.01 183.22 198.69 183.22 180.26 168.18 171.57"/><polyline class="cls-11" points="243.07 184.28 243.38 184.46 243.07 184.63"/><line class="cls-12" x1="242.47" y1="184.98" x2="208.89" y2="204.37"/><polyline class="cls-11" points="208.59 204.55 208.29 204.72 207.98 204.55"/><line class="cls-2" x1="207.38" y1="204.2" x2="183.83" y2="190.6"/><polyline class="cls-11" points="183.53 190.42 183.22 190.25 183.53 190.07"/><line class="cls-12" x1="184.13" y1="189.72" x2="217.71" y2="170.33"/><polyline class="cls-11" points="218.01 170.16 218.31 169.98 218.62 170.16"/><line class="cls-2" x1="219.21" y1="170.5" x2="242.77" y2="184.11"/><polyline class="cls-11" points="243.07 184.63 243.38 184.46 243.38 184.81"/><line class="cls-4" x1="243.38" y1="185.51" x2="243.38" y2="192.2"/><polyline class="cls-11" points="243.38 192.55 243.38 192.9 243.07 193.08"/><line class="cls-12" x1="242.47" y1="193.43" x2="208.89" y2="212.82"/><polyline class="cls-11" points="208.59 212.99 208.29 213.17 208.29 212.82"/><line class="cls-4" x1="208.29" y1="212.11" x2="208.29" y2="205.43"/><polyline class="cls-11" points="208.29 205.07 208.29 204.72 208.59 204.55"/><line class="cls-12" x1="209.19" y1="204.2" x2="242.77" y2="184.81"/><polyline class="cls-11" points="183.53 190.42 183.22 190.25 183.22 190.6"/><line class="cls-4" x1="183.22" y1="191.3" x2="183.22" y2="197.99"/><polyline class="cls-11" points="183.22 198.34 183.22 198.7 183.53 198.87"/><line class="cls-2" x1="184.12" y1="199.21" x2="207.68" y2="212.82"/><polyline class="cls-11" points="207.98 212.99 208.29 213.17 208.29 212.82"/><line class="cls-4" x1="208.29" y1="212.11" x2="208.29" y2="205.43"/><polyline class="cls-11" points="208.29 205.07 208.29 204.72 207.98 204.55"/><line class="cls-2" x1="207.38" y1="204.2" x2="183.83" y2="190.6"/><polygon class="cls-40" points="160.78 217.19 155.61 214.21 155.61 203.45 160.78 206.44 160.78 217.19"/><polygon class="cls-40" points="166.84 213.7 160.78 217.19 160.78 206.44 166.84 202.95 166.84 213.7"/><polygon class="cls-40" points="155.61 203.45 160.78 206.44 166.84 202.95 161.66 199.96 155.61 203.45"/><polygon class="cls-40" points="185 205.92 182.09 204.24 182.09 166.28 185 167.96 185 205.92"/><polygon class="cls-20" points="188.41 203.96 185 205.92 185 167.96 188.41 165.99 188.41 203.96"/><polygon class="cls-40" points="182.09 166.28 185 167.96 188.41 165.99 185.49 164.31 182.09 166.28"/><polygon class="cls-40" points="189.94 199.41 156.91 218.49 175.25 229.09 208.29 210.01 189.94 199.41"/><polygon class="cls-40" points="208.29 210.01 208.29 213.17 175.25 232.25 175.25 229.09 208.29 210.01"/><polygon class="cls-40" points="175.25 229.09 156.91 218.49 156.91 221.65 175.25 232.25 175.25 229.09"/><polygon class="cls-20" points="135.25 135.07 105.17 152.43 90.99 144.24 121.07 126.88 135.25 135.07"/><polygon class="cls-40" points="135.25 135.07 135.25 153.16 105.17 170.53 105.17 152.43 135.25 135.07"/><polygon class="cls-40" points="105.17 152.43 105.17 170.53 90.99 162.34 90.99 144.24 105.17 152.43"/><polygon class="cls-40" points="101.61 160.03 80.42 172.26 69.8 166.13 90.99 153.89 101.61 160.03"/><polygon class="cls-40" points="101.61 160.03 101.61 168.47 80.42 180.71 80.42 172.26 101.61 160.03"/><polygon class="cls-40" points="80.42 172.26 69.8 166.13 69.8 174.58 80.42 180.71 80.42 172.26"/><polygon class="cls-40" points="114.41 167.41 101.61 174.8 88.82 167.42 101.61 160.03 114.41 167.41"/><polygon class="cls-40" points="114.41 167.41 114.41 175.86 101.61 183.25 101.61 174.8 114.41 167.41"/><polygon class="cls-40" points="101.61 174.8 101.61 183.25 88.82 175.86 88.82 167.42 101.61 174.8"/><polygon class="cls-10" points="124.56 188.06 101.61 201.31 78.66 188.06 101.61 174.8 124.56 188.06"/><polygon class="cls-10" points="124.56 188.06 124.56 196.5 101.61 209.76 101.61 201.31 124.56 188.06"/><polygon class="cls-10" points="101.61 201.31 78.66 188.06 78.66 196.5 101.61 209.76 101.61 201.31"/><polygon class="cls-9" points="101.61 188.06 84.43 197.98 97.73 205.66 114.91 195.73 101.61 188.06"/><polygon class="cls-40" points="114.91 195.73 114.91 217.43 97.73 227.36 97.73 205.66 114.91 195.73"/><polygon class="cls-40" points="84.43 197.98 84.43 219.68 97.73 227.36 97.73 205.66 84.43 197.98"/><polygon class="cls-40" points="160.78 211.3 143.44 221.31 132.58 215.04 149.92 205.02 160.78 211.3"/><polygon class="cls-40" points="160.78 211.3 160.78 223.89 143.44 233.91 143.44 221.31 160.78 211.3"/><polygon class="cls-40" points="143.44 221.31 132.58 215.04 132.58 227.64 143.44 233.91 143.44 221.31"/><polyline class="cls-11" points="161.09 215.62 160.78 215.45 160.48 215.62"/><line class="cls-16" x1="159.86" y1="215.98" x2="144.05" y2="225.11"/><polyline class="cls-11" points="143.74 225.29 143.44 225.46 143.74 225.64"/><line class="cls-32" x1="144.34" y1="225.99" x2="157.3" y2="233.47"/><polyline class="cls-11" points="157.6 233.64 157.9 233.82 158.21 233.64"/><line class="cls-16" x1="158.83" y1="233.28" x2="174.64" y2="224.15"/><polyline class="cls-11" points="174.95 223.98 175.25 223.8 174.95 223.62"/><line class="cls-32" x1="174.34" y1="223.28" x2="161.39" y2="215.8"/><polyline class="cls-11" points="174.95 223.98 175.25 223.8 175.25 224.15"/><line class="cls-4" x1="175.25" y1="224.86" x2="175.25" y2="231.54"/><polyline class="cls-11" points="175.25 231.9 175.25 232.25 174.95 232.42"/><line class="cls-16" x1="174.33" y1="232.78" x2="158.52" y2="241.91"/><polyline class="cls-11" points="158.21 242.09 157.9 242.26 157.9 241.91"/><line class="cls-4" x1="157.9" y1="241.21" x2="157.9" y2="234.52"/><polyline class="cls-11" points="157.9 234.17 157.9 233.82 158.21 233.64"/><line class="cls-16" x1="158.83" y1="233.28" x2="174.64" y2="224.15"/><polyline class="cls-11" points="157.9 234.17 157.9 233.82 157.6 233.64"/><line class="cls-32" x1="157" y1="233.29" x2="144.04" y2="225.81"/><polyline class="cls-11" points="143.74 225.64 143.44 225.46 143.44 225.82"/><line class="cls-4" x1="143.44" y1="226.52" x2="143.44" y2="233.21"/><polyline class="cls-11" points="143.44 233.56 143.44 233.91 143.74 234.09"/><line class="cls-32" x1="144.34" y1="234.43" x2="157.3" y2="241.92"/><polyline class="cls-11" points="157.6 242.09 157.9 242.26 157.9 241.91"/><line class="cls-4" x1="157.9" y1="241.21" x2="157.9" y2="234.52"/><polygon class="cls-10" points="157.9 236.54 140.72 246.46 97.73 221.63 114.91 211.71 157.9 236.54"/><polygon class="cls-10" points="140.72 246.46 97.73 221.63 97.73 227.36 140.72 252.19 140.72 246.46"/><polyline class="cls-11" points="78.36 178.23 78.66 178.41 78.36 178.58"/><line class="cls-21" x1="77.75" y1="178.94" x2="62.09" y2="187.97"/><polyline class="cls-11" points="61.79 188.15 61.48 188.33 61.18 188.15"/><line class="cls-5" x1="60.56" y1="187.79" x2="38.68" y2="175.16"/><polyline class="cls-11" points="38.37 174.98 38.07 174.8 38.37 174.63"/><line class="cls-21" x1="38.99" y1="174.27" x2="54.64" y2="165.24"/><polyline class="cls-11" points="54.94 165.06 55.25 164.88 55.55 165.06"/><line class="cls-5" x1="56.17" y1="165.41" x2="78.05" y2="178.05"/><polyline class="cls-11" points="78.36 178.58 78.66 178.41 78.66 178.76"/><line class="cls-15" x1="78.66" y1="179.45" x2="78.66" y2="195.81"/><polyline class="cls-11" points="78.66 196.15 78.66 196.5 78.36 196.68"/><line class="cls-21" x1="77.75" y1="197.03" x2="62.09" y2="206.07"/><polyline class="cls-11" points="61.79 206.25 61.48 206.43 61.48 206.07"/><line class="cls-15" x1="61.48" y1="205.38" x2="61.48" y2="189.03"/><polyline class="cls-11" points="61.48 188.68 61.48 188.33 61.79 188.15"/><line class="cls-21" x1="62.4" y1="187.8" x2="78.05" y2="178.76"/><line class="cls-11" x1="38.07" y1="192.9" x2="38.37" y2="193.08"/><line class="cls-5" x1="38.99" y1="193.43" x2="60.87" y2="206.07"/><polyline class="cls-11" points="61.18 206.25 61.48 206.43 61.48 206.07"/><line class="cls-15" x1="61.48" y1="205.38" x2="61.48" y2="189.03"/><polyline class="cls-11" points="61.48 188.68 61.48 188.33 61.18 188.15"/><line class="cls-5" x1="60.56" y1="187.79" x2="38.68" y2="175.16"/><line class="cls-11" x1="38.37" y1="174.98" x2="38.07" y2="174.8"/><polygon class="cls-40" points="66.05 209.06 61.48 206.43 61.48 139.88 66.05 142.52 66.05 209.06"/><polyline class="cls-11" points="71.39 205.63 71.39 205.98 71.09 206.15"/><line class="cls-28" x1="70.41" y1="206.54" x2="66.69" y2="208.69"/><polyline class="cls-11" points="66.35 208.89 66.05 209.06 66.05 208.71"/><line class="cls-19" x1="66.05" y1="208" x2="66.05" y2="143.22"/><polyline class="cls-11" points="66.05 142.87 66.05 142.52 66.35 142.34"/><line class="cls-28" x1="67.03" y1="141.95" x2="70.75" y2="139.8"/><polyline class="cls-11" points="71.09 139.61 71.39 139.43 71.39 139.78"/><line class="cls-19" x1="71.39" y1="140.49" x2="71.39" y2="205.27"/><polyline class="cls-11" points="61.79 139.7 61.48 139.88 61.79 140.05"/><line class="cls-30" x1="62.35" y1="140.38" x2="65.46" y2="142.18"/><polyline class="cls-11" points="65.75 142.34 66.05 142.52 66.35 142.34"/><line class="cls-28" x1="67.03" y1="141.95" x2="70.75" y2="139.8"/><polyline class="cls-11" points="71.09 139.61 71.39 139.43 71.09 139.26"/><line class="cls-30" x1="70.52" y1="138.93" x2="67.41" y2="137.13"/><polyline class="cls-11" points="67.13 136.97 66.83 136.79 66.52 136.97"/><line class="cls-28" x1="65.85" y1="137.36" x2="62.13" y2="139.51"/><polygon class="cls-40" points="70.64 211.71 66.05 209.06 66.05 199.53 70.64 202.18 70.64 211.71"/><polygon class="cls-40" points="76.01 208.61 70.64 211.71 70.64 202.18 76.01 199.08 76.01 208.61"/><polygon class="cls-40" points="66.05 199.53 70.64 202.18 76.01 199.08 71.42 196.43 66.05 199.53"/><line class="cls-10" x1="140.72" y1="234.09" x2="140.72" y2="252.19"/><polyline class="cls-11" points="165.57 120.47 165.88 120.64 165.57 120.82"/><line class="cls-6" x1="164.97" y1="121.17" x2="150.85" y2="129.32"/><polyline class="cls-11" points="150.55 129.49 150.25 129.67 149.94 129.49"/><line class="cls-29" x1="149.31" y1="129.13" x2="142" y2="124.91"/><polyline class="cls-11" points="141.69 124.72 141.38 124.55 141.69 124.37"/><line class="cls-6" x1="142.29" y1="124.03" x2="156.41" y2="115.87"/><polyline class="cls-11" points="156.71 115.7 157.01 115.52 157.31 115.7"/><line class="cls-29" x1="157.95" y1="116.06" x2="165.26" y2="120.28"/><polyline class="cls-11" points="165.57 183.06 165.88 182.89 165.88 182.54"/><line class="cls-8" x1="165.88" y1="181.83" x2="165.88" y2="121.35"/><polyline class="cls-11" points="165.88 120.99 165.88 120.64 165.57 120.82"/><line class="cls-6" x1="164.97" y1="121.17" x2="150.85" y2="129.32"/><polyline class="cls-11" points="150.55 129.49 150.25 129.67 150.25 130.02"/><line class="cls-8" x1="150.25" y1="130.73" x2="150.25" y2="191.21"/><polyline class="cls-11" points="150.25 191.56 150.25 191.91 150.55 191.74"/><line class="cls-6" x1="151.15" y1="191.39" x2="165.27" y2="183.24"/><polyline class="cls-11" points="150.25 191.56 150.25 191.91 149.94 191.74"/><line class="cls-29" x1="149.31" y1="191.37" x2="142" y2="187.15"/><polyline class="cls-11" points="141.69 186.97 141.38 186.79 141.38 186.44"/><line class="cls-8" x1="141.38" y1="185.73" x2="141.38" y2="125.25"/><polyline class="cls-11" points="141.38 124.9 141.38 124.55 141.69 124.72"/><line class="cls-29" x1="142.32" y1="125.09" x2="149.63" y2="129.31"/><polyline class="cls-11" points="149.94 129.49 150.25 129.67 150.25 130.02"/><line class="cls-8" x1="150.25" y1="130.73" x2="150.25" y2="191.21"/><polyline class="cls-40" points="141.38 156.83 124.56 147.12 141.38 137.41 158.2 147.12"/><polyline class="cls-20" points="141.38 156.83 141.38 206.22 158.2 196.5 158.2 147.12"/><line class="cls-20" x1="158.2" y1="147.12" x2="141.38" y2="156.83"/><polygon class="cls-40" points="124.56 147.12 124.56 196.5 141.38 206.22 141.38 156.83 124.56 147.12"/><line class="cls-20" x1="165.88" y1="120.64" x2="203.27" y2="155.5"/><line class="cls-20" x1="158.2" y1="147.12" x2="208.29" y2="204.72"/><line class="cls-20" x1="141.38" y1="156.83" x2="97.73" y2="221.63"/><line class="cls-20" x1="78.66" y1="178.41" x2="124.56" y2="147.12"/><line class="cls-20" x1="141.38" y1="124.55" x2="121.07" y2="126.88"/><text class="cls-41" transform="translate(0 66.65)"><tspan x="0" y="0" xml:space="preserve"> 03</tspan></text><line class="cls-34" x1="4.9" y1="71.59" x2="64.71" y2="71.59"/><polygon class="cls-40" points="140.7 154.44 69.09 113.09 140.7 71.74 212.3 113.09 140.7 154.44"/><polygon class="cls-39" points="212.3 115.42 140.7 156.77 140.7 154.44 212.3 113.09 212.3 115.42"/><polygon class="cls-39" points="140.7 156.77 69.09 115.42 69.09 113.09 140.7 154.44 140.7 156.77"/><polyline class="cls-24" points="133.16 80.63 145.15 87.55 145.15 91.53 153.99 96.63"/><polyline class="cls-24" points="187.16 91.53 181.09 95.03 156.75 95.03 139.19 105.17 130.2 105.17 99.91 122.67"/><polyline class="cls-24" points="150.85 98.44 134.63 89.07 128.59 89.07 116.63 82.16"/><polyline class="cls-24" points="134.39 96.97 127.36 101.03 122.19 98.05 113.63 98.05 108.31 101.12"/><line class="cls-24" x1="176.4" y1="116.6" x2="184.13" y2="121.07"/><line class="cls-24" x1="149.68" y1="82.07" x2="159.95" y2="88"/><line class="cls-24" x1="101.84" y1="82.02" x2="120" y2="92.5"/><line class="cls-24" x1="165.85" y1="95.15" x2="182.92" y2="105.01"/><polyline class="cls-24" points="143.97 110.85 148.86 113.67 148.86 117.14 161.56 124.48"/><polyline class="cls-24" points="147.14 100.59 157.05 106.31 157.05 109.81 163.22 113.38"/><line class="cls-24" x1="153.99" y1="96.63" x2="170.94" y2="106.42"/><polyline class="cls-24" points="153.25 119.68 166.77 119.68 176.35 125.21"/><polyline class="cls-24" points="123.7 108.93 137.69 117.01 137.69 119.96 153.53 129.11"/><polyline class="cls-24" points="117.82 91.25 112.98 94.05 106.98 94.05 99.21 98.54 88.59 98.54"/><polyline class="cls-24" points="93.31 106.92 96.48 108.75 107.34 108.75 115.67 113.56"/><line class="cls-24" x1="78.48" y1="105.62" x2="95.93" y2="115.7"/><line class="cls-24" x1="116.65" y1="122.27" x2="141.01" y2="136.34"/><polyline class="cls-24" points="130.68 112.96 130.68 123.91 138.3 128.31"/><polyline class="cls-24" points="163.19 88 168.37 85.01 177.83 85.01 182.82 82.13"/><polyline class="cls-24" points="149.68 80.2 154.38 77.48 154.38 73.43"/><line class="cls-24" x1="134.61" y1="69.91" x2="126.88" y2="74.37"/><line class="cls-24" x1="195.19" y1="109.54" x2="187.46" y2="114"/><line class="cls-24" x1="146.51" y1="67.5" x2="138.78" y2="63.04"/><line class="cls-24" x1="168.65" y1="130.73" x2="141.55" y2="146.38"/><line class="cls-24" x1="105.59" y1="84.35" x2="95.13" y2="90.39"/><polyline class="cls-24" points="89.5 111.99 87.12 113.36 80.41 113.36"/><line class="cls-24" x1="121.59" y1="125.13" x2="112.88" y2="130.16"/><polyline class="cls-24" points="128.88 129.34 123.54 132.42 123.54 136.57"/><polyline class="cls-24" points="121.94 85.23 121.94 78.98 114.53 74.7"/><line class="cls-24" x1="181.39" y1="104.13" x2="195.19" y2="96.16"/><line class="cls-24" x1="192.92" y1="97.47" x2="208.65" y2="106.56"/><line class="cls-24" x1="153.32" y1="84.17" x2="169.84" y2="74.63"/><path class="cls-40" d="M93.75,106.02v-1.55h-4.58v1.55c0,.34.22.68.67.94.89.52,2.35.52,3.24,0,.45-.26.67-.6.67-.94Z"/><path class="cls-35" d="M93.08,103.53c.89.52.89,1.35,0,1.87-.89.52-2.35.52-3.24,0-.89-.52-.89-1.35,0-1.87s2.35-.52,3.24,0Z"/><path class="cls-40" d="M212.56,107.96v-1.55h-4.58v1.55c0,.34.22.68.67.94.89.52,2.35.52,3.24,0,.45-.26.67-.6.67-.94Z"/><path class="cls-35" d="M211.89,105.48c.89.52.89,1.35,0,1.87s-2.35.52-3.24,0-.89-1.35,0-1.87,2.35-.52,3.24,0Z"/><path class="cls-40" d="M199.1,109.28v-1.55h-4.58v1.55c0,.34.22.68.67.94.89.52,2.35.52,3.24,0,.45-.26.67-.6.67-.94Z"/><path class="cls-35" d="M198.43,106.8c.89.52.89,1.35,0,1.87-.89.52-2.35.52-3.24,0s-.89-1.35,0-1.87,2.35-.52,3.24,0Z"/><path class="cls-40" d="M188.13,115.65v-1.55h-4.58v1.55c0,.34.22.68.67.94.89.52,2.35.52,3.24,0,.45-.26.67-.6.67-.94Z"/><path class="cls-35" d="M187.46,113.17c.89.52.89,1.35,0,1.87s-2.35.52-3.24,0-.89-1.35,0-1.87c.89-.52,2.35-.52,3.24,0Z"/><path class="cls-40" d="M188.04,122.72v-1.55h-4.58v1.55c0,.34.22.68.67.94.89.52,2.35.52,3.24,0,.45-.26.67-.6.67-.94Z"/><path class="cls-35" d="M187.37,120.23c.89.52.89,1.35,0,1.87-.89.52-2.35.52-3.24,0s-.89-1.35,0-1.87,2.35-.52,3.24,0Z"/><path class="cls-40" d="M180.26,126.68v-1.55h-4.58v1.55c0,.34.22.68.67.94.89.52,2.35.52,3.24,0,.45-.26.67-.6.67-.94Z"/><path class="cls-35" d="M179.59,124.2c.89.52.89,1.35,0,1.87s-2.35.52-3.24,0-.89-1.35,0-1.87,2.35-.52,3.24,0Z"/><path class="cls-40" d="M172.56,130.35v-1.55h-4.58v1.55c0,.34.22.68.67.94.89.52,2.35.52,3.24,0,.45-.26.67-.6.67-.94Z"/><path class="cls-35" d="M171.89,127.87c.89.52.89,1.35,0,1.87-.89.52-2.35.52-3.24,0s-.89-1.35,0-1.87,2.35-.52,3.24,0Z"/><path class="cls-40" d="M165.47,126.09v-1.55h-4.58v1.55c0,.34.22.68.67.94.89.52,2.35.52,3.24,0,.45-.26.67-.6.67-.94Z"/><path class="cls-35" d="M164.8,123.6c.89.52.89,1.35,0,1.87s-2.35.52-3.24,0-.89-1.35,0-1.87,2.35-.52,3.24,0Z"/><path class="cls-40" d="M157.47,130.76v-1.55h-4.58v1.55c0,.34.22.68.67.94.89.52,2.35.52,3.24,0,.45-.26.67-.6.67-.94Z"/><path class="cls-35" d="M156.8,128.28c.89.52.89,1.35,0,1.87s-2.35.52-3.24,0-.89-1.35,0-1.87,2.35-.52,3.24,0Z"/><path class="cls-40" d="M142.21,129.99v-1.55h-4.58v1.55c0,.34.22.68.67.94.89.52,2.35.52,3.24,0,.45-.26.67-.6.67-.94Z"/><path class="cls-35" d="M141.54,127.51c.89.52.89,1.35,0,1.87-.89.52-2.35.52-3.24,0-.89-.52-.89-1.35,0-1.87s2.35-.52,3.24,0Z"/><path class="cls-40" d="M144.64,110.63v-1.55h-4.58v1.55c0,.34.22.68.67.94.89.52,2.35.52,3.24,0,.45-.26.67-.6.67-.94Z"/><path class="cls-35" d="M143.97,108.15c.89.52.89,1.35,0,1.87s-2.35.52-3.24,0-.89-1.35,0-1.87c.89-.52,2.35-.52,3.24,0Z"/><path class="cls-40" d="M138.31,96.57v-1.55h-4.58v1.55c0,.34.22.68.67.94.89.52,2.35.52,3.24,0,.45-.26.67-.6.67-.94Z"/><path class="cls-35" d="M137.63,94.09c.89.52.89,1.35,0,1.87-.89.52-2.35.52-3.24,0s-.89-1.35,0-1.87c.89-.52,2.35-.52,3.24,0Z"/><path class="cls-40" d="M123.91,94.15v-1.55h-4.58v1.55c0,.34.22.68.67.94.89.52,2.35.52,3.24,0,.45-.26.67-.6.67-.94Z"/><path class="cls-35" d="M123.24,91.67c.89.52.89,1.35,0,1.87-.89.52-2.35.52-3.24,0-.89-.52-.89-1.35,0-1.87s2.35-.52,3.24,0Z"/><path class="cls-40" d="M108.98,102.77v-1.55h-4.58v1.55c0,.34.22.68.67.94.89.52,2.35.52,3.24,0,.45-.26.67-.6.67-.94Z"/><path class="cls-35" d="M108.31,100.29c.89.52.89,1.35,0,1.87s-2.35.52-3.24,0c-.89-.52-.89-1.35,0-1.87.89-.52,2.35-.52,3.24,0Z"/><path class="cls-40" d="M88.59,99.25v-1.55h-4.58v1.55c0,.34.22.68.67.94.89.52,2.35.52,3.24,0,.45-.26.67-.6.67-.94Z"/><path class="cls-35" d="M87.92,96.77c.89.52.89,1.35,0,1.87s-2.35.52-3.24,0-.89-1.35,0-1.87,2.35-.52,3.24,0Z"/><path class="cls-40" d="M79.15,105.35v-1.55h-4.58v1.55c0,.34.22.68.67.94.89.52,2.35.52,3.24,0,.45-.26.67-.6.67-.94Z"/><path class="cls-35" d="M78.48,102.87c.89.52.89,1.35,0,1.87-.89.52-2.35.52-3.24,0s-.89-1.35,0-1.87,2.35-.52,3.24,0Z"/><path class="cls-40" d="M80.41,114.07v-1.55h-4.58v1.55c0,.34.22.68.67.94.89.52,2.35.52,3.24,0,.45-.26.67-.6.67-.94Z"/><path class="cls-35" d="M79.74,111.59c.89.52.89,1.35,0,1.87s-2.35.52-3.24,0c-.89-.52-.89-1.35,0-1.87s2.35-.52,3.24,0Z"/><path class="cls-40" d="M99.84,117.35v-1.55h-4.58v1.55c0,.34.22.68.67.94.89.52,2.35.52,3.24,0,.45-.26.67-.6.67-.94Z"/><path class="cls-35" d="M99.17,114.87c.89.52.89,1.35,0,1.87-.89.52-2.35.52-3.24,0-.89-.52-.89-1.35,0-1.87s2.35-.52,3.24,0Z"/><path class="cls-40" d="M100.58,124.3v-1.55h-4.58v1.55c0,.34.22.68.67.94.89.52,2.35.52,3.24,0,.45-.26.67-.6.67-.94Z"/><path class="cls-35" d="M99.91,121.81c.89.52.89,1.35,0,1.87s-2.35.52-3.24,0-.89-1.35,0-1.87,2.35-.52,3.24,0Z"/><path class="cls-40" d="M117.32,122.05v-1.55h-4.58v1.55c0,.34.22.68.67.94.89.52,2.35.52,3.24,0,.45-.26.67-.6.67-.94Z"/><path class="cls-35" d="M116.65,119.57c.89.52.89,1.35,0,1.87s-2.35.52-3.24,0c-.89-.52-.89-1.35,0-1.87s2.35-.52,3.24,0Z"/><path class="cls-40" d="M113.55,131.81v-1.55h-4.58v1.55c0,.34.22.68.67.94.89.52,2.35.52,3.24,0,.45-.26.67-.6.67-.94Z"/><path class="cls-35" d="M112.88,129.33c.89.52.89,1.35,0,1.87-.89.52-2.35.52-3.24,0s-.89-1.35,0-1.87,2.35-.52,3.24,0Z"/><path class="cls-40" d="M125.49,138.7v-1.55h-4.58v1.55c0,.34.22.68.67.94.89.52,2.35.52,3.24,0,.45-.26.67-.6.67-.94Z"/><path class="cls-35" d="M124.82,136.22c.89.52.89,1.35,0,1.87-.89.52-2.35.52-3.24,0-.89-.52-.89-1.35,0-1.87s2.35-.52,3.24,0Z"/><path class="cls-40" d="M144.92,137.99v-1.55h-4.58v1.55c0,.34.22.68.67.94.89.52,2.35.52,3.24,0,.45-.26.67-.6.67-.94Z"/><path class="cls-35" d="M144.25,135.51c.89.52.89,1.35,0,1.87s-2.35.52-3.24,0-.89-1.35,0-1.87c.89-.52,2.35-.52,3.24,0Z"/><path class="cls-40" d="M142.99,147.59v-1.55h-4.58v1.55c0,.34.22.68.67.94.89.52,2.35.52,3.24,0,.45-.26.67-.6.67-.94Z"/><path class="cls-35" d="M142.32,145.1c.89.52.89,1.35,0,1.87-.89.52-2.35.52-3.24,0-.89-.52-.89-1.35,0-1.87s2.35-.52,3.24,0Z"/><path class="cls-40" d="M95.8,92.04v-1.55h-4.58v1.55c0,.34.22.68.67.94.89.52,2.35.52,3.24,0,.45-.26.67-.6.67-.94Z"/><path class="cls-35" d="M95.13,89.56c.89.52.89,1.35,0,1.87s-2.35.52-3.24,0-.89-1.35,0-1.87c.89-.52,2.35-.52,3.24,0Z"/><path class="cls-40" d="M102.52,81.8v-1.55h-4.58v1.55c0,.34.22.68.67.94.89.52,2.35.52,3.24,0,.45-.26.67-.6.67-.94Z"/><path class="cls-35" d="M101.84,79.32c.89.52.89,1.35,0,1.87s-2.35.52-3.24,0c-.89-.52-.89-1.35,0-1.87.89-.52,2.35-.52,3.24,0Z"/><path class="cls-40" d="M117.3,81.94v-1.55h-4.58v1.55c0,.34.22.68.67.94.89.52,2.35.52,3.24,0,.45-.26.67-.6.67-.94Z"/><path class="cls-35" d="M116.63,79.46c.89.52.89,1.35,0,1.87s-2.35.52-3.24,0c-.89-.52-.89-1.35,0-1.87s2.35-.52,3.24,0Z"/><path class="cls-40" d="M115.2,74.47v-1.55h-4.58v1.55c0,.34.22.68.67.94.89.52,2.35.52,3.24,0,.45-.26.67-.6.67-.94Z"/><path class="cls-35" d="M114.53,71.99c.89.52.89,1.35,0,1.87-.89.52-2.35.52-3.24,0-.89-.52-.89-1.35,0-1.87s2.35-.52,3.24,0Z"/><path class="cls-40" d="M133.83,80.41v-1.55h-4.58v1.55c0,.34.22.68.67.94.89.52,2.35.52,3.24,0,.45-.26.67-.6.67-.94Z"/><path class="cls-35" d="M133.16,77.92c.89.52.89,1.35,0,1.87-.89.52-2.35.52-3.24,0-.89-.52-.89-1.35,0-1.87s2.35-.52,3.24,0Z"/><path class="cls-40" d="M127.55,76.02v-1.55h-4.58v1.55c0,.34.22.68.67.94.89.52,2.35.52,3.24,0,.45-.26.67-.6.67-.94Z"/><path class="cls-35" d="M126.88,73.54c.89.52.89,1.35,0,1.87-.89.52-2.35.52-3.24,0-.89-.52-.89-1.35,0-1.87s2.35-.52,3.24,0Z"/><path class="cls-40" d="M138.52,69.69v-1.55h-4.58v1.55c0,.34.22.68.67.94.89.52,2.35.52,3.24,0,.45-.26.67-.6.67-.94Z"/><path class="cls-35" d="M137.85,67.2c.89.52.89,1.35,0,1.87s-2.35.52-3.24,0-.89-1.35,0-1.87c.89-.52,2.35-.52,3.24,0Z"/><path class="cls-40" d="M139.45,62.82v-1.55h-4.58v1.55c0,.34.22.68.67.94.89.52,2.35.52,3.24,0,.45-.26.67-.6.67-.94Z"/><path class="cls-35" d="M138.78,60.33c.89.52.89,1.35,0,1.87s-2.35.52-3.24,0-.89-1.35,0-1.87,2.35-.52,3.24,0Z"/><path class="cls-40" d="M150.42,69.15v-1.55h-4.58v1.55c0,.34.22.68.67.94.89.52,2.35.52,3.24,0,.45-.26.67-.6.67-.94Z"/><path class="cls-35" d="M149.75,66.67c.89.52.89,1.35,0,1.87s-2.35.52-3.24,0c-.89-.52-.89-1.35,0-1.87.89-.52,2.35-.52,3.24,0Z"/><path class="cls-40" d="M156.77,72.82v-1.55h-4.58v1.55c0,.34.22.68.67.94.89.52,2.35.52,3.24,0,.45-.26.67-.6.67-.94Z"/><path class="cls-35" d="M156.1,70.33c.89.52.89,1.35,0,1.87-.89.52-2.35.52-3.24,0-.89-.52-.89-1.35,0-1.87.89-.52,2.35-.52,3.24,0Z"/><path class="cls-40" d="M173.75,74.41v-1.55h-4.58v1.55c0,.34.22.68.67.94.89.52,2.35.52,3.24,0,.45-.26.67-.6.67-.94Z"/><path class="cls-35" d="M173.08,71.93c.89.52.89,1.35,0,1.87s-2.35.52-3.24,0c-.89-.52-.89-1.35,0-1.87s2.35-.52,3.24,0Z"/><path class="cls-40" d="M150.35,81.85v-1.55h-4.58v1.55c0,.34.22.68.67.94.89.52,2.35.52,3.24,0,.45-.26.67-.6.67-.94Z"/><path class="cls-35" d="M149.68,79.36c.89.52.89,1.35,0,1.87-.89.52-2.35.52-3.24,0-.89-.52-.89-1.35,0-1.87.89-.52,2.35-.52,3.24,0Z"/><path class="cls-40" d="M163.86,89.65v-1.55h-4.58v1.55c0,.34.22.68.67.94.89.52,2.35.52,3.24,0,.45-.26.67-.6.67-.94Z"/><path class="cls-35" d="M163.19,87.17c.89.52.89,1.35,0,1.87s-2.35.52-3.24,0-.89-1.35,0-1.87,2.35-.52,3.24,0Z"/><path class="cls-40" d="M186.73,81.91v-1.55h-4.58v1.55c0,.34.22.68.67.94.89.52,2.35.52,3.24,0,.45-.26.67-.6.67-.94Z"/><path class="cls-35" d="M186.06,79.42c.89.52.89,1.35,0,1.87s-2.35.52-3.24,0c-.89-.52-.89-1.35,0-1.87s2.35-.52,3.24,0Z"/><path class="cls-40" d="M177.07,116.38v-1.55h-4.58v1.55c0,.34.22.68.67.94.89.52,2.35.52,3.24,0,.45-.26.67-.6.67-.94Z"/><path class="cls-35" d="M176.4,113.9c.89.52.89,1.35,0,1.87-.89.52-2.35.52-3.24,0s-.89-1.35,0-1.87c.89-.52,2.35-.52,3.24,0Z"/><path class="cls-40" d="M167.13,115.02v-1.55h-4.58v1.55c0,.34.22.68.67.94.89.52,2.35.52,3.24,0,.45-.26.67-.6.67-.94Z"/><path class="cls-35" d="M166.46,112.54c.89.52.89,1.35,0,1.87s-2.35.52-3.24,0-.89-1.35,0-1.87c.89-.52,2.35-.52,3.24,0Z"/><path class="cls-40" d="M174.85,108.07v-1.55h-4.58v1.55c0,.34.22.68.67.94.89.52,2.35.52,3.24,0,.45-.26.67-.6.67-.94Z"/><path class="cls-35" d="M174.18,105.59c.89.52.89,1.35,0,1.87s-2.35.52-3.24,0-.89-1.35,0-1.87,2.35-.52,3.24,0Z"/><path class="cls-40" d="M186.83,106.66v-1.55h-4.58v1.55c0,.34.22.68.67.94.89.52,2.35.52,3.24,0,.45-.26.67-.6.67-.94Z"/><path class="cls-35" d="M186.16,104.17c.89.52.89,1.35,0,1.87-.89.52-2.35.52-3.24,0s-.89-1.35,0-1.87c.89-.52,2.35-.52,3.24,0Z"/><path class="cls-40" d="M199.1,95.94v-1.55h-4.58v1.55c0,.34.22.68.67.94.89.52,2.35.52,3.24,0,.45-.26.67-.6.67-.94Z"/><path class="cls-35" d="M198.43,93.46c.89.52.89,1.35,0,1.87s-2.35.52-3.24,0-.89-1.35,0-1.87c.89-.52,2.35-.52,3.24,0Z"/><path class="cls-40" d="M191.07,91.3v-1.55h-4.58v1.55c0,.34.22.68.67.94.89.52,2.35.52,3.24,0,.45-.26.67-.6.67-.94Z"/><path class="cls-35" d="M190.4,88.82c.89.52.89,1.35,0,1.87s-2.35.52-3.24,0-.89-1.35,0-1.87c.89-.52,2.35-.52,3.24,0Z"/><polygon class="cls-40" points="140.66 111.86 69.06 70.51 140.66 29.15 212.27 70.51 140.66 111.86"/><polygon class="cls-39" points="212.27 72.84 140.66 114.19 140.66 111.86 212.27 70.51 212.27 72.84"/><polygon class="cls-39" points="140.66 114.19 69.06 72.84 69.06 70.51 140.66 111.86 140.66 114.19"/><g class="cls-54"><path class="cls-23" d="M139.11,65.51c-1.53.17-2.99.6-4.18,1.28-3.16,1.83-3.16,4.78,0,6.61"/><path class="cls-23" d="M136.32,62.62c-1.94.37-3.76,1.01-5.31,1.9-1.17.68-2.09,1.45-2.75,2.27"/><path class="cls-23" d="M140.66,81.19c4.91,0,9.83-1.08,13.58-3.25,7.5-4.33,7.5-11.35,0-15.68"/><path class="cls-23" d="M133.8,59.73c-2.45.54-4.75,1.38-6.72,2.52-7.5,4.33-7.5,11.35,0,15.68,3.75,2.17,8.66,3.25,13.58,3.25"/><path class="cls-23" d="M119.98,62.23c-6.35,5.55-5.29,13.09,3.17,17.98,1.12.65,2.32,1.22,3.58,1.72"/><path class="cls-23" d="M147.91,83.77c3.75-.66,7.29-1.85,10.26-3.56,9.67-5.58,9.67-14.64,0-20.22-2.91-1.68-6.37-2.86-10.04-3.52"/><path class="cls-23" d="M119.22,57.72c-11.84,6.84-11.84,17.92,0,24.76"/><path class="cls-23" d="M176.52,70.51c.18-5.44-3.31-10.91-10.5-15.06-14.01-8.09-36.72-8.09-50.73,0"/><path class="cls-23" d="M111.34,82.04c1.16.95,2.48,1.86,3.95,2.71"/><path class="cls-23" d="M146.69,93.77c8.51-.72,16.71-2.97,23.26-6.75,8.46-4.89,12.5-11.36,12.11-17.77"/><path class="cls-23" d="M169.95,53.18c-16.18-9.34-42.4-9.34-58.58,0-16.18,9.34-16.18,24.49,0,33.83,5.03,2.9,11.03,4.91,17.4,6"/><path class="cls-23" d="M103.51,91.55c20.52,11.85,53.78,11.85,74.29,0,3.07-1.77,5.67-3.71,7.82-5.76"/><path class="cls-23" d="M139.78,39.76c-13.15.13-26.24,3.09-36.27,8.88"/><path class="cls-23" d="M198.69,71.58c.69-9.07-4.96-18.28-16.96-25.21-7.36-4.25-16.2-7.12-25.56-8.61"/><path class="cls-23" d="M146.17,103.49c12.98-.71,25.62-3.94,35.56-9.67,9.03-5.22,14.47-11.72,16.31-18.49"/><path class="cls-23" d="M87.37,83.47c2.82,3.76,6.9,7.27,12.21,10.34,6.78,3.92,14.83,6.66,23.37,8.24"/><path class="cls-23" d="M122.13,38.3c-8.24,1.6-15.98,4.29-22.55,8.08-15.6,9.01-20.47,21.86-14.62,33.27"/></g><path class="cls-53" d="M133.28,49.07c-.08,0-.17-.02-.23-.06l-4.9-2.83,4.94-2.9s.09-.03.16-.03c.08,0,.17.02.23.06l4.9,2.83-4.94,2.9s-.09.03-.16.03Z"/><path d="M133.25,43.43c.05,0,.11.01.14.03l4.67,2.7-4.71,2.72s-.03.01-.07.01c-.05,0-.11-.01-.14-.03l-4.67-2.7,4.71-2.72s.03-.01.07-.01M133.25,43.07c-.09,0-.18.02-.25.06l-4.99,2.88c-.15.08-.13.23.04.33l4.9,2.83c.09.05.21.08.32.08.09,0,.18-.02.25-.06l4.99-2.88c.15-.08.13-.23-.04-.33l-4.9-2.83c-.09-.05-.21-.08-.32-.08h0Z"/><g class="cls-44"><path d="M136.45,47.58v.32h-.89v-.32h.89M136.67,47.35h-1.33v.77h1.33v-.77h0Z"/><path d="M137.31,47.08v1.32h-2.61v-1.32h2.61M137.53,46.85h-3.06v1.77h3.06v-1.77h0Z"/><path d="M138.17,46.58v2.32h-4.34v-2.32h4.34M138.4,46.35h-4.79v2.77h4.79v-2.77h0Z"/><path d="M139.04,46.08v3.32h-6.07v-3.32h6.07M139.26,45.85h-6.52v3.77h6.52v-3.77h0Z"/><path d="M139.9,45.58v4.31h-7.8v-4.31h7.8M140.13,45.35h-8.25v4.76h8.25v-4.76h0Z"/><path d="M140.77,45.08v5.31h-9.53v-5.31h9.53M140.99,44.86h-9.98v5.76h9.98v-5.76h0Z"/><path d="M141.63,44.58v6.31h-11.26v-6.31s11.26,0,11.26,0M141.86,44.36h-11.71s0,6.76,0,6.76h11.71v-6.76h0Z"/></g><path class="cls-53" d="M115.68,91.62c-.21,0-.41-.05-.56-.14l-10.26-5.92c-.14-.08-.18-.16-.18-.19,0-.03.04-.07.09-.1l10.43-6.02c.1-.06.24-.09.41-.09.21,0,.41.05.56.14l10.26,5.92c.14.08.18.16.18.19,0,.03-.04.07-.09.1l-10.43,6.02c-.1.06-.24.09-.41.09Z"/><path d="M115.61,79.37c.16,0,.33.04.45.11l10.22,5.9-10.31,5.95c-.06.04-.17.06-.29.06-.16,0-.33-.04-.45-.11l-10.22-5.9,10.3-5.95c.06-.04.17-.06.29-.06M115.61,78.92c-.2,0-.38.04-.52.12l-10.43,6.02c-.31.18-.27.49.09.69l10.26,5.92c.19.11.44.17.68.17.19,0,.38-.04.52-.12l10.43-6.02c.31-.18.27-.49-.09-.69l-10.26-5.92c-.19-.11-.44-.17-.68-.17h0Z"/><g class="cls-47"><path d="M110.12,88.32c.19,0,.38.04.51.12.09.05.13.11.13.13s-.03.08-.13.13c-.13.08-.32.12-.51.12s-.38-.04-.51-.12c-.09-.05-.13-.11-.13-.13s.03-.08.13-.13c.13-.08.32-.12.51-.12M110.12,88.04c-.24,0-.47.05-.65.16-.36.21-.36.55,0,.75.18.1.42.16.65.16s.47-.05.65-.16c.36-.21.36-.55,0-.75-.18-.1-.42-.16-.65-.16h0Z"/><path d="M110.12,87.53c.56,0,1.09.12,1.48.35.34.2.53.44.53.69s-.19.49-.53.69c-.39.23-.92.35-1.48.35s-1.09-.12-1.48-.35c-.34-.2-.53-.44-.53-.69s.19-.49.53-.69c.39-.23.92-.35,1.48-.35M110.12,87.24c-.59,0-1.18.13-1.62.39-.9.52-.9,1.36,0,1.88.45.26,1.04.39,1.62.39s1.18-.13,1.62-.39c.9-.52.9-1.36,0-1.88-.45-.26-1.04-.39-1.62-.39h0Z"/><path d="M110.12,86.74c.93,0,1.8.21,2.45.58.6.35.93.79.93,1.25s-.33.91-.93,1.25c-.65.38-1.52.58-2.45.58s-1.8-.21-2.45-.58c-.6-.35-.93-.79-.93-1.25s.33-.91.93-1.25c.65-.38,1.52-.58,2.45-.58M110.12,86.45c-.94,0-1.88.21-2.59.62-1.43.83-1.43,2.17,0,3,.72.41,1.66.62,2.6.62s1.88-.21,2.59-.62c1.43-.83,1.43-2.17,0-3-.72-.41-1.66-.62-2.6-.62h0Z"/><path d="M110.12,85.94c1.3,0,2.51.29,3.42.81.86.5,1.33,1.14,1.33,1.81s-.47,1.32-1.33,1.81c-.91.53-2.13.81-3.42.81s-2.51-.29-3.42-.81c-.86-.5-1.34-1.14-1.34-1.81s.47-1.32,1.34-1.81c.91-.53,2.13-.81,3.42-.81M110.12,85.66c-1.29,0-2.58.28-3.57.85-1.97,1.14-1.97,2.98,0,4.12.98.57,2.28.85,3.57.85s2.58-.28,3.57-.85c1.97-1.14,1.97-2.98,0-4.12-.98-.57-2.28-.85-3.57-.85h0Z"/><path d="M110.12,85.15c1.67,0,3.23.37,4.4,1.05,1.12.65,1.74,1.49,1.74,2.38,0,.88-.62,1.73-1.74,2.37-1.17.68-2.73,1.05-4.4,1.05s-3.23-.37-4.4-1.05c-1.12-.65-1.74-1.49-1.74-2.38s.62-1.73,1.74-2.37c1.17-.68,2.73-1.05,4.4-1.05M110.12,84.87c-1.64,0-3.28.36-4.54,1.09-2.51,1.45-2.51,3.79,0,5.24,1.25.72,2.9,1.09,4.54,1.09s3.28-.36,4.54-1.09c2.51-1.45,2.51-3.79,0-5.24-1.25-.72-2.9-1.09-4.54-1.09h0Z"/><path d="M110.12,84.36c2.03,0,3.94.45,5.37,1.28,1.38.8,2.14,1.84,2.14,2.94s-.76,2.14-2.14,2.94c-1.43.83-3.34,1.28-5.37,1.28s-3.94-.45-5.37-1.28c-1.38-.8-2.14-1.84-2.14-2.94s.76-2.14,2.14-2.94c1.43-.83,3.34-1.28,5.37-1.28M110.12,84.07c-1.99,0-3.99.44-5.51,1.32-3.04,1.76-3.04,4.61,0,6.36,1.52.88,3.52,1.32,5.51,1.32s3.99-.44,5.51-1.32c3.04-1.76,3.04-4.61,0-6.36-1.52-.88-3.52-1.32-5.51-1.32h0Z"/><path d="M110.12,83.56c2.4,0,4.65.54,6.34,1.51,1.64.95,2.54,2.19,2.54,3.5s-.9,2.55-2.54,3.5c-1.69.98-3.94,1.51-6.34,1.51s-4.65-.54-6.34-1.51c-1.64-.95-2.54-2.19-2.54-3.5s.9-2.55,2.54-3.5c1.69-.97,3.94-1.51,6.34-1.51M110.12,83.28c-2.35,0-4.69.52-6.48,1.55-3.58,2.07-3.58,5.42,0,7.48,1.79,1.03,4.14,1.55,6.48,1.55s4.69-.52,6.48-1.55c3.58-2.07,3.58-5.42,0-7.48-1.79-1.03-4.13-1.55-6.48-1.55h0Z"/><path d="M110.12,82.77c2.77,0,5.36.62,7.31,1.74,1.9,1.1,2.94,2.54,2.94,4.06s-1.05,2.96-2.94,4.06c-1.95,1.12-4.54,1.74-7.31,1.74s-5.36-.62-7.31-1.74c-1.9-1.1-2.94-2.54-2.94-4.06s1.05-2.96,2.94-4.06c1.95-1.12,4.54-1.74,7.31-1.74M110.12,82.49c-2.7,0-5.39.59-7.45,1.78-4.12,2.38-4.12,6.23,0,8.61,2.06,1.19,4.75,1.78,7.45,1.78s5.39-.59,7.45-1.78c4.12-2.38,4.12-6.23,0-8.61-2.06-1.19-4.75-1.78-7.45-1.78h0Z"/><path d="M121.12,81.97c.19,0,.38.04.51.12.09.05.13.11.13.13s-.03.08-.13.13c-.13.08-.32.12-.51.12s-.38-.04-.51-.12c-.09-.05-.13-.11-.13-.13s.03-.08.13-.13c.13-.08.32-.12.51-.12M121.12,81.68c-.24,0-.47.05-.65.16-.36.21-.36.55,0,.75.18.1.42.16.65.16s.47-.05.65-.16c.36-.21.36-.55,0-.75-.18-.1-.42-.16-.65-.16h0Z"/><path d="M121.12,81.17c.56,0,1.09.12,1.48.35.34.2.53.44.53.69s-.19.49-.53.69c-.39.23-.92.35-1.48.35s-1.09-.12-1.48-.35c-.34-.2-.53-.44-.53-.69s.19-.49.53-.69c.39-.23.92-.35,1.48-.35M121.12,80.89c-.59,0-1.18.13-1.62.39-.9.52-.9,1.36,0,1.88.45.26,1.04.39,1.62.39s1.18-.13,1.62-.39c.9-.52.9-1.36,0-1.88-.45-.26-1.04-.39-1.62-.39h0Z"/><path d="M121.12,80.38c.93,0,1.8.21,2.45.58.6.35.93.79.93,1.25s-.33.91-.93,1.25c-.65.38-1.52.58-2.45.58s-1.8-.21-2.45-.58c-.6-.35-.93-.79-.93-1.25s.33-.91.93-1.25c.65-.38,1.52-.58,2.45-.58M121.12,80.1c-.94,0-1.88.21-2.59.62-1.43.83-1.43,2.17,0,3,.72.41,1.66.62,2.6.62s1.88-.21,2.59-.62c1.43-.83,1.43-2.17,0-3-.72-.41-1.66-.62-2.6-.62h0Z"/><path d="M121.12,79.59c1.3,0,2.51.29,3.42.81.86.5,1.33,1.14,1.33,1.81s-.47,1.32-1.33,1.81c-.91.53-2.13.81-3.42.81s-2.51-.29-3.42-.81c-.86-.5-1.34-1.14-1.34-1.81s.47-1.32,1.34-1.81c.91-.53,2.13-.81,3.42-.81M121.12,79.3c-1.29,0-2.58.28-3.57.85-1.97,1.14-1.97,2.98,0,4.12.98.57,2.28.85,3.57.85s2.58-.28,3.57-.85c1.97-1.14,1.97-2.98,0-4.12-.98-.57-2.28-.85-3.57-.85h0Z"/><path d="M121.12,78.79c1.67,0,3.23.37,4.4,1.05,1.12.65,1.74,1.49,1.74,2.38s-.62,1.73-1.74,2.37c-1.17.68-2.73,1.05-4.4,1.05s-3.23-.37-4.4-1.05c-1.12-.65-1.74-1.49-1.74-2.37s.62-1.73,1.74-2.37c1.17-.68,2.73-1.05,4.4-1.05M121.12,78.51c-1.64,0-3.28.36-4.54,1.09-2.51,1.45-2.51,3.79,0,5.24,1.25.72,2.9,1.09,4.54,1.09s3.28-.36,4.54-1.09c2.51-1.45,2.51-3.79,0-5.24-1.25-.72-2.9-1.09-4.54-1.09h0Z"/><path d="M121.12,78c2.03,0,3.94.45,5.37,1.28,1.38.8,2.14,1.84,2.14,2.94s-.76,2.14-2.14,2.94c-1.43.83-3.34,1.28-5.37,1.28s-3.94-.45-5.37-1.28c-1.38-.8-2.14-1.84-2.14-2.94s.76-2.14,2.14-2.94c1.43-.83,3.33-1.28,5.37-1.28M121.12,77.72c-1.99,0-3.99.44-5.51,1.32-3.04,1.76-3.04,4.61,0,6.36,1.52.88,3.52,1.32,5.51,1.32s3.99-.44,5.51-1.32c3.04-1.76,3.04-4.61,0-6.36-1.52-.88-3.52-1.32-5.51-1.32h0Z"/><path d="M121.12,77.21c2.4,0,4.65.54,6.34,1.51,1.64.95,2.54,2.19,2.54,3.5s-.9,2.55-2.54,3.5c-1.69.98-3.94,1.51-6.34,1.51s-4.65-.54-6.34-1.51c-1.64-.95-2.54-2.19-2.54-3.5s.9-2.55,2.54-3.5c1.69-.97,3.94-1.51,6.34-1.51M121.12,76.92c-2.35,0-4.69.52-6.48,1.55-3.58,2.07-3.58,5.42,0,7.48,1.79,1.03,4.13,1.55,6.48,1.55s4.69-.52,6.48-1.55c3.58-2.07,3.58-5.42,0-7.48-1.79-1.03-4.13-1.55-6.48-1.55h0Z"/><path d="M121.12,76.41c2.77,0,5.36.62,7.31,1.74,1.9,1.1,2.94,2.54,2.94,4.06,0,1.52-1.05,2.96-2.94,4.06-1.95,1.12-4.54,1.74-7.31,1.74s-5.36-.62-7.31-1.74c-1.9-1.1-2.94-2.54-2.94-4.06,0-1.52,1.05-2.96,2.94-4.06,1.95-1.12,4.54-1.74,7.31-1.74M121.12,76.13c-2.7,0-5.39.59-7.45,1.78-4.12,2.38-4.12,6.23,0,8.61,2.06,1.19,4.75,1.78,7.45,1.78s5.39-.59,7.45-1.78c4.12-2.38,4.12-6.23,0-8.61-2.06-1.19-4.75-1.78-7.45-1.78h0Z"/></g><path class="cls-53" d="M168.69,82.69c-.22,0-.44-.05-.6-.15l-11.18-6.46c-.15-.08-.18-.16-.18-.18,0-.01.02-.05.08-.08l11.37-6.57c.1-.06.26-.09.43-.09.22,0,.44.05.6.15l11.18,6.46c.15.08.18.16.18.18,0,.01-.02.05-.08.08l-11.37,6.57c-.1.06-.26.09-.43.09Z"/><path d="M168.61,69.45c.17,0,.34.04.45.11l11.03,6.37-11.13,6.43s-.14.05-.28.05c-.17,0-.34-.04-.45-.11l-11.03-6.37,11.12-6.43s.14-.05.28-.05M168.61,68.89c-.21,0-.42.04-.57.13l-11.37,6.57c-.33.19-.29.53.09.75l11.18,6.46c.21.12.48.18.74.18.21,0,.42-.04.57-.13l11.37-6.57c.33-.19.29-.53-.09-.75l-11.18-6.46c-.21-.12-.48-.18-.74-.18h0Z"/><g class="cls-45"><path class="cls-18" d="M168.49,83.29c-2.96-1.71-2.3-2.63-5.16-4.29-2.86-1.65-4.46-1.27-7.42-2.98"/><path class="cls-18" d="M170.06,82.93c-3.18-1.84-1.8-3.22-4.87-5-3.07-1.78-5.47-.98-8.65-2.81"/><path class="cls-18" d="M171.62,82.56c-3.4-1.96-1.29-3.81-4.58-5.7-3.29-1.9-6.48-.68-9.88-2.65"/><path class="cls-18" d="M173.19,82.2c-3.62-2.09-.79-4.39-4.29-6.41-3.5-2.02-7.48-.39-11.11-2.48"/><path class="cls-18" d="M174.75,81.84c-3.84-2.22-.29-4.98-4-7.12-3.72-2.15-8.49-.09-12.34-2.31"/><path class="cls-18" d="M176.32,81.48c-4.07-2.35.21-5.56-3.72-7.83-3.93-2.27-9.5.2-13.57-2.15"/><path class="cls-18" d="M177.89,81.12c-4.29-2.48.72-6.15-3.43-8.54-4.14-2.39-10.51.5-14.79-1.98"/></g><path class="cls-53" d="M139.39,34.42c-.17,0-.34-.04-.46-.11l-8.71-5.03c-.1-.06-.14-.12-.14-.14l8.92-5.17c.08-.04.2-.07.33-.07.17,0,.34.04.46.11l8.71,5.03c.1.06.14.12.14.14l-8.92,5.17c-.08.04-.2.07-.33.07Z"/><path d="M139.33,24.12c.13,0,.26.03.35.08l8.58,4.95-8.65,4.99s-.11.04-.22.04c-.13,0-.26-.03-.35-.08l-8.58-4.95,8.65-4.99s.11-.04.21-.04M139.33,23.66c-.17,0-.32.03-.44.1l-8.86,5.11c-.26.15-.23.41.07.59l8.71,5.03c.16.09.38.14.58.14.17,0,.32-.03.44-.1l8.86-5.12c.26-.15.23-.41-.07-.59l-8.71-5.03c-.17-.1-.38-.14-.58-.14h0Z"/><g class="cls-46"><line class="cls-27" x1="144.73" y1="26.6" x2="134.93" y2="32.26"/><line class="cls-27" x1="142.71" y1="27.76" x2="147.14" y2="30.32"/><line class="cls-27" x1="140.46" y1="29.07" x2="144.89" y2="31.62"/><line class="cls-27" x1="138.2" y1="30.37" x2="142.63" y2="32.92"/><line class="cls-27" x1="147.78" y1="28.98" x2="148.15" y2="29.2"/><line class="cls-27" x1="147.41" y1="29.19" x2="147.78" y2="29.41"/><line class="cls-27" x1="134.42" y1="27.62" x2="138.68" y2="30.08"/><line class="cls-27" x1="133.69" y1="27.98" x2="137.95" y2="30.44"/><line class="cls-27" x1="133.09" y1="28.34" x2="137.35" y2="30.8"/><line class="cls-27" x1="132.45" y1="28.69" x2="136.71" y2="31.15"/><line class="cls-27" x1="131.8" y1="29.11" x2="136.06" y2="31.57"/><line class="cls-27" x1="145.79" y1="30.13" x2="146.16" y2="30.34"/><line class="cls-27" x1="145.42" y1="30.34" x2="145.8" y2="30.56"/><line class="cls-27" x1="143.62" y1="31.38" x2="143.99" y2="31.6"/><line class="cls-27" x1="143.25" y1="31.59" x2="143.63" y2="31.81"/></g><path class="cls-53" d="M159.22,65.38c-.11,0-.22-.03-.3-.07l-6.2-3.58,6.25-3.66s.12-.04.2-.04c.11,0,.22.03.3.07l6.2,3.58-6.25,3.66s-.12.04-.2.04Z"/><path d="M159.17,58.25c.07,0,.14.02.18.04l5.9,3.41-5.95,3.44s-.04.01-.09.01c-.07,0-.14-.02-.18-.04l-5.9-3.41,5.95-3.44s.04-.01.09-.01M159.17,57.8c-.12,0-.23.02-.31.07l-6.3,3.64c-.19.11-.16.29.05.42l6.2,3.58c.12.07.27.1.41.1.12,0,.23-.02.31-.07l6.3-3.64c.19-.11.16-.29-.05-.42l-6.2-3.58c-.12-.07-.27-.1-.41-.1h0Z"/><g class="cls-52"><line class="cls-27" x1="163.02" y1="59.89" x2="156.04" y2="63.91"/><line class="cls-27" x1="161.58" y1="60.72" x2="164.73" y2="62.54"/><line class="cls-27" x1="159.97" y1="61.64" x2="163.12" y2="63.46"/><line class="cls-27" x1="158.37" y1="62.57" x2="161.52" y2="64.39"/><line class="cls-27" x1="165.18" y1="61.58" x2="165.45" y2="61.74"/><line class="cls-27" x1="164.92" y1="61.73" x2="165.19" y2="61.89"/><line class="cls-27" x1="155.68" y1="60.03" x2="159.19" y2="62.04"/><line class="cls-27" x1="155.08" y1="60.4" x2="158.6" y2="62.4"/><line class="cls-27" x1="154.39" y1="60.8" x2="157.9" y2="62.8"/><line class="cls-27" x1="153.77" y1="61.18" x2="157.29" y2="63.18"/><line class="cls-27" x1="163.77" y1="62.4" x2="164.03" y2="62.55"/><line class="cls-27" x1="163.51" y1="62.55" x2="163.77" y2="62.7"/><line class="cls-27" x1="162.22" y1="63.29" x2="162.49" y2="63.44"/><line class="cls-27" x1="161.96" y1="63.44" x2="162.23" y2="63.59"/></g><path class="cls-53" d="M188.95,79.69c-.11,0-.22-.03-.3-.07l-6.2-3.58,6.25-3.66s.12-.04.2-.04c.11,0,.22.03.3.07l6.2,3.58-6.25,3.66s-.12.04-.2.04Z"/><path d="M188.9,72.56c.07,0,.14.02.18.04l5.9,3.41-5.95,3.44s-.04.01-.09.01c-.07,0-.14-.02-.18-.04l-5.9-3.41,5.95-3.44s.04-.01.09-.01M188.9,72.11c-.12,0-.23.02-.31.07l-6.3,3.64c-.19.11-.16.29.05.42l6.2,3.58c.12.07.27.1.41.1.12,0,.23-.02.31-.07l6.3-3.64c.19-.11.16-.29-.05-.42l-6.2-3.58c-.12-.07-.27-.1-.41-.1h0Z"/><g class="cls-49"><path class="cls-27" d="M191.87,73.12c-2.23-.76-5.14-.58-7.05.52-1.91,1.1-2.21,2.78-.9,4.07"/><path class="cls-27" d="M191.23,73.49c-1.86-.57-4.22-.4-5.79.51s-1.86,2.27-.88,3.35"/><path class="cls-27" d="M190.57,73.87c-1.49-.38-3.3-.22-4.53.49-1.22.71-1.5,1.75-.84,2.61"/><path class="cls-27" d="M185.88,76.58c-.35-.64-.09-1.36.78-1.87.88-.51,2.13-.66,3.24-.45"/><path class="cls-27" d="M189.17,74.68c-.67-.04-1.37.09-1.89.39s-.74.7-.67,1.09"/><path class="cls-27" d="M185.98,78.91c2.23.76,5.14.58,7.05-.52,1.91-1.1,2.21-2.78.9-4.07"/><path class="cls-27" d="M192.64,75.06c.66.86.38,1.91-.84,2.61s-3.03.87-4.53.49"/><path class="cls-27" d="M186.62,78.54c1.86.57,4.22.4,5.79-.51,1.57-.91,1.86-2.27.88-3.35"/><path class="cls-27" d="M191.24,75.87c.07.39-.15.79-.67,1.09s-1.22.43-1.89.39"/><path class="cls-27" d="M187.95,77.77c1.1.2,2.36.05,3.24-.45s1.13-1.23.78-1.87"/></g><path class="cls-53" d="M116.65,75.78c-.08,0-.16-.02-.22-.05l-4.4-2.54,4.44-2.65s.09-.03.16-.03c.08,0,.17.02.23.06l4.4,2.54-4.44,2.65s-.09.03-.16.03Z"/><path d="M116.62,70.63c.06,0,.12.01.16.04l4.28,2.47-4.32,2.49s-.04.02-.09.02c-.06,0-.12-.01-.16-.04l-4.28-2.47,4.32-2.49s.04-.02.09-.02M116.62,70.37c-.08,0-.16.02-.22.05l-4.47,2.58c-.13.08-.12.21.04.3l4.4,2.54c.08.05.19.07.29.07.08,0,.16-.02.22-.05l4.47-2.58c.13-.08.12-.21-.04-.3l-4.4-2.54c-.08-.05-.19-.07-.29-.07h0Z"/><g class="cls-48"><line class="cls-25" x1="113.28" y1="75.07" x2="119.98" y2="71.2"/><line class="cls-25" x1="113.28" y1="71.2" x2="119.98" y2="75.07"/><line class="cls-25" x1="113.28" y1="71.2" x2="119.98" y2="75.07"/><line class="cls-25" x1="112.06" y1="72.43" x2="121.2" y2="73.84"/><line class="cls-25" x1="112.06" y1="73.84" x2="121.2" y2="72.43"/><line class="cls-25" x1="115.41" y1="75.78" x2="117.86" y2="70.5"/><line class="cls-25" x1="115.41" y1="70.5" x2="117.86" y2="75.78"/></g><path class="cls-53" d="M78.15,68.26c-.18,0-.35-.04-.48-.12l-9.01-5.2c-.1-.06-.14-.12-.14-.15l9.23-5.36c.08-.05.21-.07.34-.07.18,0,.35.04.48.12l9.01,5.2c.12.07.14.13.14.15l-9.23,5.36c-.08.05-.21.07-.34.07Z"/><path d="M78.09,57.58c.14,0,.27.03.37.09l8.89,5.14-8.97,5.18s-.12.04-.23.04c-.14,0-.27-.03-.37-.09l-8.89-5.14,8.97-5.18s.12-.04.23-.04M78.09,57.13c-.17,0-.33.03-.46.1l-9.16,5.29c-.27.16-.24.43.08.61l9.01,5.2c.17.1.39.15.6.15.17,0,.33-.03.46-.1l9.16-5.29c.27-.16.24-.43-.08-.61l-9.01-5.2c-.17-.1-.39-.15-.6-.15h0Z"/><g class="cls-51"><path d="M88.26,61.54l2.2,1.27-2.2,1.27-2.2-1.27,2.2-1.27M88.26,61.15l-2.88,1.66,2.88,1.66,2.88-1.66-2.88-1.66h0Z"/><path d="M88.26,52.59l17.69,10.21-17.69,10.21-17.69-10.21,17.69-10.21M88.26,52.2l-18.37,10.61,18.37,10.61,18.37-10.61-18.37-10.61h0Z"/><path d="M88.26,55.22l13.14,7.59-13.14,7.59-13.14-7.59,13.14-7.59M88.26,54.82l-13.82,7.98,13.82,7.98,13.82-7.98-13.82-7.98h0Z"/><path d="M88.26,57.81l8.66,5-8.66,5-8.66-5,8.66-5M88.26,57.41l-9.34,5.39,9.34,5.39,9.34-5.39-9.34-5.39h0Z"/><path d="M88.26,59.56l5.62,3.25-5.62,3.25-5.62-3.25,5.62-3.25M88.26,59.16l-6.3,3.64,6.3,3.64,6.31-3.64-6.31-3.64h0Z"/><path d="M88.26,60.74l3.58,2.07-3.58,2.07-3.58-2.07,3.58-2.07M88.26,60.35l-4.26,2.46,4.26,2.46,4.26-2.46-4.26-2.46h0Z"/></g><path class="cls-53" d="M159.49,93.72c-.1,0-.21-.03-.28-.07l-5.36-3.09c-.06-.04-.08-.07-.08-.08l5.49-3.18s.12-.04.2-.04c.1,0,.21.03.28.07l5.36,3.09c.06.04.08.07.08.08l-5.49,3.18s-.12.04-.2.04Z"/><path d="M159.45,87.38c.08,0,.16.02.21.05l5.27,3.05-5.32,3.07s-.07.03-.13.03c-.08,0-.16-.02-.21-.05l-5.27-3.05,5.32-3.07s.07-.02.13-.02M159.45,87.1c-.1,0-.2.02-.27.06l-5.45,3.15c-.16.09-.14.25.04.36l5.36,3.09c.1.06.23.09.35.09.1,0,.2-.02.27-.06l5.45-3.15c.16-.09.14-.25-.04-.36l-5.36-3.09c-.1-.06-.23-.09-.35-.09h0Z"/><g class="cls-50"><line class="cls-26" x1="159.47" y1="93.96" x2="155.61" y2="90.03"/><line class="cls-26" x1="159.47" y1="93.96" x2="163.9" y2="90.24"/><line class="cls-26" x1="159.47" y1="93.96" x2="161.48" y2="89.6"/><path class="cls-26" d="M165,97.16c3.05-1.76,3.05-4.62,0-6.39s-8.01-1.76-11.06,0c-3.05,1.76-3.05,4.62,0,6.39,3.05,1.76,8.01,1.76,11.06,0Z"/></g><path class="cls-53" d="M98.14,56.49c-.19,0-.39-.05-.53-.13l-9.73-5.62c-.12-.07-.17-.14-.17-.18,0-.03.03-.06.09-.09l9.89-5.71c.09-.05.23-.08.38-.08.19,0,.39.05.53.13l9.73,5.62c.12.07.17.14.17.18,0,.03-.03.06-.09.09l-9.89,5.71c-.09.05-.23.08-.38.08Z"/><path d="M98.08,44.89c.15,0,.31.04.42.1l9.68,5.59-9.76,5.63s-.11.05-.27.05c-.15,0-.31-.04-.42-.1l-9.68-5.59,9.76-5.63s.11-.05.27-.05M98.08,44.45c-.19,0-.36.04-.49.11l-9.89,5.71c-.29.17-.25.46.08.66l9.73,5.62c.18.11.42.16.64.16.19,0,.36-.04.49-.11l9.89-5.71c.29-.17.25-.46-.08-.66l-9.73-5.62c-.18-.11-.42-.16-.64-.16h0Z"/><g class="cls-43"><line class="cls-22" x1="99.03" y1="56.41" x2="94.75" y2="53.93"/><line class="cls-22" x1="94.27" y1="53.65" x2="93.86" y2="53.42"/><line class="cls-22" x1="99.95" y1="55.88" x2="97.47" y2="54.45"/><line class="cls-22" x1="96.99" y1="54.17" x2="96.59" y2="53.94"/><line class="cls-22" x1="100.86" y1="55.35" x2="93.99" y2="51.39"/><line class="cls-22" x1="93.51" y1="51.11" x2="93.11" y2="50.87"/><line class="cls-22" x1="101.78" y1="54.82" x2="92.45" y2="49.44"/><line class="cls-22" x1="91.97" y1="49.16" x2="91.57" y2="48.93"/><line class="cls-22" x1="102.69" y1="54.3" x2="97.11" y2="51.07"/><line class="cls-22" x1="96.62" y1="50.79" x2="96.22" y2="50.56"/><line class="cls-22" x1="103.6" y1="53.77" x2="101.7" y2="52.67"/><line class="cls-22" x1="101.22" y1="52.39" x2="100.81" y2="52.16"/><line class="cls-22" x1="104.52" y1="53.24" x2="98.45" y2="49.74"/><line class="cls-22" x1="97.97" y1="49.46" x2="97.57" y2="49.22"/><line class="cls-22" x1="105.43" y1="52.71" x2="97.35" y2="48.04"/><line class="cls-22" x1="96.87" y1="47.76" x2="96.46" y2="47.53"/><line class="cls-22" x1="106.35" y1="52.18" x2="103.43" y2="50.5"/><line class="cls-22" x1="102.94" y1="50.22" x2="102.54" y2="49.99"/><line class="cls-22" x1="107.26" y1="51.66" x2="98.38" y2="46.53"/><line class="cls-22" x1="97.9" y1="46.25" x2="97.49" y2="46.02"/><line class="cls-22" x1="108.17" y1="51.13" x2="101.51" y2="47.28"/><line class="cls-22" x1="101.03" y1="47" x2="100.62" y2="46.77"/></g><path class="cls-37" d="M191.14,51.65l.89.52c.08.05.13.13.13.22v1.43s0,.06.02.09l2.05,5.57c.02.06.06.1.11.13l1.19.69c.08.05.13.13.13.22v.55c0,.1-.06.19-.14.23l-.45.26-.87-.89-.73-.42c-.05-.03-.09-.08-.11-.13l-2.58-7.03s-.02-.06-.02-.09v-1.13c0-.2.21-.32.39-.22Z"/><path class="cls-38" d="M191.67,52.68v1.43s0,.06.02.09l2.05,5.57c.02.06.06.1.11.13l1.19.69c.08.05.13.13.13.22v.55c0,.2-.21.32-.39.22l-.48-.28-1.33-.77c-.05-.03-.09-.08-.11-.13l-2.58-7.03s-.02-.06-.02-.09v-1.13c0-.2.21-.32.39-.22l.89.52c.08.05.13.13.13.22Z"/><path class="cls-38" d="M191.14,54.39l-1.62-2.86.86-.5c.21-.15.52-.15.87.05.64.37,1.16,1.27,1.16,2.02,0,.34-.11.59-.29.72h0s-.98.57-.98.57Z"/><path class="cls-38" d="M189.18,52.28c0-.74.52-1.04,1.16-.67s1.16,1.27,1.16,2.02c0,.74-.52,1.04-1.16.67s-1.16-1.27-1.16-2.02Z"/><polygon class="cls-38" points="191.3 51.29 192.18 52.22 194.8 49.16 193.92 48.23 191.3 51.29"/><polygon class="cls-38" points="190.8 51.41 191.68 52.34 194.3 49.28 193.42 48.35 190.8 51.41"/><polygon class="cls-38" points="192.18 52.22 191.68 52.34 194.3 49.28 194.8 49.16 192.18 52.22"/><path class="cls-37" d="M193.27,51.56l-2.09-3.68,1.86-1.07c.27-.2.67-.19,1.11.07.83.48,1.5,1.64,1.5,2.59,0,.44-.14.75-.37.92l-.75.43-1.26.73Z"/><path class="cls-38" d="M190.76,48.84c0-.95.67-1.34,1.5-.86.83.48,1.5,1.64,1.5,2.59s-.67,1.34-1.5.86c-.83-.48-1.5-1.64-1.5-2.59Z"/><path class="cls-38" d="M174.99,38.52c.87-.5,1.65-.54,2.21-.2h0s15.89,9.19,15.89,9.19l-5.28,10.1-15.89-9.19v-4.57c0-1.96,1.38-4.35,3.08-5.33Z"/><path class="cls-38" d="M190.88,47.7c1.7-.98,3.08-.19,3.08,1.78v4.57s-6.16,3.56-6.16,3.56v-4.57c0-1.96,1.38-4.35,3.08-5.33Z"/><path class="cls-38" d="M189.17,52.01c0-1.09.76-2.41,1.71-2.95.94-.54,1.71-.1,1.71.98s-.76,2.41-1.71,2.95-1.71.1-1.71-.98Z"/><path class="cls-37" d="M189.94,51.57c0-.6.42-1.33.94-1.63s.94-.06.94.54-.42,1.33-.94,1.63-.94.06-.94-.54Z"/><path class="cls-37" d="M180.27,57.63l.89.52c.08.05.13.13.13.22v1.43s0,.06.02.09l2.05,5.57c.02.06.06.1.11.13l1.19.69c.08.05.13.13.13.22v.55c0,.1-.06.19-.14.23l-.45.26-.87-.89-.73-.42c-.05-.03-.09-.08-.11-.13l-2.58-7.03s-.02-.06-.02-.09v-1.13c0-.2.21-.32.39-.22Z"/><path class="cls-38" d="M180.8,58.66v1.43s0,.06.02.09l2.05,5.57c.02.06.06.1.11.13l1.19.69c.08.05.13.13.13.22v.55c0,.2-.21.32-.39.22l-.48-.28-1.33-.77c-.05-.03-.09-.08-.11-.13l-2.58-7.03s-.02-.06-.02-.09v-1.13c0-.2.21-.32.39-.22l.89.52c.08.05.13.13.13.22Z"/><path class="cls-38" d="M180.77,60.12l-1.62-2.86.86-.5c.21-.15.52-.15.87.05.64.37,1.16,1.27,1.16,2.02,0,.34-.11.59-.29.72h0s-.98.57-.98.57Z"/><path class="cls-38" d="M178.81,58c0-.74.52-1.04,1.16-.67s1.16,1.27,1.16,2.02c0,.74-.52,1.04-1.16.67s-1.16-1.27-1.16-2.02Z"/><polygon class="cls-38" points="180.43 57.27 181.31 58.2 183.93 55.14 183.05 54.21 180.43 57.27"/><polygon class="cls-38" points="179.93 57.39 180.81 58.32 183.43 55.26 182.55 54.33 179.93 57.39"/><polygon class="cls-38" points="181.31 58.2 180.81 58.32 183.43 55.26 183.93 55.14 181.31 58.2"/><path class="cls-37" d="M183.13,57.23l-2.09-3.68,1.86-1.07c.27-.2.67-.19,1.11.07.83.48,1.5,1.64,1.5,2.59,0,.44-.14.75-.37.92l-.75.43-1.26.73Z"/><path class="cls-38" d="M180.61,54.51c0-.95.67-1.34,1.5-.86s1.5,1.64,1.5,2.59c0,.95-.67,1.34-1.5.86-.83-.48-1.5-1.64-1.5-2.59Z"/><path class="cls-37" d="M171.09,52.09l.89.52c.08.05.13.13.13.22v1.43s0,.06.02.09l2.05,5.57c.02.06.06.1.11.13l1.19.69c.08.05.13.13.13.22v.55c0,.1-.06.19-.14.23l-.45.26-.87-.89-.73-.42c-.05-.03-.09-.08-.11-.13l-2.58-7.03s-.02-.06-.02-.09v-1.13c0-.2.21-.32.39-.22Z"/><path class="cls-38" d="M171.62,53.11v1.43s0,.06.02.09l2.05,5.57c.02.06.06.1.11.13l1.19.69c.08.05.13.13.13.22v.55c0,.2-.21.32-.39.22l-.48-.28-1.33-.77c-.05-.03-.09-.08-.11-.13l-2.58-7.03s-.02-.06-.02-.09v-1.13c0-.2.21-.32.39-.22l.89.52c.08.05.13.13.13.22Z"/><path class="cls-38" d="M171.59,54.57l-1.62-2.86.86-.5c.21-.15.52-.15.87.05.64.37,1.16,1.27,1.16,2.02,0,.34-.11.59-.29.72h0s-.98.57-.98.57Z"/><path class="cls-38" d="M169.63,52.46c0-.74.52-1.04,1.16-.67.64.37,1.16,1.27,1.16,2.02s-.52,1.04-1.16.67-1.16-1.27-1.16-2.02Z"/><polygon class="cls-38" points="171.25 51.73 172.13 52.66 174.75 49.6 173.87 48.67 171.25 51.73"/><polygon class="cls-38" points="170.75 51.85 171.63 52.77 174.25 49.72 173.37 48.79 170.75 51.85"/><polygon class="cls-38" points="172.13 52.66 171.63 52.77 174.25 49.72 174.75 49.6 172.13 52.66"/><path class="cls-37" d="M173.94,51.68l-2.09-3.68,1.86-1.07c.27-.2.67-.19,1.11.07.83.48,1.5,1.64,1.5,2.59,0,.44-.14.75-.37.92l-.75.43-1.26.73Z"/><path class="cls-38" d="M171.43,48.97c0-.95.67-1.34,1.5-.86s1.5,1.64,1.5,2.59c0,.95-.67,1.34-1.5.86s-1.5-1.64-1.5-2.59Z"/><line class="cls-38" x1="187.8" y1="53.02" x2="171.91" y2="43.83"/><line class="cls-38" x1="193.96" y1="52.61" x2="187.8" y2="56.17"/><path class="cls-53" d="M107.25,66.79c-.57,0-1.03-.46-1.03-1.04s.46-1.03,1.03-1.03,1.03.46,1.03,1.03-.46,1.04-1.03,1.04Z"/><path d="M107.25,64.95c.45,0,.81.36.81.81s-.36.81-.81.81-.81-.36-.81-.81.36-.81.81-.81M107.25,64.5c-.7,0-1.26.56-1.26,1.26s.56,1.26,1.26,1.26,1.26-.56,1.26-1.26-.56-1.26-1.26-1.26h0Z"/><path d="M102.72,68.74c.07,0,.14-.02.2-.05l4.12-2.38c.19-.11.26-.36.15-.55-.11-.19-.36-.26-.55-.15l-4.12,2.38c-.19.11-.26.36-.15.55.07.13.21.2.35.2Z"/><path class="cls-38" d="M103.24,70.12l-1.78-3.14.63-.36c.23-.17.57-.16.95.06.71.41,1.28,1.4,1.28,2.21,0,.37-.12.64-.32.79l-.16.09-.6.35Z"/><path class="cls-38" d="M101.1,67.8c0-.81.57-1.14,1.28-.74s1.28,1.4,1.28,2.21c0,.81-.57,1.14-1.28.74s-1.28-1.4-1.28-2.21Z"/><path class="cls-38" d="M91.82,71.21h.15c.23-.56.71-1.09,1.47-1.53,2.16-1.24,5.65-1.24,7.8,0,.76.44,1.24.97,1.47,1.53h.15v.72c0,.33-.09.66-.27.97h0l-4.01,7.25c-.17.51-.65.89-1.23.89s-1.05-.37-1.23-.89l-4.05-7.25h0c-.18-.32-.27-.65-.27-.97v-.72Z"/><path d="M97.33,74.17c-1.43,0-2.78-.32-3.79-.9-.97-.56-1.5-1.29-1.5-2.06s.53-1.5,1.5-2.06c1.01-.58,2.35-.9,3.79-.9s2.78.32,3.79.9c.97.56,1.5,1.29,1.5,2.06,0,.77-.53,1.5-1.5,2.06-1.01.58-2.35.9-3.79.9Z"/><path d="M97.33,68.48c1.4,0,2.7.31,3.68.87.9.52,1.39,1.18,1.39,1.86s-.49,1.34-1.39,1.86c-.97.56-2.28.87-3.68.87s-2.7-.31-3.68-.87c-.9-.52-1.39-1.18-1.39-1.86s.49-1.34,1.39-1.86c.97-.56,2.28-.87,3.68-.87M97.33,68.03c-1.41,0-2.82.31-3.9.93-2.16,1.24-2.16,3.26,0,4.51,1.08.62,2.49.93,3.9.93s2.83-.31,3.9-.93c2.16-1.24,2.16-3.26,0-4.51-1.08-.62-2.49-.93-3.9-.93h0Z"/><path class="cls-38" d="M91.82,69.72h.15c.23-.56.71-1.09,1.47-1.53,2.16-1.24,5.65-1.24,7.8,0,.76.44,1.24.97,1.47,1.53h.15v.72h0c0,.82-.54,1.63-1.62,2.25-2.16,1.24-5.65,1.24-7.8,0-1.08-.62-1.62-1.44-1.62-2.25h0v-.72Z"/><path d="M97.33,72.68c-1.43,0-2.78-.32-3.79-.9-.97-.56-1.5-1.29-1.5-2.06s.53-1.5,1.5-2.06c1.01-.58,2.35-.9,3.79-.9s2.78.32,3.79.9c.97.56,1.5,1.29,1.5,2.06,0,.77-.53,1.5-1.5,2.06-1.01.58-2.35.9-3.79.9Z"/><path d="M97.33,66.99c1.4,0,2.7.31,3.68.87.9.52,1.39,1.18,1.39,1.86s-.49,1.34-1.39,1.86c-.97.56-2.28.87-3.68.87s-2.7-.31-3.68-.87c-.9-.52-1.39-1.18-1.39-1.86s.49-1.34,1.39-1.86c.97-.56,2.28-.87,3.68-.87M97.33,66.54c-1.41,0-2.82.31-3.9.93-2.16,1.24-2.16,3.26,0,4.51,1.08.62,2.49.93,3.9.93s2.83-.31,3.9-.93c2.16-1.24,2.16-3.26,0-4.51-1.08-.62-2.49-.93-3.9-.93h0Z"/><path class="cls-38" d="M97.36,60.49c3.06,0,5.54,2.48,5.54,5.54v2.06c0,.82-.54,1.64-1.62,2.26-2.16,1.25-5.67,1.25-7.83,0-1.08-.62-1.62-1.44-1.62-2.26h0v-2.06c0-3.06,2.48-5.54,5.54-5.54Z"/><path class="cls-53" d="M97.36,67.75c-1.15,0-2.3-.25-3.18-.76"/><path class="cls-53" d="M100.54,66.99c-.88.51-2.03.76-3.18.76"/><path d="M97.36,68.27c1.29,0,2.52-.3,3.44-.83.25-.14.33-.46.19-.71-.14-.25-.46-.33-.71-.19-.77.45-1.81.69-2.92.69-.29,0-.52.23-.52.52,0,.29.23.52.52.52Z"/><path class="cls-38" d="M91.69,73.66l-1.78-3.14.63-.36c.23-.17.57-.16.95.06.71.41,1.28,1.4,1.28,2.21,0,.37-.12.64-.32.79l-.16.09-.6.35Z"/><path class="cls-38" d="M89.54,71.35c0-.81.57-1.14,1.28-.74s1.28,1.4,1.28,2.21c0,.81-.57,1.14-1.28.74s-1.28-1.4-1.28-2.21Z"/><line class="cls-53" x1="90.67" y1="72.08" x2="86.55" y2="74.46"/><path d="M86.55,74.86c.07,0,.14-.02.2-.05l4.12-2.38c.19-.11.26-.36.15-.55-.11-.19-.36-.26-.55-.15l-4.12,2.38c-.19.11-.26.36-.15.55.07.13.21.2.35.2Z"/><path class="cls-53" d="M86.3,75.69c-.57,0-1.03-.46-1.03-1.04s.46-1.03,1.03-1.03,1.03.46,1.03,1.03-.46,1.04-1.03,1.04Z"/><path d="M86.3,73.85c.45,0,.81.36.81.81s-.36.81-.81.81-.81-.36-.81-.81.36-.81.81-.81M86.3,73.39c-.7,0-1.26.56-1.26,1.26s.56,1.26,1.26,1.26,1.26-.56,1.26-1.26-.56-1.26-1.26-1.26h0Z"/><path class="cls-53" d="M202,73.38c-.23,0-.46-.06-.63-.15l-11.22-6.48c-.15-.09-.21-.18-.21-.23,0-.06.08-.11.11-.13l11.41-6.59c.11-.06.27-.1.46-.1.23,0,.46.06.63.15l11.22,6.48c.15.09.21.18.21.23,0,.06-.08.11-.11.13l-11.41,6.59c-.11.06-.27.1-.45.1Z"/><path d="M201.92,59.92h0c.19,0,.38.05.51.12l11.22,6.48s.01,0,.02.01l-11.33,6.54c-.08.04-.2.07-.34.07-.19,0-.38-.05-.51-.12l-11.22-6.48s-.01,0-.02-.01l11.33-6.55c.08-.04.2-.07.34-.07M201.92,59.47c-.21,0-.42.04-.57.13l-11.41,6.59c-.34.19-.29.53.09.76l11.22,6.48c.21.12.48.19.74.19.21,0,.42-.04.57-.13l11.41-6.59c.34-.19.29-.53-.09-.76l-11.22-6.48c-.21-.12-.48-.19-.74-.19h0Z"/><g class="cls-42"><path d="M209.34,69.68v.95h-2.24v-.95h2.24M209.75,69.27h-3.05v1.76h3.05v-1.76h0Z"/><path d="M211.32,68.53v3.24h-6.2v-3.24h6.2M211.72,68.13h-7.01v4.05h7.01v-4.05h0Z"/><path d="M213.3,67.39v5.52h-10.15v-5.52h10.15M213.7,66.99h-10.96v6.33h10.96v-6.33h0Z"/><path d="M215.27,66.25v7.8h-14.11v-7.8h14.11M215.68,65.85h-14.92v8.62h14.92v-8.62h0Z"/><path d="M217.25,65.11v10.09h-18.06v-10.09h18.06M217.66,64.7h-18.87v10.9h18.87v-10.9h0Z"/><path d="M219.23,63.97v12.37h-22.02v-12.37h22.02M219.63,63.56h-22.83v13.18h22.83v-13.18h0Z"/><path d="M221.21,62.82v14.66h-25.97v-14.66h25.97M221.61,62.42h-26.78v15.47h26.78v-15.47h0Z"/></g><path class="cls-38" d="M136.83,61.78c-.83-.47-1.64-1.44-1.65-2.41s.78-1.07,1.61-.6c.75.42,5.99,3.82,7,4.47,3.26,2.06,5.29,3.17,5.41,3.24.39.22.7.76.71,1.21s-.3.64-.69.42c-.12-.07-2.15-1.21-5.41-2.82-1.01-.5-6.29-3.11-6.99-3.5Z"/><polygon class="cls-37" points="147.67 69.32 149.67 68.16 136.76 60.39 135.03 61.4 147.67 69.32"/><path class="cls-38" d="M144.04,52.23c-.68-1.02-2.03-.85-2.81-.44h0s0,0,0,0c-.04.02-.08.04-.12.07l-1.56.9-1.48,3.19c-1.46,1.33-2.72,2.11-2.8,2.19-.32.28-.26,1,.13,1.61l-.65.75.28.9,1.62-.94h0s.08-.04.11-.07c.11-.09,1.62-1.93,3.8-3.48.25-.17.61-.31,1-.43l.02.36,1.6-.92h0c.07-.04.14-.09.19-.13.64-.56,1.46-2.35.66-3.55Z"/><path class="cls-38" d="M141.72,56.74c.64-.56,1.46-2.35.66-3.55-.8-1.2-2.53-.76-3.16-.2-.57.5-1.11,2.19-1.69,2.82-1.87,2.01-3.82,3.2-3.92,3.3-.33.29-.26,1.03.15,1.65s1.02.89,1.35.6c.11-.09,1.62-1.93,3.8-3.48.68-.48,2.28-.66,2.82-1.13Z"/><path class="cls-38" d="M141.79,54.43c0-.41-.29-.91-.65-1.12s-.65-.04-.65.37.29.91.65,1.12.65.04.65-.37Z"/><path class="cls-38" d="M134.77,62.96c-.83-.47-1.64-1.44-1.65-2.41s.78-1.07,1.61-.6c.75.42,5.99,3.82,7,4.47,3.26,2.06,5.29,3.17,5.41,3.24.39.22.7.76.71,1.21s-.3.64-.69.42c-.12-.07-2.15-1.21-5.41-2.82-1.01-.5-6.29-3.11-6.99-3.5Z"/><polygon class="cls-38" points="152.32 68.39 149.28 66.64 149.28 68.58 152.32 70.33 153.83 70.15 153.83 69.27 152.32 68.39"/><polygon class="cls-38" points="153.83 69.27 152.86 69.83 152.86 70.71 153.83 70.15 153.83 69.27"/><polygon class="cls-38" points="153.83 69.27 149.28 66.64 148.31 67.2 152.86 69.83 153.83 69.27"/><polygon class="cls-38" points="151.35 68.95 148.31 67.2 148.31 69.14 151.35 70.89 152.86 70.71 152.86 69.83 151.35 68.95"/><path class="cls-38" d="M145.16,97.64c-.49-.88-1-1.8-1.5-2.76l-1.48-3.25c-.29-.74-.56-1.51-.79-2.31-.18-.62-.07-1.19.04-1.56.09-.28-.02-.71-.26-1.06-.27-.39-.64-.6-.9-.5-.16.06-.33.13-.5.23l-.46.27,1.57,5.45,3.07,5.3.8.86.38-.22c.12-.04.15-.24.03-.46Z"/><path class="cls-38" d="M140.8,86.92h0c.24.35.35.77.26,1.06-.11.37-.22.94-.04,1.56.93,3.23,2.42,5.9,3.77,8.32.17.3.04.57-.2.43l-.61-.35c-.08-.04-.15-.12-.2-.21-.23-.41-.89-1.59-1.35-2.42-1-1.78-2.25-2.19-3.28-4.31-1.61-3.3-.24-4.19.76-4.56.26-.1.63.11.9.5Z"/><polygon class="cls-37" points="142.15 97.83 142.15 98.96 147.09 101.81 147.09 101.45 142.8 98.2 142.15 97.83"/><polygon class="cls-38" points="143.69 96.94 143.69 98.07 148.63 100.92 148.63 100.56 144.34 97.31 143.69 96.94"/><polygon class="cls-38" points="142.15 97.83 143.69 96.94 144.34 97.31 148.63 100.56 147.09 101.45 142.8 98.2 142.15 97.83"/><polygon class="cls-38" points="147.09 101.45 148.63 100.56 148.63 100.92 147.09 101.81 147.09 101.45"/><path class="cls-37" d="M149.35,81.33l-1.31-2.74c-.19-.39-.55-.6-.74-.44l-2.4,1.39-.69,1.61c-.27.07-.51.15-.72.28l-2.4,1.38,1.41.83c-.24.51-.55,1.02-.84,1.47l-.46.25-2.05,3.39,2.4-1.39,7.76-5.35c.15-.11.16-.39.03-.68Z"/><path class="cls-38" d="M145.65,79.98l1.31,2.74c.14.29.13.57-.03.68l-7.76,5.35c-.17.11-.45-.02-.64-.31h0c-.19-.28-.23-.61-.11-.77.56-.7,1.96-2.57,2.12-3.97.2-1.76,3.49-1.03,3.69-1.71.12-.41,0-.93-.1-1.27-.07-.23-.05-.44.06-.54l.72-.62c.19-.17.56.05.74.44Z"/><path class="cls-38" d="M148.79,77.26c0-.51-.13-1.05-.35-1.57h0s-.04-.09-.06-.13l-3.85-8.83s-.02-.04-.02-.06v-.02s-.01,0-.01,0c-.52-1.17-1.39-2.24-2.37-2.81-.83-.48-1.57-.51-2.1-.17h0s-3.07,1.77-3.07,1.77l8.16,14.98,2.96-1.71c.44-.21.72-.72.72-1.46Z"/><path class="cls-38" d="M145.42,77.42h0s-.04-.09-.06-.13l-3.85-8.83s-.02-.04-.02-.06v-.02s-.01,0-.01,0c-.52-1.17-1.39-2.24-2.37-2.81-1.6-.92-2.89-.17-2.89,1.67,0,.98.37,2.08.96,3.03,0,0,0,0,0,.01.07.14.18.29.3.45.17.23.35.44.54.64.63.73,1.45,1.69,2.06,3.09,1.13,2.58,1.7,3.7,1.7,3.7h0c.4.87,1.05,1.67,1.79,2.1,1.22.7,2.2.13,2.2-1.27,0-.51-.13-1.05-.35-1.57Z"/><path class="cls-38" d="M143.62,98.46c-.49-.88-1-1.8-1.5-2.76l-1.48-3.25c-.29-.74-.56-1.51-.79-2.31-.18-.62-.07-1.19.04-1.56.09-.28-.02-.71-.26-1.06-.27-.39-.64-.6-.9-.5-.16.06-.33.13-.5.23l-.46.27,1.57,5.45,3.07,5.3.8.86.38-.22c.12-.04.15-.24.03-.46Z"/><path class="cls-38" d="M139.27,87.73h0c.24.35.35.77.26,1.06-.11.37-.22.94-.04,1.56.93,3.23,2.42,5.9,3.77,8.32.17.3.04.57-.2.43l-.61-.35c-.08-.04-.15-.12-.2-.21-.23-.41-.89-1.59-1.35-2.42-1-1.78-2.25-2.19-3.28-4.31-1.61-3.3-.24-4.19.76-4.56.26-.1.63.11.9.5Z"/><path class="cls-38" d="M140.42,52.14c-.9-.52-1.71-.57-2.3-.23h0s0,0-.01,0l-4.56,2.63,4.92,18.89,5.01-2.84s.03-.01.04-.02h.02s0-.01,0-.01c.08-.07.14-.19.14-.35v-12.43c0-2.08-1.46-4.6-3.26-5.64Z"/><path class="cls-38" d="M135.48,54.95c-1.8-1.04-3.26-.2-3.26,1.88v12.43c0,.37.26.83.58,1.01l5.34,3.08c.32.19.58.04.58-.34v-12.43c0-2.08-1.46-4.6-3.26-5.64Z"/><line class="cls-38" x1="138.73" y1="67.3" x2="143.74" y2="64.46"/><line class="cls-38" x1="132.22" y1="63.54" x2="138.73" y2="67.3"/><path class="cls-38" d="M137.92,101.85c-.49-.88-1-1.8-1.5-2.76l-1.48-3.25c-.29-.74-.56-1.51-.79-2.31-.18-.62-.07-1.19.04-1.56.09-.28-.02-.71-.26-1.06-.27-.39-.64-.6-.9-.5-.16.06-.33.13-.5.23l-.46.27,1.57,5.45,3.07,5.3.8.86.38-.22c.12-.04.15-.24.03-.46Z"/><path class="cls-38" d="M133.56,91.13h0c.24.35.35.77.26,1.06-.11.37-.22.94-.04,1.56.93,3.23,2.42,5.9,3.77,8.32.17.3.04.57-.2.43l-.61-.35c-.08-.04-.15-.12-.2-.21-.23-.41-.89-1.59-1.35-2.42-1-1.78-2.25-2.19-3.28-4.31-1.61-3.3-.24-4.19.76-4.56.26-.1.63.11.9.5Z"/><polygon class="cls-37" points="134.91 102.04 134.91 103.17 139.85 106.03 139.85 105.67 135.57 102.42 134.91 102.04"/><polygon class="cls-38" points="136.45 101.15 136.45 102.28 141.39 105.14 141.39 104.78 137.11 101.53 136.45 101.15"/><polygon class="cls-38" points="134.91 102.04 136.45 101.15 137.11 101.53 141.39 104.78 139.85 105.67 135.57 102.42 134.91 102.04"/><polygon class="cls-38" points="139.85 105.67 141.39 104.78 141.39 105.14 139.85 106.03 139.85 105.67"/><path class="cls-37" d="M142.12,85.55l-1.31-2.74c-.19-.39-.55-.6-.74-.44l-2.4,1.39-.69,1.61c-.27.07-.51.15-.72.28l-2.4,1.38,1.41.83c-.24.51-.55,1.02-.84,1.47l-.46.25-2.05,3.39,2.4-1.39,7.76-5.35c.15-.11.16-.39.03-.68Z"/><path class="cls-38" d="M138.41,84.19l1.31,2.74c.14.29.13.57-.03.68l-7.76,5.35c-.17.11-.45-.02-.64-.31h0c-.19-.28-.23-.61-.11-.77.56-.7,1.96-2.57,2.12-3.97.2-1.76,3.49-1.03,3.69-1.71.12-.41,0-.93-.1-1.27-.07-.23-.05-.44.06-.54l.72-.62c.19-.17.56.05.74.44Z"/><path class="cls-38" d="M141.55,81.47c0-.51-.13-1.05-.35-1.57h0s-.04-.09-.06-.13l-3.85-8.83s-.02-.04-.02-.06v-.02s-.01,0-.01,0c-.52-1.17-1.39-2.24-2.37-2.81-.83-.48-1.57-.51-2.1-.17h0s-3.07,1.77-3.07,1.77l8.16,14.98,2.96-1.71c.44-.21.72-.72.72-1.46Z"/><path class="cls-38" d="M138.19,81.63h0s-.04-.09-.06-.13l-3.85-8.83s-.02-.04-.02-.06v-.02s-.01,0-.01,0c-.52-1.17-1.39-2.24-2.37-2.81-1.6-.92-2.89-.17-2.89,1.67,0,.98.37,2.08.96,3.03,0,0,0,0,0,.01.07.14.18.29.3.45.17.23.35.44.54.64.63.73,1.45,1.69,2.06,3.09,1.13,2.58,1.7,3.7,1.7,3.7h0c.4.87,1.05,1.67,1.79,2.1,1.22.7,2.2.13,2.2-1.27,0-.51-.13-1.05-.35-1.57Z"/><path class="cls-38" d="M136.39,102.67c-.49-.88-1-1.8-1.5-2.76l-1.48-3.25c-.29-.74-.56-1.51-.79-2.31-.18-.62-.07-1.19.04-1.56.09-.28-.02-.71-.26-1.06-.27-.39-.64-.6-.9-.5-.16.06-.33.13-.5.23l-.46.27,1.57,5.45,3.07,5.3.8.86.38-.22c.12-.04.15-.24.03-.46Z"/><path class="cls-38" d="M132.03,91.95h0c.24.35.35.77.26,1.06-.11.37-.22.94-.04,1.56.93,3.23,2.42,5.9,3.77,8.32.17.3.04.57-.2.43l-.61-.35c-.08-.04-.15-.12-.2-.21-.23-.41-.89-1.59-1.35-2.42-1-1.78-2.25-2.19-3.28-4.31-1.61-3.3-.24-4.19.76-4.56.26-.1.63.11.9.5Z"/><path class="cls-38" d="M128.51,66.26c-.83-.47-1.64-1.44-1.65-2.41s.78-1.07,1.61-.6c.75.42,5.99,3.82,7,4.47,3.26,2.06,5.29,3.17,5.41,3.24.39.22.7.76.71,1.21s-.3.64-.69.42c-.12-.07-2.15-1.21-5.41-2.82-1.01-.5-6.29-3.11-6.99-3.5Z"/><polygon class="cls-37" points="139.35 73.79 141.35 72.64 128.45 64.86 126.71 65.88 139.35 73.79"/><path class="cls-38" d="M135.72,56.71c-.68-1.02-2.03-.85-2.81-.44h0s0,0,0,0c-.04.02-.08.04-.12.07l-1.56.9-1.48,3.19c-1.46,1.33-2.72,2.11-2.8,2.19-.32.28-.26,1,.13,1.61l-.65.75.28.9,1.62-.94h0s.08-.04.11-.07c.11-.09,1.62-1.93,3.8-3.48.25-.17.61-.31,1-.43l.02.36,1.6-.92h0c.07-.04.14-.09.19-.13.64-.56,1.46-2.35.66-3.55Z"/><path class="cls-38" d="M133.4,61.22c.64-.56,1.46-2.35.66-3.55-.8-1.2-2.53-.76-3.16-.2-.57.5-1.11,2.19-1.69,2.82-1.87,2.01-3.82,3.2-3.92,3.3-.33.29-.26,1.03.15,1.65s1.02.89,1.35.6c.11-.09,1.62-1.93,3.8-3.48.68-.48,2.28-.66,2.82-1.13Z"/><path class="cls-37" d="M133.47,58.91c0-.41-.29-.91-.65-1.12s-.65-.04-.65.37.29.91.65,1.12.65.04.65-.37Z"/><path class="cls-37" d="M137.32,82.96c0-.41-.29-.91-.65-1.12s-.65-.04-.65.37.29.91.65,1.12.65.04.65-.37Z"/><path class="cls-37" d="M144.55,79.03c0-.41-.29-.91-.65-1.12s-.65-.04-.65.37.29.91.65,1.12.65.04.65-.37Z"/><path class="cls-37" d="M132.49,73.07c0-.68-.47-1.5-1.06-1.84-.59-.34-1.06-.06-1.06.61s.47,1.5,1.06,1.84,1.06.06,1.06-.61Z"/><path class="cls-38" d="M126.46,67.44c-.83-.47-1.64-1.44-1.65-2.41s.78-1.07,1.61-.6c.75.42,5.99,3.82,7,4.47,3.26,2.06,5.29,3.17,5.41,3.24.39.22.7.76.71,1.21s-.3.64-.69.42c-.12-.07-2.15-1.21-5.41-2.82-1.01-.5-6.29-3.11-6.99-3.5Z"/><polygon class="cls-38" points="143.04 73.43 139.99 71.67 139.99 73.61 143.04 75.37 144.55 75.19 144.55 74.3 143.04 73.43"/><polygon class="cls-38" points="144.55 74.3 143.58 74.86 143.58 75.75 144.55 75.19 144.55 74.3"/><polygon class="cls-38" points="144.55 74.3 139.99 71.67 139.02 72.23 143.58 74.86 144.55 74.3"/><polygon class="cls-38" points="142.07 73.99 139.02 72.23 139.02 74.17 142.07 75.93 143.58 75.75 143.58 74.86 142.07 73.99"/><path class="cls-38" d="M142.62,59.08c0,.84-.59,1.86-1.32,2.28-.73.42-1.32.08-1.32-.76,0-.84.59-1.86,1.32-2.28.73-.42,1.32-.08,1.32.76Z"/><path class="cls-37" d="M142.03,59.42c0,.46-.33,1.03-.73,1.26s-.73.04-.73-.42c0-.46.33-1.03.73-1.26s.73-.04.73.42Z"/><path class="cls-53" d="M144.04,40.14c-.57,0-1.03-.46-1.03-1.04s.46-1.03,1.03-1.03,1.03.46,1.03,1.03-.46,1.04-1.03,1.04Z"/><path d="M144.04,38.29c.45,0,.81.36.81.81s-.36.81-.81.81-.81-.36-.81-.81.36-.81.81-.81M144.04,37.84c-.7,0-1.26.56-1.26,1.26s.56,1.26,1.26,1.26,1.26-.56,1.26-1.26-.56-1.26-1.26-1.26h0Z"/><path d="M148.56,42.08c-.07,0-.14-.02-.2-.05l-4.12-2.38c-.19-.11-.26-.36-.15-.55.11-.19.36-.26.55-.15l4.12,2.38c.19.11.26.36.15.55-.07.13-.21.2-.35.2Z"/><path class="cls-38" d="M148.05,43.46l1.78-3.14-.63-.36c-.23-.17-.57-.16-.95.06-.71.41-1.28,1.4-1.28,2.21,0,.37.12.64.32.79l.16.09.6.35Z"/><path class="cls-38" d="M150.19,41.14c0-.81-.57-1.14-1.28-.74s-1.28,1.4-1.28,2.21c0,.81.57,1.14,1.28.74.71-.41,1.28-1.4,1.28-2.21Z"/><path class="cls-38" d="M159.47,44.56h-.15c-.23-.56-.71-1.09-1.47-1.53-2.16-1.24-5.65-1.24-7.8,0-.76.44-1.24.97-1.47,1.53h-.15s0,.72,0,.72c0,.33.09.66.27.97h0l4.01,7.25c.17.51.65.89,1.23.89s1.05-.37,1.23-.89l4.05-7.25h0c.18-.32.27-.65.27-.97v-.72Z"/><path d="M153.95,47.52c-1.43,0-2.78-.32-3.79-.9-.97-.56-1.5-1.29-1.5-2.06s.53-1.5,1.5-2.06c1.01-.58,2.35-.9,3.79-.9s2.78.32,3.79.9c.97.56,1.5,1.29,1.5,2.06s-.53,1.5-1.5,2.06c-1.01.58-2.35.9-3.79.9Z"/><path d="M153.95,41.82c1.4,0,2.7.31,3.68.87.9.52,1.39,1.18,1.39,1.86s-.49,1.34-1.39,1.86c-.97.56-2.28.87-3.68.87s-2.7-.31-3.68-.87c-.9-.52-1.39-1.18-1.39-1.86s.49-1.34,1.39-1.86c.97-.56,2.28-.87,3.68-.87M153.95,41.37c-1.41,0-2.83.31-3.9.93-2.16,1.24-2.16,3.26,0,4.51,1.08.62,2.49.93,3.9.93s2.82-.31,3.9-.93c2.16-1.24,2.16-3.26,0-4.51-1.08-.62-2.49-.93-3.9-.93h0Z"/><path class="cls-38" d="M159.47,43.07h-.15c-.23-.56-.71-1.09-1.47-1.53-2.16-1.24-5.65-1.24-7.8,0-.76.44-1.24.97-1.47,1.53h-.15s0,.72,0,.72h0c0,.82.54,1.63,1.62,2.25,2.16,1.24,5.65,1.24,7.8,0,1.08-.62,1.62-1.44,1.62-2.25h0v-.72Z"/><path d="M153.95,46.03c-1.43,0-2.78-.32-3.79-.9-.97-.56-1.5-1.29-1.5-2.06s.53-1.5,1.5-2.06c1.01-.58,2.35-.9,3.79-.9s2.78.32,3.79.9c.97.56,1.5,1.29,1.5,2.06s-.53,1.5-1.5,2.06c-1.01.58-2.35.9-3.79.9Z"/><path d="M153.95,40.33c1.4,0,2.7.31,3.68.87.9.52,1.39,1.18,1.39,1.86s-.49,1.34-1.39,1.86c-.97.56-2.28.87-3.68.87s-2.7-.31-3.68-.87c-.9-.52-1.39-1.18-1.39-1.86s.49-1.34,1.39-1.86c.97-.56,2.28-.87,3.68-.87M153.95,39.88c-1.41,0-2.83.31-3.9.93-2.16,1.24-2.16,3.26,0,4.51,1.08.62,2.49.93,3.9.93s2.82-.31,3.9-.93c2.16-1.24,2.16-3.26,0-4.51-1.08-.62-2.49-.93-3.9-.93h0Z"/><path class="cls-38" d="M153.93,33.83c-3.06,0-5.54,2.48-5.54,5.54v2.06c0,.82.54,1.64,1.62,2.26,2.16,1.25,5.67,1.25,7.83,0,1.08-.62,1.62-1.44,1.62-2.26h0v-2.06c0-3.06-2.48-5.54-5.54-5.54Z"/><path class="cls-53" d="M153.93,41.1c1.15,0,2.3-.25,3.18-.76"/><path class="cls-53" d="M150.75,40.34c.88.51,2.03.76,3.18.76"/><path d="M153.93,41.62c-1.29,0-2.52-.3-3.44-.83-.25-.14-.33-.46-.19-.71.14-.25.46-.33.71-.19.77.45,1.81.69,2.92.69.29,0,.52.23.52.52,0,.29-.23.52-.52.52Z"/><path class="cls-38" d="M159.6,47.01l1.78-3.14-.63-.36c-.23-.17-.57-.16-.95.06-.71.41-1.28,1.4-1.28,2.21,0,.37.12.64.32.79l.16.09.6.35Z"/><path class="cls-38" d="M161.75,44.69c0-.81-.57-1.14-1.28-.74s-1.28,1.4-1.28,2.21c0,.81.57,1.14,1.28.74s1.28-1.4,1.28-2.21Z"/><line class="cls-53" x1="160.62" y1="45.43" x2="164.74" y2="47.8"/><path d="M164.74,48.21c-.07,0-.14-.02-.2-.05l-4.12-2.38c-.19-.11-.26-.36-.15-.55.11-.19.36-.26.55-.15l4.12,2.38c.19.11.26.36.15.55-.07.13-.21.2-.35.2Z"/><path class="cls-53" d="M164.99,49.03c-.57,0-1.03-.46-1.03-1.04s.46-1.03,1.03-1.03,1.03.46,1.03,1.03-.46,1.04-1.03,1.04Z"/><path d="M164.99,47.19c.45,0,.81.36.81.81s-.36.81-.81.81-.81-.36-.81-.81.36-.81.81-.81M164.99,46.74c-.7,0-1.26.56-1.26,1.26s.56,1.26,1.26,1.26,1.26-.56,1.26-1.26-.56-1.26-1.26-1.26h0Z"/><path class="cls-38" d="M115.36,43.22c-.44-.13-.98-.05-1.57.29-1.43.83-2.59,2.83-2.59,4.48v5.07l.98.56,4.18-9.91-1-.5Z"/><path class="cls-37" d="M114.77,44.08c-1.43.83-2.59,2.83-2.59,4.48v5.07s5.18-2.99,5.18-2.99v-5.07c0-1.65-1.16-2.32-2.59-1.49Z"/><path class="cls-38" d="M116.28,46.47c0-.9-.63-1.27-1.41-.82s-1.41,1.55-1.41,2.45.63,1.27,1.41.82,1.41-1.55,1.41-2.45Z"/><path class="cls-38" d="M124.07,31.57c-.71-.41-1.86.25-2.57,1.48l-7.62,13.2c-.71,1.23-.71,2.56,0,2.97l3.06,1.7,9.66-17.96-2.52-1.39Z"/><path class="cls-38" d="M127.13,33.27c-.71-.41-1.86.25-2.57,1.48l-7.62,13.2c-.71,1.23-.71,2.56,0,2.97s1.86-.25,2.57-1.48l7.62-13.2c.71-1.23.71-2.56,0-2.97Z"/><path class="cls-38" d="M123.97,34.41c.71-1.23.71-2.56,0-2.97l-7.62-4.4c-.71-.41-1.86.25-2.57,1.48-.71,1.23-.71,2.56,0,2.97l7.62,4.4c.71.41,1.86-.25,2.57-1.48Z"/><path class="cls-38" d="M127.13,36.24c.71-1.23.71-2.56,0-2.97l-7.62-4.4c-.71-.41-1.86.25-2.57,1.48-.71,1.23-.71,2.56,0,2.97l7.62,4.4c.71.41,1.86-.25,2.57-1.48Z"/><path class="cls-38" d="M118.94,45.31c-.44-.13-.98-.05-1.57.29-1.43.83-2.59,2.83-2.59,4.48v5.07l.98.56,4.18-9.91-1-.5Z"/><path class="cls-38" d="M118.35,46.16c-1.43.83-2.59,2.83-2.59,4.48v5.07s5.18-2.99,5.18-2.99v-5.07c0-1.65-1.16-2.32-2.59-1.49Z"/><path class="cls-38" d="M119.85,48.56c0-.9-.63-1.27-1.41-.82-.78.45-1.41,1.55-1.41,2.45s.63,1.27,1.41.82,1.41-1.55,1.41-2.45Z"/><path class="cls-37" d="M115.25,32.54l2.58-4.55-1.15-.66c-.34-.24-.83-.23-1.38.08-1.02.59-1.85,2.02-1.85,3.2,0,.54.18.93.46,1.14l.93.53.41.25Z"/><path class="cls-38" d="M118.36,29.18c0-1.18-.83-1.66-1.85-1.07-1.02.59-1.85,2.02-1.85,3.2,0,1.18.83,1.66,1.85,1.07,1.02-.59,1.85-2.02,1.85-3.2Z"/><path class="cls-37" d="M118.82,52.01l2.58-4.55-1.15-.66c-.34-.24-.83-.23-1.38.08-1.02.59-1.85,2.02-1.85,3.2,0,.54.18.93.46,1.14l.93.53.41.25Z"/><path class="cls-38" d="M121.93,48.65c0-1.18-.83-1.66-1.85-1.07s-1.85,2.02-1.85,3.2.83,1.66,1.85,1.07c1.02-.59,1.85-2.02,1.85-3.2Z"/><polygon class="cls-37" points="105.5 30.57 105.5 31.75 111.92 27.31 111.92 32.15 105.5 35.12 105.5 36.31 113.52 33.43 113.52 32.29 113.52 31.58 113.52 26.03 113.52 24.89 113.52 24.18 105.5 30.57"/><polygon class="cls-38" points="106.48 31.13 106.48 32.32 112.89 27.87 112.89 32.72 106.48 35.69 106.48 36.87 114.5 34 114.5 32.86 114.5 32.14 114.5 26.59 114.5 25.46 114.5 24.74 106.48 31.13"/><polygon class="cls-38" points="106.48 35.69 105.5 35.12 105.5 36.31 106.48 36.87 106.48 35.69"/><polygon class="cls-37" points="106.48 35.69 105.5 35.12 111.92 32.15 112.89 32.72 106.48 35.69"/><polygon class="cls-38" points="106.48 32.32 105.5 31.75 105.5 30.57 106.48 31.13 106.48 32.32"/><polygon class="cls-38" points="106.48 31.13 114.5 24.74 113.52 24.18 105.5 30.57 106.48 31.13"/><path class="cls-37" d="M125.94,38.53l2.58-4.55-1.15-.66c-.34-.24-.83-.23-1.38.08-1.02.59-1.85,2.02-1.85,3.2,0,.54.18.93.46,1.14l.93.53.41.25Z"/><path class="cls-38" d="M129.05,35.17c0-1.18-.83-1.66-1.85-1.07-1.02.59-1.85,2.02-1.85,3.2,0,1.18.83,1.66,1.85,1.07s1.85-2.02,1.85-3.2Z"/><line class="cls-17" x1="61.33" y1="46.04" x2="61.63" y2="45.87"/><line class="cls-3" x1="62.24" y1="45.52" x2="139.96" y2=".63"/><polyline class="cls-17" points="140.26 .46 140.57 .28 140.87 .46"/><line class="cls-13" x1="141.48" y1=".81" x2="242.61" y2="59.21"/><polyline class="cls-17" points="242.92 59.39 243.22 59.57 242.92 59.74"/><line class="cls-14" x1="242.31" y1="60.09" x2="141.18" y2="118.5"/><polyline class="cls-17" points="140.87 118.67 140.57 118.85 140.26 118.67"/><line class="cls-13" x1="139.65" y1="118.32" x2="38.52" y2="59.92"/><polyline class="cls-17" points="38.21 59.74 37.91 59.57 38.21 59.39"/><line class="cls-7" x1="38.83" y1="59.03" x2="60.72" y2="46.4"/><line class="cls-17" x1="61.02" y1="46.22" x2="61.33" y2="46.04"/></g></svg>