<svg width="240" height="247" viewBox="0 0 240 247" fill="none" xmlns="http://www.w3.org/2000/svg">
<g clip-path="url(#clip0_777_4399)">
<path d="M7.125 121.797C6.48295 121.797 5.93608 121.622 5.48438 121.273C5.03267 120.921 4.6875 120.411 4.44886 119.743C4.21023 119.073 4.09091 118.263 4.09091 117.314C4.09091 116.371 4.21023 115.566 4.44886 114.898C4.69034 114.227 5.03693 113.716 5.48864 113.364C5.94318 113.009 6.48864 112.831 7.125 112.831C7.76136 112.831 8.3054 113.009 8.7571 113.364C9.21165 113.716 9.55824 114.227 9.79688 114.898C10.0384 115.566 10.1591 116.371 10.1591 117.314C10.1591 118.263 10.0398 119.073 9.80114 119.743C9.5625 120.411 9.21733 120.921 8.76562 121.273C8.31392 121.622 7.76705 121.797 7.125 121.797ZM7.125 120.86C7.76136 120.86 8.25568 120.553 8.60795 119.939C8.96023 119.325 9.13636 118.45 9.13636 117.314C9.13636 116.558 9.0554 115.915 8.89347 115.384C8.73438 114.852 8.50426 114.448 8.20312 114.169C7.90483 113.891 7.54545 113.752 7.125 113.752C6.49432 113.752 6.00142 114.063 5.64631 114.685C5.29119 115.304 5.11364 116.181 5.11364 117.314C5.11364 118.07 5.19318 118.712 5.35227 119.24C5.51136 119.769 5.74006 120.171 6.03835 120.446C6.33949 120.722 6.7017 120.86 7.125 120.86ZM14.8466 112.95V121.678H13.7898V114.058H13.7386L11.608 115.473V114.399L13.7898 112.95H14.8466Z" fill="black"/>
<path d="M239.722 59.2188V168.58" stroke="black" stroke-width="0.57" stroke-linejoin="round" stroke-dasharray="0.7 0.7"/>
<path d="M137.51 243.833L35.7333 185.159L137.51 126.475L239.296 185.159L137.51 243.833Z" fill="white" stroke="black" stroke-width="0.57" stroke-miterlimit="10"/>
<path d="M239.296 188.049L137.51 246.723V243.833L239.296 185.159V188.049Z" fill="black" stroke="black" stroke-width="0.32" stroke-miterlimit="10"/>
<path d="M137.51 246.723L35.7333 188.049V185.159L137.51 243.833V246.723Z" fill="black" stroke="black" stroke-width="0.32" stroke-miterlimit="10"/>
<path d="M161.742 154.555L181.234 143.321L151.569 126.227L132.086 137.461L161.742 154.555Z" fill="white" stroke="black" stroke-width="0.57" stroke-linejoin="round"/>
<path d="M181.234 143.321V151.684L161.742 162.918V154.555L181.234 143.321Z" fill="white" stroke="black" stroke-width="0.57" stroke-linejoin="round"/>
<path d="M161.742 154.554V162.918L132.086 145.815V137.461L161.742 154.554Z" fill="white" stroke="black" stroke-width="0.57" stroke-linejoin="round"/>
<path d="M154.771 164.373L181.234 149.121L199.527 159.672L173.064 174.924L154.771 164.373Z" fill="white" stroke="black" stroke-width="0.57" stroke-linejoin="round"/>
<path d="M199.527 159.672V162.225L173.065 177.488V174.924L199.527 159.672Z" fill="white" stroke="black" stroke-width="0.57" stroke-linejoin="round"/>
<path d="M173.064 174.924V177.488L154.771 166.937V164.373L173.064 174.924Z" fill="white" stroke="black" stroke-width="0.57" stroke-linejoin="round"/>
<path d="M199.527 148.131L184.615 156.732L199.527 165.333L214.449 156.732L199.527 148.131Z" stroke="black" stroke-width="0.57" stroke-linejoin="round" stroke-dasharray="0.7 0.7"/>
<path d="M214.449 156.732V170.826L199.527 179.428V165.333L214.449 156.732Z" stroke="black" stroke-width="0.57" stroke-linejoin="round" stroke-dasharray="0.7 0.7"/>
<path d="M199.527 165.333V179.428L184.615 170.826V156.732L199.527 165.333Z" fill="white" stroke="black" stroke-width="0.57" stroke-linejoin="round"/>
<path d="M184.615 152.575L164.736 164.037L179.658 172.638L199.527 161.176L184.615 152.575Z" fill="white" stroke="black" stroke-width="0.57" stroke-linejoin="round"/>
<path d="M199.527 161.176V179.428L179.658 190.89V172.638L199.527 161.176Z" fill="white" stroke="black" stroke-width="0.57" stroke-linejoin="round"/>
<path d="M164.736 164.037V182.288L179.658 190.889V172.638L164.736 164.037Z" fill="white" stroke="black" stroke-width="0.57" stroke-linejoin="round"/>
<path d="M238.989 176.627L239.296 176.795L238.989 176.973" stroke="black" stroke-width="0.57" stroke-linejoin="round"/>
<path d="M238.394 177.319L205.1 196.511" stroke="black" stroke-width="0.57" stroke-linejoin="round" stroke-dasharray="0.7 0.7"/>
<path d="M204.802 196.68L204.505 196.858L204.197 196.68" stroke="black" stroke-width="0.57" stroke-linejoin="round"/>
<path d="M203.612 196.343L180.253 182.872" stroke="black" stroke-width="0.57" stroke-linejoin="round" stroke-dasharray="0.69 0.69"/>
<path d="M179.955 182.704L179.648 182.526L179.955 182.357" stroke="black" stroke-width="0.57" stroke-linejoin="round"/>
<path d="M180.55 182.011L213.845 162.819" stroke="black" stroke-width="0.57" stroke-linejoin="round" stroke-dasharray="0.7 0.7"/>
<path d="M214.142 162.641L214.449 162.473L214.747 162.641" stroke="black" stroke-width="0.57" stroke-linejoin="round"/>
<path d="M215.342 162.987L238.701 176.448" stroke="black" stroke-width="0.57" stroke-linejoin="round" stroke-dasharray="0.69 0.69"/>
<path d="M238.989 176.973L239.296 176.795V177.141" stroke="black" stroke-width="0.57" stroke-linejoin="round"/>
<path d="M239.296 177.844V184.456" stroke="black" stroke-width="0.57" stroke-linejoin="round" stroke-dasharray="0.7 0.7"/>
<path d="M239.296 184.812V185.158L238.989 185.327" stroke="black" stroke-width="0.57" stroke-linejoin="round"/>
<path d="M238.394 185.673L205.1 204.865" stroke="black" stroke-width="0.57" stroke-linejoin="round" stroke-dasharray="0.7 0.7"/>
<path d="M204.802 205.043L204.505 205.212V204.865" stroke="black" stroke-width="0.57" stroke-linejoin="round"/>
<path d="M204.505 204.172V197.551" stroke="black" stroke-width="0.57" stroke-linejoin="round" stroke-dasharray="0.7 0.7"/>
<path d="M204.505 197.204V196.858L204.802 196.68" stroke="black" stroke-width="0.57" stroke-linejoin="round"/>
<path d="M205.397 196.333L238.691 177.142" stroke="black" stroke-width="0.57" stroke-linejoin="round" stroke-dasharray="0.7 0.7"/>
<path d="M179.955 182.704L179.648 182.526V182.872" stroke="black" stroke-width="0.57" stroke-linejoin="round"/>
<path d="M179.648 183.575V190.197" stroke="black" stroke-width="0.57" stroke-linejoin="round" stroke-dasharray="0.7 0.7"/>
<path d="M179.648 190.543V190.889L179.955 191.058" stroke="black" stroke-width="0.57" stroke-linejoin="round"/>
<path d="M180.54 191.404L203.9 204.865" stroke="black" stroke-width="0.57" stroke-linejoin="round" stroke-dasharray="0.69 0.69"/>
<path d="M204.197 205.043L204.505 205.212V204.865" stroke="black" stroke-width="0.57" stroke-linejoin="round"/>
<path d="M204.505 204.172V197.551" stroke="black" stroke-width="0.57" stroke-linejoin="round" stroke-dasharray="0.7 0.7"/>
<path d="M204.505 197.204V196.858L204.197 196.68" stroke="black" stroke-width="0.57" stroke-linejoin="round"/>
<path d="M203.612 196.343L180.253 182.872" stroke="black" stroke-width="0.57" stroke-linejoin="round" stroke-dasharray="0.69 0.69"/>
<path d="M157.399 209.201L152.273 206.241V195.601L157.399 198.561V209.201Z" fill="white" stroke="black" stroke-width="0.57" stroke-linejoin="round"/>
<path d="M163.407 205.736L157.399 209.201V198.56L163.407 195.096V205.736Z" fill="white" stroke="black" stroke-width="0.57" stroke-linejoin="round"/>
<path d="M152.273 195.601L157.399 198.56L163.407 195.096L158.271 192.137L152.273 195.601Z" fill="white" stroke="black" stroke-width="0.57" stroke-linejoin="round"/>
<path d="M181.413 198.046L178.528 196.383V158.801L181.413 160.464V198.046Z" fill="white" stroke="black" stroke-width="0.57" stroke-linejoin="round"/>
<path d="M184.794 196.096L181.413 198.046V160.464L184.794 158.514V196.096Z" stroke="black" stroke-width="0.57" stroke-miterlimit="10" stroke-dasharray="0.7 0.7"/>
<path d="M178.528 158.801L181.413 160.464L184.794 158.514L181.899 156.851L178.528 158.801Z" fill="white" stroke="black" stroke-width="0.57" stroke-linejoin="round"/>
<path d="M186.321 191.602L153.562 210.487L171.746 220.969L204.505 202.084L186.321 191.602Z" fill="white" stroke="black" stroke-width="0.57" stroke-linejoin="round"/>
<path d="M204.505 202.084V205.212L171.746 224.097V220.969L204.505 202.084Z" fill="white" stroke="black" stroke-width="0.57" stroke-linejoin="round"/>
<path d="M171.746 220.969L153.562 210.487V213.615L171.746 224.097V220.969Z" fill="white" stroke="black" stroke-width="0.57" stroke-linejoin="round"/>
<path d="M132.086 127.91L102.262 145.102L88.2129 136.996L118.027 119.803L132.086 127.91Z" stroke="black" stroke-width="0.57" stroke-miterlimit="10" stroke-dasharray="0.7 0.7"/>
<path d="M132.086 127.91V145.815L102.262 163.007V145.102L132.086 127.91Z" fill="white" stroke="black" stroke-width="0.57" stroke-linejoin="round"/>
<path d="M102.262 145.102V163.008L88.2129 154.901V136.996L102.262 145.102Z" fill="white" stroke="black" stroke-width="0.57" stroke-linejoin="round"/>
<path d="M98.7325 152.615L77.7229 164.73L67.1932 158.662L88.2128 146.547L98.7325 152.615Z" fill="white" stroke="black" stroke-width="0.57" stroke-linejoin="round"/>
<path d="M98.7326 152.615V160.969L77.7229 173.083V164.73L98.7326 152.615Z" fill="white" stroke="black" stroke-width="0.57" stroke-linejoin="round"/>
<path d="M77.7229 164.729L67.1932 158.662V167.016L77.7229 173.083V164.729Z" fill="white" stroke="black" stroke-width="0.57" stroke-linejoin="round"/>
<path d="M111.424 159.929L98.7325 167.244L86.0514 159.929L98.7325 152.615L111.424 159.929Z" fill="white" stroke="black" stroke-width="0.57" stroke-linejoin="round"/>
<path d="M111.424 159.929V168.283L98.7325 175.597V167.244L111.424 159.929Z" fill="white" stroke="black" stroke-width="0.57" stroke-linejoin="round"/>
<path d="M98.7325 167.244V175.597L86.0514 168.283V159.929L98.7325 167.244Z" fill="white" stroke="black" stroke-width="0.57" stroke-linejoin="round"/>
<path d="M121.487 180.358L98.7326 193.483L75.9779 180.358L98.7326 167.244L121.487 180.358Z" stroke="black" stroke-width="0.57" stroke-linejoin="round" stroke-dasharray="0.7 0.7"/>
<path d="M121.487 180.358V188.722L98.7325 201.837V193.483L121.487 180.358Z" stroke="black" stroke-width="0.57" stroke-linejoin="round" stroke-dasharray="0.7 0.7"/>
<path d="M98.7326 193.483L75.9779 180.358V188.722L98.7326 201.837V193.483Z" stroke="black" stroke-width="0.57" stroke-linejoin="round" stroke-dasharray="0.7 0.7"/>
<path d="M98.7325 180.358L81.6987 190.177L94.8855 197.779L111.919 187.96L98.7325 180.358Z" stroke="black" stroke-width="0.57" stroke-linejoin="round" stroke-dasharray="0.7 0.7"/>
<path d="M111.919 187.96V209.438L94.8856 219.257V197.779L111.919 187.96Z" fill="white" stroke="black" stroke-width="0.57" stroke-linejoin="round"/>
<path d="M81.6987 190.177V211.655L94.8855 219.257V197.778L81.6987 190.177Z" fill="white" stroke="black" stroke-width="0.57" stroke-linejoin="round"/>
<path d="M157.399 203.361L140.207 213.278L129.439 207.062L146.631 197.155L157.399 203.361Z" fill="white" stroke="black" stroke-width="0.57" stroke-linejoin="round"/>
<path d="M157.399 203.361V215.832L140.207 225.74V213.278L157.399 203.361Z" fill="white" stroke="black" stroke-width="0.57" stroke-linejoin="round"/>
<path d="M140.207 213.278L129.439 207.062V219.534L140.207 225.74V213.278Z" fill="white" stroke="black" stroke-width="0.57" stroke-linejoin="round"/>
<path d="M157.706 207.646L157.399 207.468L157.102 207.646" stroke="black" stroke-width="0.57" stroke-linejoin="round"/>
<path d="M156.487 207.993L140.811 217.029" stroke="black" stroke-width="0.57" stroke-linejoin="round" stroke-dasharray="0.72 0.72"/>
<path d="M140.504 217.208L140.207 217.386L140.504 217.554" stroke="black" stroke-width="0.57" stroke-linejoin="round"/>
<path d="M141.099 217.9L153.949 225.304" stroke="black" stroke-width="0.57" stroke-linejoin="round" stroke-dasharray="0.7 0.7"/>
<path d="M154.246 225.482L154.544 225.651L154.851 225.482" stroke="black" stroke-width="0.57" stroke-linejoin="round"/>
<path d="M155.466 225.126L171.141 216.089" stroke="black" stroke-width="0.57" stroke-linejoin="round" stroke-dasharray="0.72 0.72"/>
<path d="M171.448 215.911L171.746 215.733L171.448 215.565" stroke="black" stroke-width="0.57" stroke-linejoin="round"/>
<path d="M170.844 215.219L158.004 207.815" stroke="black" stroke-width="0.57" stroke-linejoin="round" stroke-dasharray="0.7 0.7"/>
<path d="M171.448 215.911L171.746 215.733V216.079" stroke="black" stroke-width="0.57" stroke-linejoin="round"/>
<path d="M171.746 216.782V223.404" stroke="black" stroke-width="0.57" stroke-linejoin="round" stroke-dasharray="0.7 0.7"/>
<path d="M171.746 223.75V224.096L171.448 224.265" stroke="black" stroke-width="0.57" stroke-linejoin="round"/>
<path d="M170.834 224.621L155.158 233.658" stroke="black" stroke-width="0.57" stroke-linejoin="round" stroke-dasharray="0.72 0.72"/>
<path d="M154.851 233.836L154.543 234.014V233.668" stroke="black" stroke-width="0.57" stroke-linejoin="round"/>
<path d="M154.543 232.965V226.343" stroke="black" stroke-width="0.57" stroke-linejoin="round" stroke-dasharray="0.7 0.7"/>
<path d="M154.543 225.997V225.651L154.851 225.482" stroke="black" stroke-width="0.57" stroke-linejoin="round"/>
<path d="M155.466 225.126L171.141 216.089" stroke="black" stroke-width="0.57" stroke-linejoin="round" stroke-dasharray="0.72 0.72"/>
<path d="M154.544 225.997V225.651L154.246 225.482" stroke="black" stroke-width="0.57" stroke-linejoin="round"/>
<path d="M153.651 225.136L140.802 217.732" stroke="black" stroke-width="0.57" stroke-linejoin="round" stroke-dasharray="0.7 0.7"/>
<path d="M140.504 217.554L140.207 217.386V217.732" stroke="black" stroke-width="0.57" stroke-linejoin="round"/>
<path d="M140.207 218.425V225.047" stroke="black" stroke-width="0.57" stroke-linejoin="round" stroke-dasharray="0.7 0.7"/>
<path d="M140.207 225.393V225.739L140.504 225.918" stroke="black" stroke-width="0.57" stroke-linejoin="round"/>
<path d="M141.099 226.264L153.949 233.668" stroke="black" stroke-width="0.57" stroke-linejoin="round" stroke-dasharray="0.7 0.7"/>
<path d="M154.246 233.836L154.544 234.014V233.668" stroke="black" stroke-width="0.57" stroke-linejoin="round"/>
<path d="M154.543 232.965V226.343" stroke="black" stroke-width="0.57" stroke-linejoin="round" stroke-dasharray="0.7 0.7"/>
<path d="M154.544 228.343L137.51 238.162L94.8856 213.585L111.919 203.767L154.544 228.343Z" stroke="black" stroke-width="0.57" stroke-linejoin="round" stroke-dasharray="0.7 0.7"/>
<path d="M137.51 238.161L94.8856 213.585V219.256L137.51 243.833V238.161Z" stroke="black" stroke-width="0.57" stroke-linejoin="round" stroke-dasharray="0.7 0.7"/>
<path d="M75.6804 170.629L75.9779 170.807L75.6804 170.975" stroke="black" stroke-width="0.57" stroke-linejoin="round"/>
<path d="M75.0757 171.332L59.5588 180.279" stroke="black" stroke-width="0.57" stroke-linejoin="round" stroke-dasharray="0.71 0.71"/>
<path d="M59.2514 180.447L58.9441 180.625L58.6466 180.447" stroke="black" stroke-width="0.57" stroke-linejoin="round"/>
<path d="M58.0319 180.101L36.3381 167.59" stroke="black" stroke-width="0.57" stroke-linejoin="round" stroke-dasharray="0.71 0.71"/>
<path d="M36.0307 167.412L35.7333 167.244L36.0307 167.065" stroke="black" stroke-width="0.57" stroke-linejoin="round"/>
<path d="M36.6455 166.719L52.1623 157.771" stroke="black" stroke-width="0.57" stroke-linejoin="round" stroke-dasharray="0.71 0.71"/>
<path d="M52.4696 157.593L52.7671 157.425L53.0645 157.593" stroke="black" stroke-width="0.57" stroke-linejoin="round"/>
<path d="M53.6792 157.95L75.373 170.461" stroke="black" stroke-width="0.57" stroke-linejoin="round" stroke-dasharray="0.71 0.71"/>
<path d="M75.6804 170.975L75.9779 170.807V171.153" stroke="black" stroke-width="0.57" stroke-linejoin="round"/>
<path d="M75.9779 171.846V188.029" stroke="black" stroke-width="0.57" stroke-linejoin="round" stroke-dasharray="0.7 0.7"/>
<path d="M75.9779 188.375V188.722L75.6804 188.89" stroke="black" stroke-width="0.57" stroke-linejoin="round"/>
<path d="M75.0757 189.247L59.5588 198.194" stroke="black" stroke-width="0.57" stroke-linejoin="round" stroke-dasharray="0.71 0.71"/>
<path d="M59.2515 198.362L58.9441 198.54V198.194" stroke="black" stroke-width="0.57" stroke-linejoin="round"/>
<path d="M58.9441 197.501V181.318" stroke="black" stroke-width="0.57" stroke-linejoin="round" stroke-dasharray="0.7 0.7"/>
<path d="M58.9441 180.972V180.625L59.2515 180.447" stroke="black" stroke-width="0.57" stroke-linejoin="round"/>
<path d="M59.8562 180.101L75.373 171.153" stroke="black" stroke-width="0.57" stroke-linejoin="round" stroke-dasharray="0.71 0.71"/>
<path d="M58.9441 180.972V180.625L58.6466 180.447" stroke="black" stroke-width="0.57" stroke-linejoin="round"/>
<path d="M58.0319 180.101L36.3381 167.59" stroke="black" stroke-width="0.57" stroke-linejoin="round" stroke-dasharray="0.71 0.71"/>
<path d="M36.0307 167.412L35.7333 167.244V167.59" stroke="black" stroke-width="0.57" stroke-linejoin="round"/>
<path d="M35.7333 168.273V184.466" stroke="black" stroke-width="0.57" stroke-linejoin="round" stroke-dasharray="0.7 0.7"/>
<path d="M35.7333 184.812V185.158L36.0307 185.327" stroke="black" stroke-width="0.57" stroke-linejoin="round"/>
<path d="M36.6455 185.683L58.3393 198.194" stroke="black" stroke-width="0.57" stroke-linejoin="round" stroke-dasharray="0.71 0.71"/>
<path d="M58.6466 198.362L58.9441 198.54V198.194" stroke="black" stroke-width="0.57" stroke-linejoin="round"/>
<path d="M58.9441 197.501V181.318" stroke="black" stroke-width="0.57" stroke-linejoin="round" stroke-dasharray="0.7 0.7"/>
<path d="M63.4752 201.153L58.9441 198.54V132.67L63.4752 135.283V201.153Z" fill="white" stroke="black" stroke-width="0.57" stroke-linejoin="round"/>
<path d="M68.7697 197.749V198.095L68.4723 198.273" stroke="black" stroke-width="0.57" stroke-linejoin="round"/>
<path d="M67.7981 198.659L64.1097 200.777" stroke="black" stroke-width="0.57" stroke-linejoin="round" stroke-dasharray="0.78 0.78"/>
<path d="M63.7826 200.975L63.4752 201.154V200.807" stroke="black" stroke-width="0.57" stroke-linejoin="round"/>
<path d="M63.4752 200.105V135.977" stroke="black" stroke-width="0.57" stroke-linejoin="round" stroke-dasharray="0.71 0.71"/>
<path d="M63.4752 135.63V135.284L63.7826 135.105" stroke="black" stroke-width="0.57" stroke-linejoin="round"/>
<path d="M64.4468 134.719L68.1351 132.601" stroke="black" stroke-width="0.57" stroke-linejoin="round" stroke-dasharray="0.78 0.78"/>
<path d="M68.4723 132.403L68.7697 132.225V132.581" stroke="black" stroke-width="0.57" stroke-linejoin="round"/>
<path d="M68.7698 133.274V197.402" stroke="black" stroke-width="0.57" stroke-linejoin="round" stroke-dasharray="0.71 0.71"/>
<path d="M59.2515 132.502L58.9441 132.671L59.2515 132.849" stroke="black" stroke-width="0.57" stroke-linejoin="round"/>
<path d="M59.8066 133.166L62.8902 134.947" stroke="black" stroke-width="0.57" stroke-linejoin="round" stroke-dasharray="0.65 0.65"/>
<path d="M63.1777 135.105L63.4752 135.284L63.7825 135.105" stroke="black" stroke-width="0.57" stroke-linejoin="round"/>
<path d="M64.4468 134.719L68.1351 132.601" stroke="black" stroke-width="0.57" stroke-linejoin="round" stroke-dasharray="0.78 0.78"/>
<path d="M68.4723 132.403L68.7697 132.225L68.4723 132.057" stroke="black" stroke-width="0.57" stroke-linejoin="round"/>
<path d="M67.9071 131.73L64.8236 129.958" stroke="black" stroke-width="0.57" stroke-linejoin="round" stroke-dasharray="0.65 0.65"/>
<path d="M64.546 129.79L64.2485 129.622L63.9412 129.79" stroke="black" stroke-width="0.57" stroke-linejoin="round"/>
<path d="M63.2768 130.176L59.5885 132.304" stroke="black" stroke-width="0.57" stroke-linejoin="round" stroke-dasharray="0.78 0.78"/>
<path d="M68.0262 203.776L63.4752 201.153V191.711L68.0262 194.334V203.776Z" fill="white" stroke="black" stroke-width="0.57" stroke-linejoin="round"/>
<path d="M73.3504 200.708L68.0261 203.776V194.334L73.3504 191.266V200.708Z" fill="white" stroke="black" stroke-width="0.57" stroke-linejoin="round"/>
<path d="M63.4752 191.711L68.0262 194.334L73.3505 191.266L68.7995 188.643L63.4752 191.711Z" fill="white" stroke="black" stroke-width="0.57" stroke-linejoin="round"/>
<path d="M239.296 167.244V185.159" stroke="black" stroke-width="0.57" stroke-linejoin="round" stroke-dasharray="0.7 0.7"/>
<path d="M137.51 225.918V243.833" stroke="black" stroke-width="0.57" stroke-linejoin="round" stroke-dasharray="0.7 0.7"/>
<path d="M162.148 113.459L162.456 113.637L162.148 113.805" stroke="black" stroke-width="0.57" stroke-linejoin="round"/>
<path d="M161.553 114.152L147.553 122.219" stroke="black" stroke-width="0.57" stroke-linejoin="round" stroke-dasharray="0.69 0.69"/>
<path d="M147.256 122.396L146.959 122.565L146.661 122.396" stroke="black" stroke-width="0.57" stroke-linejoin="round"/>
<path d="M146.027 122.03L138.779 117.854" stroke="black" stroke-width="0.57" stroke-linejoin="round" stroke-dasharray="0.73 0.73"/>
<path d="M138.471 117.676L138.164 117.497L138.471 117.329" stroke="black" stroke-width="0.57" stroke-linejoin="round"/>
<path d="M139.066 116.982L153.066 108.906" stroke="black" stroke-width="0.57" stroke-linejoin="round" stroke-dasharray="0.69 0.69"/>
<path d="M153.364 108.738L153.661 108.569L153.968 108.738" stroke="black" stroke-width="0.57" stroke-linejoin="round"/>
<path d="M154.593 109.104L161.841 113.281" stroke="black" stroke-width="0.57" stroke-linejoin="round" stroke-dasharray="0.73 0.73"/>
<path d="M162.148 175.419L162.456 175.241V174.895" stroke="black" stroke-width="0.57" stroke-linejoin="round"/>
<path d="M162.456 174.192V114.33" stroke="black" stroke-width="0.57" stroke-linejoin="round" stroke-dasharray="0.71 0.71"/>
<path d="M162.456 113.984V113.637L162.148 113.805" stroke="black" stroke-width="0.57" stroke-linejoin="round"/>
<path d="M161.553 114.152L147.553 122.219" stroke="black" stroke-width="0.57" stroke-linejoin="round" stroke-dasharray="0.69 0.69"/>
<path d="M147.256 122.396L146.959 122.565V122.911" stroke="black" stroke-width="0.57" stroke-linejoin="round"/>
<path d="M146.959 123.614V183.476" stroke="black" stroke-width="0.57" stroke-linejoin="round" stroke-dasharray="0.71 0.71"/>
<path d="M146.959 183.822V184.179L147.256 184" stroke="black" stroke-width="0.57" stroke-linejoin="round"/>
<path d="M147.851 183.654L161.851 175.587" stroke="black" stroke-width="0.57" stroke-linejoin="round" stroke-dasharray="0.69 0.69"/>
<path d="M146.959 183.822V184.179L146.661 184" stroke="black" stroke-width="0.57" stroke-linejoin="round"/>
<path d="M146.027 183.634L138.779 179.458" stroke="black" stroke-width="0.57" stroke-linejoin="round" stroke-dasharray="0.73 0.73"/>
<path d="M138.471 179.279L138.164 179.101V178.755" stroke="black" stroke-width="0.57" stroke-linejoin="round"/>
<path d="M138.164 178.062V118.2" stroke="black" stroke-width="0.57" stroke-linejoin="round" stroke-dasharray="0.71 0.71"/>
<path d="M138.164 117.843V117.497L138.471 117.675" stroke="black" stroke-width="0.57" stroke-linejoin="round"/>
<path d="M139.096 118.032L146.344 122.209" stroke="black" stroke-width="0.57" stroke-linejoin="round" stroke-dasharray="0.73 0.73"/>
<path d="M146.661 122.396L146.959 122.565V122.911" stroke="black" stroke-width="0.57" stroke-linejoin="round"/>
<path d="M146.959 123.614V183.476" stroke="black" stroke-width="0.57" stroke-linejoin="round" stroke-dasharray="0.71 0.71"/>
<path d="M138.164 149.457L121.487 139.836L138.164 130.226L154.841 139.836" fill="white"/>
<path d="M138.164 149.457L121.487 139.836L138.164 130.226L154.841 139.836" stroke="black" stroke-width="0.57" stroke-linejoin="round"/>
<path d="M138.164 149.457V198.333L154.841 188.722V139.836" stroke="black" stroke-width="0.57" stroke-miterlimit="10" stroke-dasharray="0.7 0.7"/>
<path d="M154.841 139.836L138.164 149.457" stroke="black" stroke-width="0.57" stroke-miterlimit="10" stroke-dasharray="0.7 0.7"/>
<path d="M121.487 139.836V188.722L138.164 198.333V149.457L121.487 139.836Z" fill="white" stroke="black" stroke-width="0.57" stroke-linejoin="round"/>
<path d="M162.456 113.637L199.527 148.131" stroke="black" stroke-width="0.57" stroke-miterlimit="10" stroke-dasharray="0.7 0.7"/>
<path d="M154.841 139.836L204.505 196.858" stroke="black" stroke-width="0.57" stroke-miterlimit="10" stroke-dasharray="0.7 0.7"/>
<path d="M138.164 149.457L94.8856 213.585" stroke="black" stroke-width="0.57" stroke-miterlimit="10" stroke-dasharray="0.7 0.7"/>
<path d="M75.9779 170.807L121.487 139.836" stroke="black" stroke-width="0.57" stroke-miterlimit="10" stroke-dasharray="0.7 0.7"/>
<path d="M138.164 117.497L118.027 119.803" stroke="black" stroke-width="0.57" stroke-miterlimit="10" stroke-dasharray="0.7 0.7"/>
<path d="M58.4186 45.7778L58.716 45.5996" stroke="black" stroke-width="0.57" stroke-linejoin="round"/>
<path d="M59.3208 45.2531L136.726 0.633789" stroke="black" stroke-width="0.57" stroke-linejoin="round" stroke-dasharray="0.71 0.71"/>
<path d="M137.024 0.455504L137.331 0.277344L137.629 0.455504" stroke="black" stroke-width="0.57" stroke-linejoin="round"/>
<path d="M138.234 0.801758L238.959 58.8722" stroke="black" stroke-width="0.57" stroke-linejoin="round" stroke-dasharray="0.7 0.7"/>
<path d="M239.256 59.0405L239.564 59.2187L239.256 59.3869" stroke="black" stroke-width="0.57" stroke-linejoin="round"/>
<path d="M238.661 59.7437L137.936 117.804" stroke="black" stroke-width="0.57" stroke-linejoin="round" stroke-dasharray="0.7 0.7"/>
<path d="M137.629 117.982L137.331 118.15L137.034 117.982" stroke="black" stroke-width="0.57" stroke-linejoin="round"/>
<path d="M136.429 117.636L35.7035 59.5654" stroke="black" stroke-width="0.57" stroke-linejoin="round" stroke-dasharray="0.7 0.7"/>
<path d="M35.3962 59.3869L35.0988 59.2187L35.3962 59.0405" stroke="black" stroke-width="0.57" stroke-linejoin="round"/>
<path d="M36.0109 58.6942L57.8038 46.124" stroke="black" stroke-width="0.57" stroke-linejoin="round" stroke-dasharray="0.72 0.72"/>
<path d="M58.1112 45.9461L58.4186 45.7778" stroke="black" stroke-width="0.57" stroke-linejoin="round"/>
<path d="M35.2573 59.2188V168.58" stroke="black" stroke-width="0.57" stroke-linejoin="round" stroke-dasharray="0.7 0.7"/>
</g>
<defs>
<clipPath id="clip0_777_4399">
<rect width="240" height="247" fill="white"/>
</clipPath>
</defs>
</svg>
