<?xml version="1.0" encoding="UTF-8"?><svg id="_レイヤー_2" xmlns="http://www.w3.org/2000/svg" viewBox="0 0 243.18 255.38"><defs><style>.cls-1{font-family:AcuminPro-Medium, 'Acumin Pro';font-size:15px;font-weight:500;}.cls-2{stroke-width:.32px;}.cls-2,.cls-3,.cls-4,.cls-5,.cls-6,.cls-7,.cls-8,.cls-9,.cls-10,.cls-11,.cls-12,.cls-13,.cls-14,.cls-15,.cls-16,.cls-17,.cls-18,.cls-19,.cls-20,.cls-21,.cls-22,.cls-23{stroke:#000;}.cls-2,.cls-15,.cls-17{stroke-miterlimit:10;}.cls-3{stroke-dasharray:.69 .69;}.cls-3,.cls-24,.cls-4,.cls-5,.cls-6,.cls-25,.cls-7,.cls-8,.cls-9,.cls-10,.cls-11,.cls-26,.cls-27,.cls-12,.cls-13,.cls-28,.cls-14,.cls-15,.cls-16,.cls-18,.cls-19,.cls-20,.cls-21,.cls-22,.cls-29,.cls-23{stroke-width:.57px;}.cls-3,.cls-24,.cls-4,.cls-5,.cls-6,.cls-25,.cls-7,.cls-8,.cls-9,.cls-10,.cls-11,.cls-26,.cls-27,.cls-12,.cls-13,.cls-28,.cls-14,.cls-15,.cls-16,.cls-19,.cls-20,.cls-21,.cls-29,.cls-23{fill:none;}.cls-3,.cls-24,.cls-4,.cls-5,.cls-6,.cls-25,.cls-7,.cls-8,.cls-9,.cls-10,.cls-11,.cls-26,.cls-27,.cls-12,.cls-13,.cls-28,.cls-14,.cls-16,.cls-18,.cls-19,.cls-20,.cls-21,.cls-22,.cls-29,.cls-23{stroke-linejoin:round;}.cls-24{stroke-dasharray:.7 .7;}.cls-24,.cls-25,.cls-26,.cls-27,.cls-28,.cls-29{stroke:#878788;}.cls-4{stroke-dasharray:.7 .7;}.cls-5{stroke-dasharray:.71 .71;}.cls-6{stroke-dasharray:.69 .69;}.cls-25{stroke-dasharray:.71 .71;}.cls-7{stroke-dasharray:.71 .71;}.cls-8,.cls-15{stroke-dasharray:.7 .7;}.cls-9,.cls-29{stroke-dasharray:.7 .7;}.cls-11{stroke-dasharray:.7 .7;}.cls-26{stroke-dasharray:.71 .71;}.cls-27{stroke-dasharray:.71 .71;}.cls-12{stroke-dasharray:.7 .7;}.cls-13{stroke-dasharray:.72 .72;}.cls-14{stroke-dasharray:.71 .71;}.cls-16{stroke-dasharray:.71 .71;}.cls-17{stroke-width:.28px;}.cls-17,.cls-18,.cls-22{fill:#fff;}.cls-18{stroke-linecap:round;}.cls-19{stroke-dasharray:.78 .78;}.cls-20{stroke-dasharray:.73 .73;}.cls-21{stroke-dasharray:.65 .65;}.cls-30{letter-spacing:.11em;}.cls-31{letter-spacing:.02em;}.cls-23{stroke-dasharray:.7 .7;}</style></defs><g id="_レイヤー_11"><line class="cls-29" x1="242.89" y1="59.57" x2="242.89" y2="192.9"/><line class="cls-28" x1="60.84" y1="46.04" x2="61.15" y2="45.87"/><line class="cls-24" x1="61.76" y1="45.52" x2="139.47" y2=".64"/><polyline class="cls-28" points="139.78 .46 140.08 .28 140.39 .46"/><line class="cls-26" x1="141" y1=".81" x2="242.13" y2="59.21"/><polyline class="cls-28" points="242.43 59.39 242.74 59.57 242.43 59.74"/><line class="cls-27" x1="241.82" y1="60.09" x2="140.69" y2="118.5"/><polyline class="cls-28" points="140.39 118.67 140.08 118.85 139.78 118.67"/><line class="cls-26" x1="139.17" y1="118.32" x2="38.04" y2="59.92"/><polyline class="cls-28" points="37.73 59.74 37.43 59.57 37.73 59.39"/><line class="cls-25" x1="38.35" y1="59.03" x2="60.23" y2="46.4"/><line class="cls-28" x1="60.54" y1="46.22" x2="60.84" y2="46.04"/><line class="cls-29" x1="37.59" y1="59.57" x2="37.59" y2="192.9"/><polygon class="cls-18" points="140.24 252.18 37.58 192.9 140.24 133.62 242.89 192.9 140.24 252.18"/><polygon class="cls-2" points="242.89 195.82 140.24 255.1 140.24 252.18 242.89 192.9 242.89 195.82"/><polygon class="cls-2" points="140.24 255.1 37.58 195.82 37.58 192.9 140.24 252.18 140.24 255.1"/><polygon class="cls-22" points="164.68 161.99 184.33 150.64 154.42 133.36 134.76 144.71 164.68 161.99"/><polygon class="cls-22" points="184.33 150.64 184.33 159.08 164.68 170.43 164.68 161.99 184.33 150.64"/><polygon class="cls-22" points="164.68 161.99 164.68 170.43 134.76 153.16 134.76 144.71 164.68 161.99"/><polygon class="cls-22" points="157.64 171.91 184.33 156.49 202.79 167.15 176.1 182.57 157.64 171.91"/><polygon class="cls-22" points="202.79 167.15 202.79 169.74 176.1 185.15 176.1 182.57 202.79 167.15"/><polygon class="cls-22" points="176.1 182.57 176.1 185.15 157.64 174.5 157.64 171.91 176.1 182.57"/><polygon class="cls-9" points="202.79 155.5 187.74 164.18 202.79 172.87 217.83 164.18 202.79 155.5"/><polygon class="cls-9" points="217.83 164.18 217.83 178.43 202.79 187.12 202.79 172.87 217.83 164.18"/><polygon class="cls-22" points="202.79 172.87 202.79 187.12 187.74 178.43 187.74 164.18 202.79 172.87"/><polygon class="cls-22" points="187.74 159.99 167.7 171.57 182.74 180.25 202.79 168.68 187.74 159.99"/><polygon class="cls-22" points="202.79 168.68 202.79 187.12 182.74 198.69 182.74 180.25 202.79 168.68"/><polygon class="cls-22" points="167.7 171.57 167.7 190 182.74 198.69 182.74 180.25 167.7 171.57"/><polyline class="cls-10" points="242.59 184.28 242.89 184.46 242.59 184.63"/><line class="cls-11" x1="241.98" y1="184.98" x2="208.41" y2="204.37"/><polyline class="cls-10" points="208.11 204.55 207.8 204.72 207.5 204.55"/><line class="cls-3" x1="206.9" y1="204.2" x2="183.34" y2="190.59"/><polyline class="cls-10" points="183.04 190.42 182.74 190.25 183.04 190.07"/><line class="cls-11" x1="183.65" y1="189.72" x2="217.22" y2="170.33"/><polyline class="cls-10" points="217.53 170.16 217.83 169.98 218.13 170.16"/><line class="cls-3" x1="218.73" y1="170.5" x2="242.29" y2="184.11"/><polyline class="cls-10" points="242.59 184.63 242.89 184.46 242.89 184.81"/><line class="cls-4" x1="242.89" y1="185.51" x2="242.89" y2="192.2"/><polyline class="cls-10" points="242.89 192.55 242.89 192.9 242.59 193.08"/><line class="cls-11" x1="241.98" y1="193.43" x2="208.41" y2="212.82"/><polyline class="cls-10" points="208.11 212.99 207.8 213.17 207.8 212.82"/><line class="cls-4" x1="207.8" y1="212.11" x2="207.8" y2="205.42"/><polyline class="cls-10" points="207.8 205.07 207.8 204.72 208.11 204.55"/><line class="cls-11" x1="208.71" y1="204.2" x2="242.29" y2="184.81"/><polyline class="cls-10" points="183.04 190.42 182.74 190.25 182.74 190.6"/><line class="cls-4" x1="182.74" y1="191.3" x2="182.74" y2="197.99"/><polyline class="cls-10" points="182.74 198.34 182.74 198.69 183.04 198.87"/><line class="cls-3" x1="183.64" y1="199.21" x2="207.2" y2="212.82"/><polyline class="cls-10" points="207.5 212.99 207.8 213.17 207.8 212.82"/><line class="cls-4" x1="207.8" y1="212.11" x2="207.8" y2="205.42"/><polyline class="cls-10" points="207.8 205.07 207.8 204.72 207.5 204.55"/><line class="cls-3" x1="206.9" y1="204.2" x2="183.34" y2="190.59"/><polygon class="cls-22" points="160.3 217.19 155.12 214.2 155.12 203.45 160.3 206.44 160.3 217.19"/><polygon class="cls-22" points="166.36 213.7 160.3 217.19 160.3 206.44 166.36 202.95 166.36 213.7"/><polygon class="cls-22" points="155.12 203.45 160.3 206.44 166.36 202.95 161.18 199.96 155.12 203.45"/><polygon class="cls-22" points="184.52 205.92 181.6 204.24 181.6 166.27 184.52 167.96 184.52 205.92"/><polygon class="cls-15" points="187.92 203.96 184.52 205.92 184.52 167.96 187.92 165.99 187.92 203.96"/><polygon class="cls-22" points="181.6 166.27 184.52 167.96 187.92 165.99 185.01 164.31 181.6 166.27"/><polygon class="cls-22" points="189.46 199.41 156.42 218.49 174.77 229.08 207.8 210 189.46 199.41"/><polygon class="cls-22" points="207.8 210 207.8 213.17 174.77 232.24 174.77 229.08 207.8 210"/><polygon class="cls-22" points="174.77 229.08 156.42 218.49 156.42 221.65 174.77 232.24 174.77 229.08"/><polygon class="cls-15" points="134.76 135.06 104.69 152.43 90.51 144.24 120.59 126.88 134.76 135.06"/><polygon class="cls-22" points="134.76 135.06 134.76 153.16 104.69 170.53 104.69 152.43 134.76 135.06"/><polygon class="cls-22" points="104.69 152.43 104.69 170.53 90.51 162.34 90.51 144.24 104.69 152.43"/><polygon class="cls-22" points="101.13 160.02 79.94 172.26 69.32 166.13 90.51 153.89 101.13 160.02"/><polygon class="cls-22" points="101.13 160.02 101.13 168.47 79.94 180.71 79.94 172.26 101.13 160.02"/><polygon class="cls-22" points="79.94 172.26 69.32 166.13 69.32 174.58 79.94 180.71 79.94 172.26"/><polygon class="cls-22" points="113.93 167.41 101.13 174.8 88.33 167.41 101.13 160.02 113.93 167.41"/><polygon class="cls-22" points="113.93 167.41 113.93 175.86 101.13 183.25 101.13 174.8 113.93 167.41"/><polygon class="cls-22" points="101.13 174.8 101.13 183.25 88.33 175.86 88.33 167.41 101.13 174.8"/><polygon class="cls-9" points="124.08 188.06 101.13 201.31 78.18 188.06 101.13 174.8 124.08 188.06"/><polygon class="cls-9" points="124.08 188.06 124.08 196.5 101.13 209.76 101.13 201.31 124.08 188.06"/><polygon class="cls-9" points="101.13 201.31 78.18 188.06 78.18 196.5 101.13 209.76 101.13 201.31"/><polygon class="cls-8" points="101.13 188.06 83.95 197.98 97.24 205.65 114.42 195.73 101.13 188.06"/><polygon class="cls-22" points="114.42 195.73 114.42 217.43 97.24 227.35 97.24 205.65 114.42 195.73"/><polygon class="cls-22" points="83.95 197.98 83.95 219.68 97.24 227.35 97.24 205.65 83.95 197.98"/><polygon class="cls-22" points="160.3 211.29 142.95 221.31 132.09 215.04 149.44 205.02 160.3 211.29"/><polygon class="cls-22" points="160.3 211.29 160.3 223.89 142.95 233.91 142.95 221.31 160.3 211.29"/><polygon class="cls-22" points="142.95 221.31 132.09 215.04 132.09 227.64 142.95 233.91 142.95 221.31"/><polyline class="cls-10" points="160.6 215.62 160.3 215.44 160 215.62"/><line class="cls-13" x1="159.38" y1="215.98" x2="143.57" y2="225.11"/><polyline class="cls-10" points="143.26 225.29 142.95 225.46 143.26 225.64"/><line class="cls-23" x1="143.86" y1="225.99" x2="156.81" y2="233.47"/><polyline class="cls-10" points="157.11 233.64 157.42 233.82 157.72 233.64"/><line class="cls-13" x1="158.34" y1="233.28" x2="174.15" y2="224.15"/><polyline class="cls-10" points="174.46 223.97 174.77 223.8 174.46 223.62"/><line class="cls-23" x1="173.86" y1="223.28" x2="160.91" y2="215.79"/><polyline class="cls-10" points="174.46 223.97 174.77 223.8 174.77 224.15"/><line class="cls-4" x1="174.77" y1="224.85" x2="174.77" y2="231.54"/><polyline class="cls-10" points="174.77 231.89 174.77 232.24 174.46 232.42"/><line class="cls-13" x1="173.84" y1="232.78" x2="158.03" y2="241.91"/><polyline class="cls-10" points="157.72 242.09 157.42 242.26 157.42 241.91"/><line class="cls-4" x1="157.42" y1="241.21" x2="157.42" y2="234.52"/><polyline class="cls-10" points="157.42 234.17 157.42 233.82 157.72 233.64"/><line class="cls-13" x1="158.34" y1="233.28" x2="174.15" y2="224.15"/><polyline class="cls-10" points="157.42 234.17 157.42 233.82 157.11 233.64"/><line class="cls-23" x1="156.51" y1="233.29" x2="143.56" y2="225.81"/><polyline class="cls-10" points="143.26 225.64 142.95 225.46 142.95 225.81"/><line class="cls-4" x1="142.95" y1="226.52" x2="142.95" y2="233.21"/><polyline class="cls-10" points="142.95 233.56 142.95 233.91 143.26 234.08"/><line class="cls-23" x1="143.86" y1="234.43" x2="156.81" y2="241.91"/><polyline class="cls-10" points="157.11 242.09 157.42 242.26 157.42 241.91"/><line class="cls-4" x1="157.42" y1="241.21" x2="157.42" y2="234.52"/><polygon class="cls-9" points="157.42 236.54 140.24 246.46 97.24 221.63 114.42 211.71 157.42 236.54"/><polygon class="cls-9" points="140.24 246.46 97.24 221.63 97.24 227.35 140.24 252.18 140.24 246.46"/><polyline class="cls-10" points="77.88 178.23 78.18 178.4 77.88 178.58"/><line class="cls-16" x1="77.26" y1="178.93" x2="61.61" y2="187.97"/><polyline class="cls-10" points="61.3 188.15 61 188.32 60.7 188.15"/><line class="cls-5" x1="60.08" y1="187.79" x2="38.2" y2="175.16"/><polyline class="cls-10" points="37.89 174.98 37.59 174.8 37.89 174.63"/><line class="cls-16" x1="38.5" y1="174.27" x2="54.15" y2="165.23"/><polyline class="cls-10" points="54.46 165.06 54.77 164.88 55.07 165.06"/><line class="cls-5" x1="55.68" y1="165.41" x2="77.57" y2="178.05"/><polyline class="cls-10" points="77.88 178.58 78.18 178.4 78.18 178.75"/><line class="cls-12" x1="78.18" y1="179.45" x2="78.18" y2="195.8"/><polyline class="cls-10" points="78.18 196.15 78.18 196.5 77.88 196.68"/><line class="cls-16" x1="77.26" y1="197.03" x2="61.61" y2="206.07"/><polyline class="cls-10" points="61.3 206.25 61 206.42 61 206.07"/><line class="cls-12" x1="61" y1="205.38" x2="61" y2="189.02"/><polyline class="cls-10" points="61 188.68 61 188.32 61.3 188.15"/><line class="cls-16" x1="61.92" y1="187.79" x2="77.57" y2="178.76"/><line class="cls-10" x1="37.59" y1="192.9" x2="37.89" y2="193.08"/><line class="cls-5" x1="38.51" y1="193.43" x2="60.39" y2="206.07"/><polyline class="cls-10" points="60.7 206.25 61 206.42 61 206.07"/><line class="cls-12" x1="61" y1="205.38" x2="61" y2="189.02"/><polyline class="cls-10" points="61 188.68 61 188.32 60.7 188.15"/><line class="cls-5" x1="60.08" y1="187.79" x2="38.2" y2="175.16"/><line class="cls-10" x1="37.89" y1="174.98" x2="37.59" y2="174.8"/><polygon class="cls-22" points="65.57 209.06 61 206.42 61 139.88 65.57 142.51 65.57 209.06"/><polyline class="cls-10" points="70.91 205.63 70.91 205.98 70.6 206.15"/><line class="cls-19" x1="69.93" y1="206.54" x2="66.21" y2="208.69"/><polyline class="cls-10" points="65.87 208.89 65.57 209.06 65.57 208.71"/><line class="cls-14" x1="65.57" y1="208" x2="65.57" y2="143.22"/><polyline class="cls-10" points="65.57 142.87 65.57 142.51 65.87 142.34"/><line class="cls-19" x1="66.55" y1="141.95" x2="70.27" y2="139.8"/><polyline class="cls-10" points="70.6 139.61 70.91 139.43 70.91 139.78"/><line class="cls-14" x1="70.91" y1="140.49" x2="70.91" y2="205.27"/><polyline class="cls-10" points="61.3 139.7 61 139.88 61.3 140.05"/><line class="cls-21" x1="61.87" y1="140.38" x2="64.98" y2="142.18"/><polyline class="cls-10" points="65.26 142.34 65.57 142.51 65.87 142.34"/><line class="cls-19" x1="66.55" y1="141.95" x2="70.27" y2="139.8"/><polyline class="cls-10" points="70.6 139.61 70.91 139.43 70.6 139.25"/><line class="cls-21" x1="70.04" y1="138.93" x2="66.93" y2="137.13"/><polyline class="cls-10" points="66.65 136.97 66.34 136.79 66.04 136.97"/><line class="cls-19" x1="65.36" y1="137.36" x2="61.64" y2="139.51"/><polygon class="cls-22" points="70.16 211.71 65.57 209.06 65.57 199.53 70.16 202.18 70.16 211.71"/><polygon class="cls-22" points="75.53 208.61 70.16 211.71 70.16 202.18 75.53 199.08 75.53 208.61"/><polygon class="cls-22" points="65.57 199.53 70.16 202.18 75.53 199.08 70.94 196.43 65.57 199.53"/><line class="cls-9" x1="140.24" y1="234.09" x2="140.24" y2="252.18"/><polyline class="cls-10" points="165.09 120.47 165.39 120.64 165.09 120.82"/><line class="cls-6" x1="164.49" y1="121.16" x2="150.37" y2="129.32"/><polyline class="cls-10" points="150.07 129.49 149.77 129.67 149.46 129.49"/><line class="cls-20" x1="148.83" y1="129.12" x2="141.52" y2="124.9"/><polyline class="cls-10" points="141.2 124.72 140.9 124.55 141.2 124.37"/><line class="cls-6" x1="141.8" y1="124.02" x2="155.92" y2="115.87"/><polyline class="cls-10" points="156.22 115.7 156.53 115.52 156.83 115.7"/><line class="cls-20" x1="157.47" y1="116.06" x2="164.77" y2="120.28"/><polyline class="cls-10" points="165.09 183.06 165.39 182.89 165.39 182.53"/><line class="cls-7" x1="165.39" y1="181.83" x2="165.39" y2="121.35"/><polyline class="cls-10" points="165.39 120.99 165.39 120.64 165.09 120.82"/><line class="cls-6" x1="164.49" y1="121.16" x2="150.37" y2="129.32"/><polyline class="cls-10" points="150.07 129.49 149.77 129.67 149.77 130.02"/><line class="cls-7" x1="149.77" y1="130.72" x2="149.77" y2="191.21"/><polyline class="cls-10" points="149.77 191.56 149.77 191.91 150.07 191.73"/><line class="cls-6" x1="150.67" y1="191.39" x2="164.79" y2="183.23"/><polyline class="cls-10" points="149.77 191.56 149.77 191.91 149.46 191.73"/><line class="cls-20" x1="148.83" y1="191.37" x2="141.52" y2="187.15"/><polyline class="cls-10" points="141.2 186.97 140.9 186.79 140.9 186.44"/><line class="cls-7" x1="140.9" y1="185.73" x2="140.9" y2="125.25"/><polyline class="cls-10" points="140.9 124.9 140.9 124.55 141.2 124.72"/><line class="cls-20" x1="141.84" y1="125.09" x2="149.14" y2="129.31"/><polyline class="cls-10" points="149.46 129.49 149.77 129.67 149.77 130.02"/><line class="cls-7" x1="149.77" y1="130.72" x2="149.77" y2="191.21"/><polyline class="cls-22" points="140.9 156.83 124.08 147.12 140.9 137.41 157.72 147.12"/><polyline class="cls-15" points="140.9 156.83 140.9 206.22 157.72 196.5 157.72 147.12"/><line class="cls-15" x1="157.72" y1="147.12" x2="140.9" y2="156.83"/><polygon class="cls-22" points="124.08 147.12 124.08 196.5 140.9 206.22 140.9 156.83 124.08 147.12"/><line class="cls-15" x1="165.39" y1="120.64" x2="202.79" y2="155.5"/><line class="cls-15" x1="157.72" y1="147.12" x2="207.8" y2="204.72"/><line class="cls-15" x1="140.9" y1="156.83" x2="97.24" y2="221.63"/><line class="cls-15" x1="78.18" y1="178.4" x2="124.08" y2="147.12"/><line class="cls-15" x1="140.9" y1="124.55" x2="120.59" y2="126.88"/><text class="cls-1" transform="translate(0 189.57)"><tspan class="cls-31" x="0" y="0"> </tspan><tspan class="cls-30" x="4.05" y="0">0</tspan><tspan class="cls-31" x="14.16" y="0">1</tspan></text><line class="cls-17" x1="4.41" y1="194.52" x2="34.18" y2="194.52"/></g></svg>