<svg width="36" height="4" viewBox="0 0 36 4" fill="none" xmlns="http://www.w3.org/2000/svg">
<path d="M32.1345 2C32.1345 0.896551 33.001 0 34.0674 0C35.1338 0 36.0002 0.896551 36.0002 2C36.0002 3.10345 35.1338 4 34.0674 4C33.001 4 32.1345 3.10345 32.1345 2Z" fill="black"/>
<path d="M21.4221 2C21.4221 0.896551 22.2886 0 23.355 0C24.4214 0 25.2878 0.896551 25.2878 2C25.2878 3.10345 24.4214 4 23.355 4C22.2886 4 21.4221 3.10345 21.4221 2Z" fill="black"/>
<path d="M10.7119 2C10.7119 0.896551 11.5784 0 12.6448 0C13.7112 0 14.5776 0.896551 14.5776 2C14.5776 3.10345 13.7112 4 12.6448 4C11.5784 4 10.7119 3.10345 10.7119 2Z" fill="black"/>
<path d="M0 2C0 0.896551 0.866454 0 1.93286 0C2.99926 0 3.86572 0.896551 3.86572 2C3.86572 3.10345 2.99926 4 1.93286 4C0.866454 4 0 3.10345 0 2Z" fill="black"/>
</svg>
