<svg width="52" height="28" viewBox="0 0 52 28" fill="none" xmlns="http://www.w3.org/2000/svg">
<path d="M11.041 25.8885C5.35421 25.0002 1 20.0159 1 13.9996C1 7.9791 5.36115 2.99151 11.0538 2.10921C11.6427 2.01817 12.246 1.97053 12.86 1.97053C14.8038 1.97053 16.6387 2.44474 18.2577 3.28585C22.0941 5.27806 24.7198 9.32769 24.7198 13.9999C24.7198 18.678 22.0867 22.7323 18.2417 24.7219L18.2342 24.7278C19.0501 24.2579 22.2176 23.9078 26.0006 23.9078C30.4023 23.9078 33.9711 24.382 33.9711 24.9668M18.03 3.03341C18.03 3.61817 21.5988 4.09238 26.0005 4.09238C29.7034 4.09238 32.8164 3.75691 33.7119 3.30221L33.6991 3.30872C29.8861 5.30852 27.2802 9.34552 27.2802 13.9998C27.2802 18.6557 29.8877 22.6933 33.7028 24.6931C35.3314 25.5466 37.1802 26.029 39.1401 26.029C39.754 26.029 40.3573 25.9813 40.9461 25.8902C46.6388 25.0079 51 20.0204 51 13.9999C51 7.96956 46.6255 2.97601 40.9194 2.1051M43.511 24.5368C43.511 23.0172 35.6714 21.7853 26.0007 21.7853C16.33 21.7853 8.49037 23.0172 8.49037 24.5368C8.49037 26.0565 16.33 27 26.0007 27C35.6714 27 43.511 26.0565 43.511 24.5368ZM43.511 3.46317C43.511 4.98281 35.6714 6.21467 26.0007 6.21467C16.33 6.21467 8.49037 4.98281 8.49037 3.46317C8.49037 1.94354 16.33 1 26.0007 1C35.6714 1 43.511 1.94354 43.511 3.46317Z" stroke="#15181B" stroke-width="1.973"/>
</svg>
