<svg width="3" height="27" viewBox="0 0 3 27" fill="none" xmlns="http://www.w3.org/2000/svg">
<path d="M1.50004 24.1006C2.3276 24.1006 3 24.7504 3 25.5502C3 26.35 2.3276 26.9998 1.50004 26.9998C0.672476 26.9998 7.92378e-05 26.35 7.92728e-05 25.5502C7.93078e-05 24.7504 0.672476 24.1006 1.50004 24.1006Z" fill="black"/>
<path d="M1.50004 16.0664C2.3276 16.0664 3 16.7162 3 17.516C3 18.3158 2.3276 18.9657 1.50004 18.9657C0.672476 18.9657 7.92378e-05 18.3158 7.92728e-05 17.516C7.93078e-05 16.7162 0.672476 16.0664 1.50004 16.0664Z" fill="black"/>
<path d="M1.50004 8.03418C2.3276 8.03418 3 8.68401 3 9.48381C3 10.2836 2.3276 10.9334 1.50004 10.9334C0.672476 10.9334 7.92378e-05 10.2836 7.92728e-05 9.48381C7.93078e-05 8.68401 0.672476 8.03418 1.50004 8.03418Z" fill="black"/>
<path d="M1.50004 -6.55653e-08C2.3276 -2.93913e-08 3 0.649834 3 1.44963C3 2.24943 2.3276 2.89926 1.50004 2.89926C0.672476 2.89926 7.92378e-05 2.24943 7.92728e-05 1.44963C7.93078e-05 0.649834 0.672476 -1.01739e-07 1.50004 -6.55653e-08Z" fill="black"/>
</svg>
